<?xml version="1.0" encoding="UTF-8" standalone="no"?>
<svg
   xmlns:dc="http://purl.org/dc/elements/1.1/"
   xmlns:cc="http://creativecommons.org/ns#"
   xmlns:rdf="http://www.w3.org/1999/02/22-rdf-syntax-ns#"
   xmlns:svg="http://www.w3.org/2000/svg"
   xmlns="http://www.w3.org/2000/svg"
   xmlns:sodipodi="http://sodipodi.sourceforge.net/DTD/sodipodi-0.dtd"
   xmlns:inkscape="http://www.inkscape.org/namespaces/inkscape"
   version="1.1"
   id="art-gallery-15"
   width="14"
   height="14"
   viewBox="0 0 14 14.000001"
   sodipodi:docname="artwork_purple.svg"
   inkscape:version="0.92.5 (2060ec1f9f, 2020-04-08)">
  <metadata
     id="metadata9">
    <rdf:RDF>
      <cc:Work
         rdf:about="">
        <dc:format>image/svg+xml</dc:format>
        <dc:type
           rdf:resource="http://purl.org/dc/dcmitype/StillImage" />
        <dc:title></dc:title>
      </cc:Work>
    </rdf:RDF>
  </metadata>
  <defs
     id="defs7" />
  <sodipodi:namedview
     pagecolor="#ffffff"
     bordercolor="#666666"
     borderopacity="1"
     objecttolerance="10"
     gridtolerance="10"
     guidetolerance="10"
     inkscape:pageopacity="0"
     inkscape:pageshadow="2"
     inkscape:window-width="1366"
     inkscape:window-height="741"
     id="namedview5"
     showgrid="false"
     inkscape:zoom="15.733333"
     inkscape:cx="-15.04661"
     inkscape:cy="6.4999991"
     inkscape:window-x="0"
     inkscape:window-y="27"
     inkscape:window-maximized="1"
     inkscape:current-layer="art-gallery-15"
     fit-margin-top="0"
     fit-margin-left="0"
     fit-margin-right="0"
     fit-margin-bottom="0" />
  <path
     d="M 10.456921,3.2296538 7.376923,0.16042332 c -0.209461,-0.21118463 -0.550308,-0.21258463 -0.761492,-0.003121 -0.0011,0.001079 -0.002,0.002049 -0.0031,0.003121 L 3.543077,3.2296538 H 0.5384615 C 0.2411231,3.2296538 0,3.4707768 0,3.7681158 v 9.6923092 c 0,0.29734 0.2411231,0.53846 0.5384615,0.53846 H 13.46154 c 0.29734,0 0.53846,-0.24112 0.53846,-0.53846 V 3.7681158 c 0,-0.297339 -0.24112,-0.538462 -0.53846,-0.538462 z M 7,1.3019617 8.927692,3.2296538 H 5.072308 Z M 12.92308,12.921965 H 1.076923 V 4.3065768 H 12.92308 Z M 4.307692,7.5373468 c -0.594784,0 -1.076923,-0.482139 -1.076923,-1.076924 0,-0.594784 0.482139,-1.076923 1.076923,-1.076923 0.594785,0 1.076923,0.482139 1.076923,1.076923 0,0.594785 -0.482138,1.076924 -1.076923,1.076924 z M 11.84615,11.845035 H 3.769231 L 5.384615,8.6142698 6.730769,11.306575 9.153846,6.4604228 Z"
     id="path2"
     style="fill:#8800ff;fill-opacity:1;stroke-width:1.07692337"
     inkscape:connector-curvature="0" />
</svg>
