<?xml version="1.0" encoding="UTF-8" standalone="no"?>
<svg
   xmlns:dc="http://purl.org/dc/elements/1.1/"
   xmlns:cc="http://creativecommons.org/ns#"
   xmlns:rdf="http://www.w3.org/1999/02/22-rdf-syntax-ns#"
   xmlns:svg="http://www.w3.org/2000/svg"
   xmlns="http://www.w3.org/2000/svg"
   xmlns:sodipodi="http://sodipodi.sourceforge.net/DTD/sodipodi-0.dtd"
   xmlns:inkscape="http://www.inkscape.org/namespaces/inkscape"
   version="1.1"
   id="bank-15"
   width="15px"
   height="15px"
   viewBox="0 0 15 15"
   sodipodi:docname="bank-blue.svg"
   inkscape:version="0.92.5 (2060ec1f9f, 2020-04-08)">
  <metadata
     id="metadata8">
    <rdf:RDF>
      <cc:Work
         rdf:about="">
        <dc:format>image/svg+xml</dc:format>
        <dc:type
           rdf:resource="http://purl.org/dc/dcmitype/StillImage" />
        <dc:title />
      </cc:Work>
    </rdf:RDF>
  </metadata>
  <defs
     id="defs6" />
  <sodipodi:namedview
     pagecolor="#ffffff"
     bordercolor="#666666"
     borderopacity="1"
     objecttolerance="10"
     gridtolerance="10"
     guidetolerance="10"
     inkscape:pageopacity="0"
     inkscape:pageshadow="2"
     inkscape:window-width="1366"
     inkscape:window-height="741"
     id="namedview4"
     showgrid="false"
     inkscape:zoom="62.933333"
     inkscape:cx="7.5227558"
     inkscape:cy="6.7175834"
     inkscape:window-x="0"
     inkscape:window-y="27"
     inkscape:window-maximized="1"
     inkscape:current-layer="bank-15" />
  <path
     id="rect5668"
     d="M 1,3 C 0.446,3 0,3.446 0,4 v 7 c 0,0.554 0.446,1 1,1 h 13 c 0.554,0 1,-0.446 1,-1 V 4 C 15,3.446 14.554,3 14,3 Z M 1,4 H 2.5 C 2.7761,4 3,4.2239 3,4.5 3,4.7761 2.7761,5 2.5,5 2.2239,5 2,4.7761 2,4.5 L 1.5,5 C 1.7761,5 2,5.2239 2,5.5 2,5.7761 1.7761,6 1.5,6 1.2239,6 1,5.7761 1,5.5 Z M 7.5,4 C 8.8807,4 10,5.567 10,7.5 v 0 C 10,9.433 8.8807,11 7.5,11 6.1193,11 5,9.433 5,7.5 5,5.567 6.1193,4 7.5,4 Z m 5,0 H 14 V 5.5 C 14,5.7761 13.7761,6 13.5,6 13.2239,6 13,5.7761 13,5.5 13,5.2239 13.2239,5 13.5,5 L 13,4.5 C 13,4.7761 12.7761,5 12.5,5 12.2239,5 12,4.7761 12,4.5 12,4.2239 12.2239,4 12.5,4 Z M 1.5,9 C 1.7761,9 2,9.2239 2,9.5 2,9.7761 1.7761,10 1.5,10 L 2,10.5 C 2,10.2239 2.2239,10 2.5,10 2.7761,10 3,10.2239 3,10.5 3,10.7761 2.7761,11 2.5,11 H 1 V 9.5 C 1,9.2239 1.2239,9 1.5,9 Z m 12,0 C 13.7761,9 14,9.2239 14,9.5 V 11 H 12.5 C 12.2239,11 12,10.7761 12,10.5 12,10.2239 12.2239,10 12.5,10 12.7761,10 13,10.2239 13,10.5 L 13.5,10 C 13.2239,10 13,9.7761 13,9.5 13,9.2239 13.2239,9 13.5,9 Z"
     style="fill:#1e88e5;fill-opacity:1"
     inkscape:connector-curvature="0"
     sodipodi:nodetypes="ssssssssscsssccssscsccsssscsssccsssssccssscsssscsssccss" />
</svg>
