<?xml version="1.0" encoding="UTF-8" standalone="no"?>
<svg
   xmlns:dc="http://purl.org/dc/elements/1.1/"
   xmlns:cc="http://creativecommons.org/ns#"
   xmlns:rdf="http://www.w3.org/1999/02/22-rdf-syntax-ns#"
   xmlns:svg="http://www.w3.org/2000/svg"
   xmlns="http://www.w3.org/2000/svg"
   xmlns:sodipodi="http://sodipodi.sourceforge.net/DTD/sodipodi-0.dtd"
   xmlns:inkscape="http://www.inkscape.org/namespaces/inkscape"
   width="14"
   height="14"
   version="1.1"
   id="svg6"
   sodipodi:docname="bicycle_rental.svg"
   inkscape:version="0.92.5 (2060ec1f9f, 2020-04-08)">
  <metadata
     id="metadata12">
    <rdf:RDF>
      <cc:Work
         rdf:about="">
        <dc:format>image/svg+xml</dc:format>
        <dc:type
           rdf:resource="http://purl.org/dc/dcmitype/StillImage" />
        <dc:title></dc:title>
      </cc:Work>
    </rdf:RDF>
  </metadata>
  <defs
     id="defs10" />
  <sodipodi:namedview
     pagecolor="#ffffff"
     bordercolor="#666666"
     borderopacity="1"
     objecttolerance="10"
     gridtolerance="10"
     guidetolerance="10"
     inkscape:pageopacity="0"
     inkscape:pageshadow="2"
     inkscape:window-width="1366"
     inkscape:window-height="741"
     id="namedview8"
     showgrid="false"
     fit-margin-top="0"
     fit-margin-left="0"
     fit-margin-right="0"
     fit-margin-bottom="0"
     inkscape:zoom="8.2405137"
     inkscape:cx="11.463592"
     inkscape:cy="-6.0236021"
     inkscape:window-x="0"
     inkscape:window-y="27"
     inkscape:window-maximized="1"
     inkscape:current-layer="svg6" />
  <g
     id="g824"
     transform="matrix(1.0769231,0,0,1.0769231,-1.0769232,-2.1538464)"
     style="fill:#555555;fill-opacity:1">
    <path
       id="path2"
       d="m 10,6 c 0.2047,-2e-4 0.3889,0.1244 0.4648,0.3144 l 1,2.5 c 0.1159,0.2906 -0.0604,0.615 -0.3671,0.6758 L 9.9492,9.7207 C 9.9392,9.7403 9.9283,9.7592 9.916,9.7773 l -2,3 C 7.7148,13.0793 7.2689,13.0731 7.0762,12.7656 L 4.7227,9 H 4 C 3.3238,9.01 3.3238,7.9904 4,8 H 6 C 6.6762,7.99 6.6762,9.0096 6,9 H 5.9023 L 6.1855,9.4531 10.3125,8.6269 9.6621,7 H 8.5 C 7.8238,7.01 7.8238,5.9904 8.5,6 H 10 M 8.5684,9.9961 6.7519,10.3594 7.5137,11.5781 8.5684,9.9961 M 11.5,10 C 12.8748,10 14,11.1252 14,12.5 14,13.8748 12.8748,15 11.5,15 10.1252,15 9,13.8748 9,12.5 9,11.1252 10.1252,10 11.5,10 m -8,0 C 4.8748,10 6,11.1252 6,12.5 6,13.8748 4.8748,15 3.5,15 2.1252,15 1,13.8748 1,12.5 1,11.1252 2.1252,10 3.5,10 m 8,1 C 10.6657,11 10,11.6656 10,12.5 10,13.3344 10.6657,14 11.5,14 12.3343,14 13,13.3344 13,12.5 13,11.6656 12.3343,11 11.5,11 m -8,0 C 2.6657,11 2,11.6656 2,12.5 2,13.3344 2.6657,14 3.5,14 4.3343,14 5,13.3344 5,12.5 5,11.6656 4.3343,11 3.5,11"
       inkscape:connector-curvature="0"
       style="fill:#555555;fill-opacity:1" />
    <path
       id="path4"
       d="M 9,2 C 8.8674,2 8.7402,2.0527 8.6465,2.1465 L 7.793,3 H 2 C 1.7239,3 1.5,3.2239 1.5,3.5 V 4 c 0,0.1326 0.0527,0.2598 0.1465,0.3535 l 0.5,0.5 c 0.1952,0.1952 0.5118,0.1952 0.707,0 L 3.5,4.207 4.1465,4.8535 c 0.1952,0.1952 0.5118,0.1952 0.707,0 L 5.5,4.207 6.1465,4.8535 C 6.2403,4.9473 6.3674,5 6.5,5 H 7.793 L 8.6465,5.8535 C 8.7403,5.9473 8.8674,6 9,6 h 1 c 0.1326,0 0.2598,-0.0527 0.3535,-0.1465 l 0.5,-0.5 C 10.9473,5.2598 11,5.1326 11,5 V 3 C 11,2.8674 10.9473,2.7402 10.8535,2.6465 l -0.5,-0.5 C 10.2598,2.0527 10.1326,2 10,2 H 9 M 9.5,3 C 9.7761,3 10,3.2239 10,3.5 v 1 C 10,4.7761 9.7761,5 9.5,5 9.2239,5 9,4.7761 9,4.5 v -1 C 9,3.2239 9.2239,3 9.5,3"
       inkscape:connector-curvature="0"
       style="fill:#555555;fill-opacity:1" />
  </g>
</svg>
