<?xml version="1.0" encoding="UTF-8" standalone="no"?>
<svg
   xmlns:dc="http://purl.org/dc/elements/1.1/"
   xmlns:cc="http://creativecommons.org/ns#"
   xmlns:rdf="http://www.w3.org/1999/02/22-rdf-syntax-ns#"
   xmlns:svg="http://www.w3.org/2000/svg"
   xmlns="http://www.w3.org/2000/svg"
   xmlns:sodipodi="http://sodipodi.sourceforge.net/DTD/sodipodi-0.dtd"
   xmlns:inkscape="http://www.inkscape.org/namespaces/inkscape"
   width="14"
   height="14"
   version="1.1"
   id="svg14"
   sodipodi:docname="bookcase_purple.svg"
   inkscape:version="0.92.5 (2060ec1f9f, 2020-04-08)">
  <metadata
     id="metadata20">
    <rdf:RDF>
      <cc:Work
         rdf:about="">
        <dc:format>image/svg+xml</dc:format>
        <dc:type
           rdf:resource="http://purl.org/dc/dcmitype/StillImage" />
        <dc:title></dc:title>
      </cc:Work>
    </rdf:RDF>
  </metadata>
  <defs
     id="defs18" />
  <sodipodi:namedview
     pagecolor="#ffffff"
     bordercolor="#666666"
     borderopacity="1"
     objecttolerance="10"
     gridtolerance="10"
     guidetolerance="10"
     inkscape:pageopacity="0"
     inkscape:pageshadow="2"
     inkscape:window-width="1366"
     inkscape:window-height="741"
     id="namedview16"
     showgrid="false"
     inkscape:zoom="14.75"
     inkscape:cx="-6.145199"
     inkscape:cy="5.4560298"
     inkscape:window-x="0"
     inkscape:window-y="27"
     inkscape:window-maximized="1"
     inkscape:current-layer="svg14"
     fit-margin-top="0"
     fit-margin-left="0"
     fit-margin-right="0"
     fit-margin-bottom="0" />
  <g
     id="g1454"
     transform="translate(-1.1199305e-7,-0.0367088)"
     style="fill:#9966dd;fill-opacity:1">
    <path
       sodipodi:nodetypes="cccccccc"
       id="path2"
       d="M 6.8291136,1.10521 0.81255538,3.2930491 C 0.19219449,3.3978465 0.59530338,4.6069561 1.1544063,4.318599 L 6.9999846,2.1991296 12.845673,4.3187081 c 0.5591,0.288248 0.962102,-0.9207521 0.341739,-1.025659 L 7.1708547,1.10521 c -0.094626,-0.042006 -0.2355208,-0.042772 -0.3417411,0"
       style="fill:#9966dd;fill-opacity:1;stroke-width:0.99999994"
       inkscape:connector-curvature="0" />
    <path
       style="fill:#9966dd;fill-opacity:1;stroke-width:1.07692349"
       inkscape:connector-curvature="0"
       id="path2-3"
       d="m 4.9564643,3.6246959 c -0.2164135,0 -0.390638,0.1742244 -0.390638,0.3906377 v 7.0314774 c 0,0.216414 0.1742245,0.390638 0.390638,0.390638 h 0.7812755 c 0.2164135,0 0.3906374,-0.174224 0.3906374,-0.390638 V 4.0153336 c 0,-0.2164133 -0.1742239,-0.3906377 -0.3906374,-0.3906377 H 4.9564643 m 2.3438263,0.7812755 c -0.2164135,0 -0.390638,0.1742244 -0.390638,0.3906379 v 6.2502017 c 0,0.216414 0.1742245,0.390638 0.390638,0.390638 H 8.081566 c 0.2164136,0 0.3906382,-0.174224 0.3906382,-0.390638 V 4.7966093 c 0,-0.2164135 -0.1742245,-0.3906379 -0.3906382,-0.3906379 H 7.3002906 m 2.7725864,0.7736187 c -0.02594,0.00167 -0.05318,0.00682 -0.079294,0.013748 L 9.239729,5.3947536 C 9.0307377,5.4507708 8.9075305,5.6648402 8.9635484,5.8739099 l 1.4144976,5.2827491 c 0.05607,0.209069 0.270165,0.3322 0.479159,0.276181 l 0.75385,-0.202897 c 0.208994,-0.05601 0.3322,-0.268603 0.276179,-0.477672 L 10.472735,5.469522 C 10.423671,5.2866252 10.254528,5.1684962 10.072877,5.1795901 m -7.4602392,0.00767 C 2.3962245,5.1872466 2.222,5.3614712 2.222,5.5778847 v 5.4689263 c 0,0.216414 0.1742245,0.390638 0.3906378,0.390638 h 0.7812757 c 0.2164128,0 0.3906373,-0.174224 0.3906373,-0.390638 V 5.5778847 c 0,-0.2164135 -0.1742245,-0.3906381 -0.3906373,-0.3906381 H 2.6126378 m 0,7.0314804 C 2.3962245,12.218727 2.222,12.392948 2.222,12.609364 2.222,12.825778 2.3962245,13 2.6126378,13 h 9.3753062 c 0.216414,0 0.390636,-0.174222 0.390636,-0.390636 0,-0.216416 -0.174222,-0.390637 -0.390636,-0.390637 H 2.6126378" />
  </g>
</svg>
