<?xml version="1.0" encoding="UTF-8" standalone="no"?>
<svg
   xmlns:dc="http://purl.org/dc/elements/1.1/"
   xmlns:cc="http://creativecommons.org/ns#"
   xmlns:rdf="http://www.w3.org/1999/02/22-rdf-syntax-ns#"
   xmlns:svg="http://www.w3.org/2000/svg"
   xmlns="http://www.w3.org/2000/svg"
   xmlns:sodipodi="http://sodipodi.sourceforge.net/DTD/sodipodi-0.dtd"
   xmlns:inkscape="http://www.inkscape.org/namespaces/inkscape"
   width="14"
   height="14"
   version="1.1"
   id="svg4"
   sodipodi:docname="books_red.svg"
   inkscape:version="0.92.5 (2060ec1f9f, 2020-04-08)">
  <metadata
     id="metadata10">
    <rdf:RDF>
      <cc:Work
         rdf:about="">
        <dc:format>image/svg+xml</dc:format>
        <dc:type
           rdf:resource="http://purl.org/dc/dcmitype/StillImage" />
        <dc:title></dc:title>
      </cc:Work>
    </rdf:RDF>
  </metadata>
  <defs
     id="defs8" />
  <sodipodi:namedview
     pagecolor="#ffffff"
     bordercolor="#666666"
     borderopacity="1"
     objecttolerance="10"
     gridtolerance="10"
     guidetolerance="10"
     inkscape:pageopacity="0"
     inkscape:pageshadow="2"
     inkscape:window-width="1366"
     inkscape:window-height="741"
     id="namedview6"
     showgrid="false"
     fit-margin-top="0"
     fit-margin-left="0"
     fit-margin-right="0"
     fit-margin-bottom="0"
     inkscape:zoom="14.75"
     inkscape:cx="-15.983051"
     inkscape:cy="6"
     inkscape:window-x="0"
     inkscape:window-y="27"
     inkscape:window-maximized="1"
     inkscape:current-layer="svg4" />
  <path
     d="m 3.769231,0.5384617 c -0.298308,0 -0.538462,0.2401538 -0.538462,0.5384615 V 10.76923 c 0,0.298308 0.240154,0.538462 0.538462,0.538462 h 1.076923 c 0.298308,0 0.538461,-0.240154 0.538461,-0.538462 V 1.0769232 c 0,-0.2983077 -0.240153,-0.5384615 -0.538461,-0.5384615 H 3.769231 M 7,1.6153848 c -0.298308,0 -0.538462,0.2401538 -0.538462,0.5384617 V 10.76923 c 0,0.298308 0.240154,0.538462 0.538462,0.538462 h 1.076923 c 0.298308,0 0.538462,-0.240154 0.538462,-0.538462 V 2.1538465 c 0,-0.2983079 -0.240154,-0.5384617 -0.538462,-0.5384617 H 7 m 3.82178,1.0663688 c -0.03575,0.0023 -0.0733,0.0094 -0.1093,0.01895 l -1.039126,0.277635 c -0.288077,0.077215 -0.457908,0.372292 -0.380692,0.660477 l 1.949768,7.2818304 c 0.0773,0.288184 0.3724,0.45791 0.66048,0.380692 l 1.03912,-0.279677 c 0.28808,-0.07721 0.45791,-0.370246 0.38069,-0.658431 L 11.37295,3.0814006 C 11.30532,2.8292926 11.07217,2.6664616 10.82178,2.6817536 M 0.5384615,2.6923176 C 0.2401538,2.6923076 0,2.9324616 0,3.2307696 V 10.76923 c 0,0.298308 0.2401538,0.538462 0.5384615,0.538462 H 1.615385 c 0.298307,0 0.538461,-0.240154 0.538461,-0.538462 V 3.2307696 c 0,-0.298308 -0.240154,-0.538462 -0.538461,-0.538462 H 0.5384615 m 0,9.6923104 C 0.2401538,12.384618 0,12.624768 0,12.923078 c 0,0.29831 0.2401538,0.53846 0.5384615,0.53846 H 13.46154 c 0.29831,0 0.53846,-0.24015 0.53846,-0.53846 0,-0.29831 -0.24015,-0.53846 -0.53846,-0.53846 H 0.5384615"
     id="path2"
     inkscape:connector-curvature="0"
     style="fill:#bb4444;stroke-width:1.07692337;fill-opacity:1" />
</svg>
