<?xml version="1.0" encoding="UTF-8" standalone="no"?>
<svg
   xmlns:dc="http://purl.org/dc/elements/1.1/"
   xmlns:cc="http://creativecommons.org/ns#"
   xmlns:rdf="http://www.w3.org/1999/02/22-rdf-syntax-ns#"
   xmlns:svg="http://www.w3.org/2000/svg"
   xmlns="http://www.w3.org/2000/svg"
   xmlns:sodipodi="http://sodipodi.sourceforge.net/DTD/sodipodi-0.dtd"
   xmlns:inkscape="http://www.inkscape.org/namespaces/inkscape"
   version="1.1"
   width="14.000001"
   height="14.000001"
   viewBox="0 0 14.000001 14.000001"
   id="religious-buddhist-15"
   sodipodi:docname="buddhist.svg"
   inkscape:version="0.92.5 (2060ec1f9f, 2020-04-08)">
  <metadata
     id="metadata9">
    <rdf:RDF>
      <cc:Work
         rdf:about="">
        <dc:format>image/svg+xml</dc:format>
        <dc:type
           rdf:resource="http://purl.org/dc/dcmitype/StillImage" />
        <dc:title></dc:title>
      </cc:Work>
    </rdf:RDF>
  </metadata>
  <defs
     id="defs7" />
  <sodipodi:namedview
     pagecolor="#ffffff"
     bordercolor="#666666"
     borderopacity="1"
     objecttolerance="10"
     gridtolerance="10"
     guidetolerance="10"
     inkscape:pageopacity="0"
     inkscape:pageshadow="2"
     inkscape:window-width="1366"
     inkscape:window-height="741"
     id="namedview5"
     showgrid="false"
     inkscape:zoom="15.733333"
     inkscape:cx="-4.2733052"
     inkscape:cy="6.4977948"
     inkscape:window-x="0"
     inkscape:window-y="27"
     inkscape:window-maximized="1"
     inkscape:current-layer="religious-buddhist-15"
     fit-margin-top="0"
     fit-margin-left="0"
     fit-margin-right="0"
     fit-margin-bottom="0" />
  <path
     d="M 13.471961,6.4614501 H 12.897523 C 12.789762,5.2690078 12.32052,4.137799 11.552461,3.218823 L 11.959925,2.8112462 C 12.171257,2.6017815 12.172636,2.2607913 11.963047,2.0496246 11.75718,1.8422495 11.423395,1.8366593 11.210684,2.0370225 v 0 l -0.01325,0.013248 -0.407142,0.4071459 C 9.870423,1.6894621 8.7379968,1.22021 7.5442249,1.1123272 V 0.53855291 C 7.5442249,0.24112091 7.3029157,0 7.0052515,0 6.7075874,0 6.4662782,0.24112091 6.4662782,0.53855291 V 1.1123272 C 5.2728837,1.2204255 4.1408672,1.6896667 3.2213356,2.4574169 L 2.8134406,2.046501 C 2.5979267,1.8413339 2.2567673,1.8495738 2.0514402,2.0649196 c -0.1983421,0.2080106 -0.1983421,0.5349769 0,0.7429876 L 2.4593351,3.2145146 C 1.69008,4.1345353 1.220408,5.2673813 1.1131955,6.4614501 H 0.5389733 C 0.2413092,6.4614501 0,6.7025711 0,7.000003 0,7.297435 0.2413092,7.538556 0.5389733,7.538556 h 0.5742222 c 0.1076544,1.1923023 0.5767014,2.3234357 1.3445227,3.242412 l -0.407356,0.407037 c -0.2106092,0.210188 -0.210814,0.551188 -4.636e-4,0.761633 0.2053813,0.205468 0.5367959,0.211231 0.7492053,0.01302 l 0.013259,-0.01325 0.4073558,-0.407039 c 0.919812,0.768105 2.0523566,1.23738 3.2462362,1.345089 v 0.57399 c 0,0.297432 0.2413092,0.538553 0.5389733,0.538553 0.2976643,0 0.5389733,-0.241121 0.5389733,-0.538553 V 12.887464 C 8.737393,12.779474 9.869507,12.310222 10.789061,11.542375 l 0.407356,0.407038 c 0.21035,0.210445 0.551616,0.21065 0.762226,4.63e-4 0.205628,-0.205221 0.211396,-0.536377 0.01303,-0.74862 l -0.01326,-0.01326 v 0 l -0.407355,-0.407033 c 0.768393,-0.9188794 1.238,-2.0500883 1.34614,-3.2426275 h 0.574438 c 0.29761,-0.00586 0.534111,-0.2516766 0.528259,-0.5490547 -0.0057,-0.2889983 -0.238713,-0.5219655 -0.527936,-0.5278357 z M 7.5442249,2.2086055 C 8.4483094,2.3082165 9.305407,2.6626486 10.015525,3.2305634 L 7.6979401,5.546341 C 7.6476754,5.5228601 7.596225,5.5020072 7.5437936,5.4838688 V 2.2086055 Z m -1.0779467,0 v 3.2749402 c -0.052431,0.018138 -0.1038817,0.038991 -0.1541463,0.062472 L 3.9945468,3.2302404 C 4.7048811,2.6623255 5.5622151,2.3080008 6.4664939,2.2086055 Z M 3.2324384,3.9919696 5.5500237,6.3077471 C 5.5265244,6.3579721 5.5056551,6.4093829 5.487503,6.4617732 H 2.2103294 C 2.309964,5.5582322 2.664727,4.7016423 3.233193,3.9919696 Z m -1.022109,3.5463709 h 3.2774968 c 0.018185,0.05238 0.039054,0.1037899 0.062521,0.1540261 L 3.2327619,10.008145 C 2.664393,9.2984499 2.3097808,8.4418491 2.2103294,7.5383405 Z M 6.4664939,11.791185 C 5.5624093,11.691575 4.7053124,11.337142 3.9951935,10.769227 L 6.3127787,8.4534496 c 0.050264,0.02348 0.1017151,0.044334 0.1541463,0.062472 v 3.2749404 z m 1.0779465,0 V 8.5162448 C 7.5968714,8.4981168 7.648333,8.4772638 7.6985868,8.4537728 L 10.016171,10.76955 C 9.305858,11.337508 8.4485143,11.691843 7.5442249,11.791185 Z M 10.77828,10.007821 8.4606951,7.6920435 C 8.4841625,7.6418072 8.5050313,7.590397 8.5232161,7.5380173 H 11.80179 c -0.1,0.9037026 -0.455238,1.760314 -1.024265,2.4698037 z M 8.5228926,6.4614501 C 8.5047401,6.4090597 8.4838709,6.3576494 8.4603716,6.3074239 L 10.777957,3.9916465 c 0.568359,0.7095649 0.923068,1.5659934 1.022756,2.4693727 H 8.5228926 Z"
     id="path2"
     style="fill:#555555;stroke-width:1.07752621;fill-opacity:1"
     inkscape:connector-curvature="0" />
</svg>
