<?xml version="1.0" encoding="UTF-8" standalone="no"?>
<svg
   xmlns:dc="http://purl.org/dc/elements/1.1/"
   xmlns:cc="http://creativecommons.org/ns#"
   xmlns:rdf="http://www.w3.org/1999/02/22-rdf-syntax-ns#"
   xmlns:svg="http://www.w3.org/2000/svg"
   xmlns="http://www.w3.org/2000/svg"
   xmlns:sodipodi="http://sodipodi.sourceforge.net/DTD/sodipodi-0.dtd"
   xmlns:inkscape="http://www.inkscape.org/namespaces/inkscape"
   version="1.1"
   id="attraction-15"
   width="14"
   height="14"
   viewBox="0 0 14 14"
   sodipodi:docname="camera_rust.svg"
   inkscape:version="0.92.5 (2060ec1f9f, 2020-04-08)">
  <metadata
     id="metadata8">
    <rdf:RDF>
      <cc:Work
         rdf:about="">
        <dc:format>image/svg+xml</dc:format>
        <dc:type
           rdf:resource="http://purl.org/dc/dcmitype/StillImage" />
        <dc:title></dc:title>
      </cc:Work>
    </rdf:RDF>
  </metadata>
  <defs
     id="defs6" />
  <sodipodi:namedview
     pagecolor="#ffffff"
     bordercolor="#666666"
     borderopacity="1"
     objecttolerance="10"
     gridtolerance="10"
     guidetolerance="10"
     inkscape:pageopacity="0"
     inkscape:pageshadow="2"
     inkscape:window-width="1366"
     inkscape:window-height="741"
     id="namedview4"
     showgrid="false"
     inkscape:zoom="15.733333"
     inkscape:cx="-8.0233058"
     inkscape:cy="4.4999998"
     inkscape:window-x="0"
     inkscape:window-y="27"
     inkscape:window-maximized="1"
     inkscape:current-layer="attraction-15"
     fit-margin-top="0"
     fit-margin-left="0"
     fit-margin-right="0"
     fit-margin-bottom="0" />
  <path
     id="rect7143"
     d="m 5.384615,1.6153846 c -0.596615,0 -0.810061,0.543308 -1.076923,1.076923 L 3.769231,3.7692306 H 1.615385 C 0.720462,3.7692306 0,4.4896926 0,5.3846156 v 5.3846194 c 0,0.89492 0.720462,1.61538 1.615385,1.61538 H 12.38462 c 0.89492,0 1.61538,-0.72046 1.61538,-1.61538 V 5.3846156 c 0,-0.894923 -0.72046,-1.615385 -1.61538,-1.615385 H 10.23077 L 9.69231,2.6923076 C 9.423079,2.1538466 9.212,1.6153846 8.615385,1.6153846 Z m -3.76923,3.230769 c 0.297338,0 0.538461,0.241124 0.538461,0.538462 0,0.297338 -0.241123,0.538462 -0.538461,0.538462 -0.297339,0 -0.538462,-0.241124 -0.538462,-0.538462 0,-0.297338 0.241123,-0.538462 0.538462,-0.538462 z m 5.384615,0 c 1.784354,0 3.23077,1.446416 3.23077,3.23077 0,1.7843538 -1.446416,3.2307714 -3.23077,3.2307714 -1.784354,0 -3.230769,-1.4464176 -3.230769,-3.2307714 0,-1.784354 1.446415,-3.23077 3.230769,-3.23077 z m 0,1.615385 c -0.892123,0 -1.615385,0.723262 -1.615385,1.615385 v 0 c 0,0.8921228 0.723262,1.6153838 1.615385,1.6153838 v 0 c 0.892123,0 1.615385,-0.723261 1.615385,-1.6153838 v 0 C 8.615385,7.1848006 7.892123,6.4615386 7,6.4615386 Z"
     style="fill:#885555;stroke-width:1.07692337;fill-opacity:1"
     inkscape:connector-curvature="0" />
</svg>
