<?xml version="1.0" encoding="UTF-8" standalone="no"?>
<svg
   xmlns:dc="http://purl.org/dc/elements/1.1/"
   xmlns:cc="http://creativecommons.org/ns#"
   xmlns:rdf="http://www.w3.org/1999/02/22-rdf-syntax-ns#"
   xmlns:svg="http://www.w3.org/2000/svg"
   xmlns="http://www.w3.org/2000/svg"
   xmlns:sodipodi="http://sodipodi.sourceforge.net/DTD/sodipodi-0.dtd"
   xmlns:inkscape="http://www.inkscape.org/namespaces/inkscape"
   version="1.1"
   id="attraction-15"
   width="14"
   height="14"
   viewBox="0 0 14 14"
   sodipodi:docname="camera-no.svg"
   inkscape:version="0.92.5 (2060ec1f9f, 2020-04-08)">
  <metadata
     id="metadata8">
    <rdf:RDF>
      <cc:Work
         rdf:about="">
        <dc:format>image/svg+xml</dc:format>
        <dc:type
           rdf:resource="http://purl.org/dc/dcmitype/StillImage" />
        <dc:title></dc:title>
      </cc:Work>
    </rdf:RDF>
  </metadata>
  <defs
     id="defs6" />
  <sodipodi:namedview
     pagecolor="#ffffff"
     bordercolor="#666666"
     borderopacity="1"
     objecttolerance="10"
     gridtolerance="10"
     guidetolerance="10"
     inkscape:pageopacity="0"
     inkscape:pageshadow="2"
     inkscape:window-width="1366"
     inkscape:window-height="741"
     id="namedview4"
     showgrid="false"
     inkscape:zoom="22.250293"
     inkscape:cx="3.3546498"
     inkscape:cy="8.2430733"
     inkscape:window-x="0"
     inkscape:window-y="27"
     inkscape:window-maximized="1"
     inkscape:current-layer="attraction-15"
     fit-margin-top="0"
     fit-margin-left="0"
     fit-margin-right="0"
     fit-margin-bottom="0" />
  <path
     id="rect7143"
     d="m 5.384615,1.6153846 c -0.596615,0 -0.810061,0.5433077 -1.076923,1.0769231 L 3.769231,3.7692304 H 1.615385 C 0.7204615,3.7692304 0,4.4896924 0,5.3846154 V 10.76923 c 0,0.894923 0.7204615,1.615385 1.615385,1.615385 H 12.38462 C 13.27954,12.384615 14,11.664153 14,10.76923 V 5.3846154 c 0,-0.894923 -0.72046,-1.615385 -1.61538,-1.615385 H 10.230769 L 9.692308,2.6923077 C 9.423077,2.1538462 9.212,1.6153846 8.615385,1.6153846 Z m -3.76923,3.2307688 c 0.297338,0 0.538461,0.241124 0.538461,0.538462 0,0.297338 -0.241123,0.538462 -0.538461,0.538462 -0.297339,0 -0.538462,-0.241124 -0.538462,-0.538462 0,-0.297338 0.241123,-0.538462 0.538462,-0.538462 z m 5.384615,0 c 1.784354,0 3.230769,1.446416 3.230769,3.23077 0,1.784354 -1.446415,3.2307686 -3.230769,3.2307686 -1.784354,0 -3.230769,-1.4464146 -3.230769,-3.2307686 0,-1.784354 1.446415,-3.23077 3.230769,-3.23077 z m 0,1.615385 c -0.892123,0 -1.615385,0.723262 -1.615385,1.615385 v 0 c 0,0.892123 0.723262,1.615384 1.615385,1.615384 v 0 c 0.892123,0 1.615385,-0.723261 1.615385,-1.615384 v 0 C 8.615385,7.1848004 7.892123,6.4615384 7,6.4615384 Z"
     style="fill:#552277;fill-opacity:1;stroke-width:1.07692337"
     inkscape:connector-curvature="0" />
</svg>
