<?xml version="1.0" encoding="UTF-8" standalone="no"?>
<svg
   xmlns:dc="http://purl.org/dc/elements/1.1/"
   xmlns:cc="http://creativecommons.org/ns#"
   xmlns:rdf="http://www.w3.org/1999/02/22-rdf-syntax-ns#"
   xmlns:svg="http://www.w3.org/2000/svg"
   xmlns="http://www.w3.org/2000/svg"
   xmlns:sodipodi="http://sodipodi.sourceforge.net/DTD/sodipodi-0.dtd"
   xmlns:inkscape="http://www.inkscape.org/namespaces/inkscape"
   version="1.1"
   id="attraction-15"
   width="14"
   height="14"
   viewBox="0 0 14 14"
   sodipodi:docname="camera-yes.svg"
   inkscape:version="0.92.5 (2060ec1f9f, 2020-04-08)">
  <metadata
     id="metadata8">
    <rdf:RDF>
      <cc:Work
         rdf:about="">
        <dc:format>image/svg+xml</dc:format>
        <dc:type
           rdf:resource="http://purl.org/dc/dcmitype/StillImage" />
        <dc:title></dc:title>
      </cc:Work>
    </rdf:RDF>
  </metadata>
  <defs
     id="defs6" />
  <sodipodi:namedview
     pagecolor="#ffffff"
     bordercolor="#666666"
     borderopacity="1"
     objecttolerance="10"
     gridtolerance="10"
     guidetolerance="10"
     inkscape:pageopacity="0"
     inkscape:pageshadow="2"
     inkscape:window-width="1366"
     inkscape:window-height="741"
     id="namedview4"
     showgrid="false"
     inkscape:zoom="15.733333"
     inkscape:cx="0.20762707"
     inkscape:cy="4.4999996"
     inkscape:window-x="0"
     inkscape:window-y="27"
     inkscape:window-maximized="1"
     inkscape:current-layer="attraction-15"
     fit-margin-top="0"
     fit-margin-left="0"
     fit-margin-right="0"
     fit-margin-bottom="0" />
  <path
     id="rect7143"
     d="m 5.3846154,1.6153846 c -0.5966154,0 -0.8100614,0.543308 -1.076923,1.0769234 L 3.7692309,3.769231 H 1.6153846 C 0.7204616,3.769231 0,4.4896926 0,5.3846156 v 5.3846154 c 0,0.894924 0.7204616,1.615384 1.6153846,1.615384 H 12.384616 C 13.27954,12.384615 14,11.664155 14,10.769231 V 5.3846156 C 14,4.4896926 13.27954,3.769231 12.384616,3.769231 H 10.23077 L 9.692309,2.692308 C 9.423075,2.1538466 9.212,1.6153846 8.6153885,1.6153846 Z M 1.6153846,4.846154 c 0.2973384,0 0.5384614,0.2411232 0.5384614,0.5384616 0,0.2973384 -0.241123,0.5384616 -0.5384614,0.5384616 -0.2973386,0 -0.5384616,-0.2411232 -0.5384616,-0.5384616 0,-0.2973384 0.241123,-0.5384616 0.5384616,-0.5384616 z M 7,4.846154 c 1.784358,0 3.23077,1.4464156 3.23077,3.2307692 0,1.7843542 -1.446412,3.2307678 -3.23077,3.2307678 -1.784354,0 -3.2307691,-1.4464136 -3.2307691,-3.2307678 C 3.7692309,6.2925696 5.215646,4.846154 7,4.846154 Z m 0,1.6153846 c -0.892123,0 -1.6153846,0.7232616 -1.6153846,1.6153846 v 0 C 5.3846154,8.9690464 6.107877,9.6923084 7,9.6923084 v 0 c 0.892123,0 1.6153885,-0.723262 1.6153885,-1.6153852 v 0 C 8.6153885,7.1848002 7.892123,6.4615386 7,6.4615386 Z"
     style="fill:#ffffff;stroke-width:1.07692325"
     inkscape:connector-curvature="0" />
</svg>
