<?xml version="1.0" encoding="UTF-8" standalone="no"?>
<svg
   xmlns:dc="http://purl.org/dc/elements/1.1/"
   xmlns:cc="http://creativecommons.org/ns#"
   xmlns:rdf="http://www.w3.org/1999/02/22-rdf-syntax-ns#"
   xmlns:svg="http://www.w3.org/2000/svg"
   xmlns="http://www.w3.org/2000/svg"
   xmlns:sodipodi="http://sodipodi.sourceforge.net/DTD/sodipodi-0.dtd"
   xmlns:inkscape="http://www.inkscape.org/namespaces/inkscape"
   version="1.1"
   id="attraction-15"
   width="14"
   height="14"
   viewBox="0 0 14 14"
   sodipodi:docname="camera-no.svg"
   inkscape:version="0.92.5 (2060ec1f9f, 2020-04-08)">
  <metadata
     id="metadata8">
    <rdf:RDF>
      <cc:Work
         rdf:about="">
        <dc:format>image/svg+xml</dc:format>
        <dc:type
           rdf:resource="http://purl.org/dc/dcmitype/StillImage" />
        <dc:title />
      </cc:Work>
    </rdf:RDF>
  </metadata>
  <defs
     id="defs6" />
  <sodipodi:namedview
     pagecolor="#ffffff"
     bordercolor="#666666"
     borderopacity="1"
     objecttolerance="10"
     gridtolerance="10"
     guidetolerance="10"
     inkscape:pageopacity="0"
     inkscape:pageshadow="2"
     inkscape:window-width="1366"
     inkscape:window-height="741"
     id="namedview4"
     showgrid="false"
     inkscape:zoom="31.466666"
     inkscape:cx="0.45486916"
     inkscape:cy="8.6629065"
     inkscape:window-x="0"
     inkscape:window-y="27"
     inkscape:window-maximized="1"
     inkscape:current-layer="attraction-15"
     fit-margin-top="0"
     fit-margin-left="0"
     fit-margin-right="0"
     fit-margin-bottom="0" />
  <path
     style="fill:#552277;fill-opacity:1;stroke-width:1.07692337"
     d="M 5.3847656 1.6152344 C 5.1582648 1.6152344 4.9973601 1.7095836 4.8574219 1.8359375 L 7.0292969 4.8496094 C 8.7997409 4.8658218 10.230469 6.3018966 10.230469 8.0761719 C 10.230469 8.4199753 10.163919 8.7458576 10.064453 9.0566406 L 12.458984 12.376953 C 13.318366 12.33755 14 11.638991 14 10.769531 L 14 5.3847656 C 14 4.4898426 13.279686 3.7695312 12.384766 3.7695312 L 10.230469 3.7695312 L 9.6914062 2.6914062 C 9.4221752 2.1529447 9.2118494 1.6152344 8.6152344 1.6152344 L 5.3847656 1.6152344 z M 1.6152344 3.7695312 C 0.72031087 3.7695312 1.4802974e-16 4.4898426 0 5.3847656 L 0 10.769531 C 0 11.664454 0.72031087 12.384766 1.6152344 12.384766 L 7.9140625 12.384766 L 7.1289062 11.294922 C 7.0851137 11.296682 7.0442247 11.308594 7 11.308594 C 5.215646 11.308594 3.7695312 9.8605259 3.7695312 8.0761719 C 3.7695312 7.6732995 3.8516189 7.2931602 3.9863281 6.9375 L 1.703125 3.7695312 L 1.6152344 3.7695312 z M 1.6152344 4.8457031 C 1.9125724 4.8457031 2.1542969 5.0874276 2.1542969 5.3847656 C 2.1542969 5.6821036 1.9125724 5.9238281 1.6152344 5.9238281 C 1.3178954 5.9238281 1.0761719 5.6821036 1.0761719 5.3847656 C 1.0761719 5.0874276 1.3178954 4.8457031 1.6152344 4.8457031 z "
     id="rect7143" />
  <rect
     style="opacity:1;vector-effect:none;fill:#552277;fill-opacity:1;stroke:none;stroke-width:1.20000005;stroke-linecap:round;stroke-linejoin:round;stroke-miterlimit:4;stroke-dasharray:none;stroke-dashoffset:0;stroke-opacity:1;paint-order:fill markers stroke"
     id="rect833"
     width="2.4859767"
     height="14.561606"
     x="-0.18656318"
     y="2.6584244"
     ry="0.88983101"
     transform="rotate(-35.425615)" />
</svg>
