<?xml version="1.0" encoding="UTF-8" standalone="no"?>
<svg
   xmlns:dc="http://purl.org/dc/elements/1.1/"
   xmlns:cc="http://creativecommons.org/ns#"
   xmlns:rdf="http://www.w3.org/1999/02/22-rdf-syntax-ns#"
   xmlns:svg="http://www.w3.org/2000/svg"
   xmlns="http://www.w3.org/2000/svg"
   xmlns:sodipodi="http://sodipodi.sourceforge.net/DTD/sodipodi-0.dtd"
   xmlns:inkscape="http://www.inkscape.org/namespaces/inkscape"
   version="1.1"
   id="castle-15"
   width="15px"
   height="15px"
   viewBox="0 0 15 15"
   sodipodi:docname="castle-15.svg"
   inkscape:version="0.92.5 (2060ec1f9f, 2020-04-08)">
  <metadata
     id="metadata9">
    <rdf:RDF>
      <cc:Work
         rdf:about="">
        <dc:format>image/svg+xml</dc:format>
        <dc:type
           rdf:resource="http://purl.org/dc/dcmitype/StillImage" />
      </cc:Work>
    </rdf:RDF>
  </metadata>
  <defs
     id="defs7" />
  <sodipodi:namedview
     pagecolor="#ffffff"
     bordercolor="#666666"
     borderopacity="1"
     objecttolerance="10"
     gridtolerance="10"
     guidetolerance="10"
     inkscape:pageopacity="0"
     inkscape:pageshadow="2"
     inkscape:window-width="1366"
     inkscape:window-height="741"
     id="namedview5"
     showgrid="false"
     inkscape:zoom="15.733333"
     inkscape:cx="7.5"
     inkscape:cy="7.5"
     inkscape:window-x="0"
     inkscape:window-y="27"
     inkscape:window-maximized="1"
     inkscape:current-layer="castle-15" />
  <path
     d="M11,4H4C3.4477,4,3,3.5523,3,3V0.5C3,0.2239,3.2239,0,3.5,0S4,0.2239,4,0.5V2h1V1c0-0.5523,0.4477-1,1-1s1,0.4477,1,1v1h1V1
	c0-0.5523,0.4477-1,1-1s1,0.4477,1,1v1h1V0.5C11,0.2239,11.2239,0,11.5,0S12,0.2239,12,0.5V3C12,3.5523,11.5523,4,11,4z M14,14.5
	c0,0.2761-0.2239,0.5-0.5,0.5h-12C1.2239,15,1,14.7761,1,14.5S1.2239,14,1.5,14H2c0.5523,0,1-0.4477,1-1c0,0,1-6,1-7
	c0-0.5523,0.4477-1,1-1h5c0.5523,0,1,0.4477,1,1c0,1,1,7,1,7c0,0.5523,0.4477,1,1,1h0.5c0.2723-0.0001,0.4946,0.2178,0.5,0.49V14.5z
	 M9,10.5C9,9.6716,8.3284,9,7.5,9S6,9.6716,6,10.5V14h3V10.5z"
     id="path2"
     style="fill:#333333" />
</svg>
