<?xml version="1.0" encoding="UTF-8" standalone="no"?>
<svg
   xmlns:dc="http://purl.org/dc/elements/1.1/"
   xmlns:cc="http://creativecommons.org/ns#"
   xmlns:rdf="http://www.w3.org/1999/02/22-rdf-syntax-ns#"
   xmlns:svg="http://www.w3.org/2000/svg"
   xmlns="http://www.w3.org/2000/svg"
   xmlns:sodipodi="http://sodipodi.sourceforge.net/DTD/sodipodi-0.dtd"
   xmlns:inkscape="http://www.inkscape.org/namespaces/inkscape"
   width="14"
   height="14"
   version="1.1"
   id="svg4"
   sodipodi:docname="cave_blue.svg"
   inkscape:version="0.92.5 (2060ec1f9f, 2020-04-08)">
  <metadata
     id="metadata10">
    <rdf:RDF>
      <cc:Work
         rdf:about="">
        <dc:format>image/svg+xml</dc:format>
        <dc:type
           rdf:resource="http://purl.org/dc/dcmitype/StillImage" />
        <dc:title></dc:title>
      </cc:Work>
    </rdf:RDF>
  </metadata>
  <defs
     id="defs8" />
  <sodipodi:namedview
     pagecolor="#ffffff"
     bordercolor="#666666"
     borderopacity="1"
     objecttolerance="10"
     gridtolerance="10"
     guidetolerance="10"
     inkscape:pageopacity="0"
     inkscape:pageshadow="2"
     inkscape:window-width="1366"
     inkscape:window-height="741"
     id="namedview6"
     showgrid="false"
     fit-margin-top="0"
     fit-margin-left="0"
     fit-margin-right="0"
     fit-margin-bottom="0"
     inkscape:zoom="14.75"
     inkscape:cx="5.9995025"
     inkscape:cy="4.0000001"
     inkscape:window-x="0"
     inkscape:window-y="27"
     inkscape:window-maximized="1"
     inkscape:current-layer="svg4" />
  <path
     d="M 4.4543155,1.9086303 C 4.2129846,1.9088849 3.9925283,2.0455881 3.8849731,2.2615895 L 2.6593532,4.7128294 1.4586809,5.9136289 C 1.3773463,5.9953454 1.3198138,6.0975546 1.2920659,6.2094375 L 0.01922345,11.300807 c -0.1000455,0.4012 0.2030183,0.789926 0.6165648,0.790563 H 3.1814731 c 0.274043,1.27e-4 0.5174104,-0.175143 0.604091,-0.435058 L 4.9738898,8.0889166 6.8732252,7.1367032 9.0235649,9.2871706 10.249184,11.738411 c 0.107555,0.216001 0.328012,0.352704 0.569343,0.352959 h 2.545684 c 0.413547,-6.37e-4 0.716611,-0.389363 0.616565,-0.790563 L 12.707934,6.2094375 c -0.01146,-0.044677 -0.02686,-0.087953 -0.04722,-0.1293208 L 11.387869,3.5344319 C 11.326136,3.4107116 11.225836,3.3102844 11.101989,3.2485515 L 8.5563049,1.9757091 C 8.4682239,1.931796 8.3712339,1.9087576 8.2728429,1.9086303 H 4.4543155"
     id="path2"
     inkscape:connector-curvature="0"
     style="fill:#2288ee;stroke-width:1;fill-opacity:1" />
</svg>
