<?xml version="1.0" encoding="UTF-8" standalone="no"?>
<svg
   xmlns:dc="http://purl.org/dc/elements/1.1/"
   xmlns:cc="http://creativecommons.org/ns#"
   xmlns:rdf="http://www.w3.org/1999/02/22-rdf-syntax-ns#"
   xmlns:svg="http://www.w3.org/2000/svg"
   xmlns="http://www.w3.org/2000/svg"
   xmlns:sodipodi="http://sodipodi.sourceforge.net/DTD/sodipodi-0.dtd"
   xmlns:inkscape="http://www.inkscape.org/namespaces/inkscape"
   version="1.1"
   id="cemetery-15"
   width="14"
   height="14"
   viewBox="0 0 14 14"
   sodipodi:docname="cemetery_rust.svg"
   inkscape:version="0.92.5 (2060ec1f9f, 2020-04-08)">
  <metadata
     id="metadata9">
    <rdf:RDF>
      <cc:Work
         rdf:about="">
        <dc:format>image/svg+xml</dc:format>
        <dc:type
           rdf:resource="http://purl.org/dc/dcmitype/StillImage" />
        <dc:title></dc:title>
      </cc:Work>
    </rdf:RDF>
  </metadata>
  <defs
     id="defs7" />
  <sodipodi:namedview
     pagecolor="#ffffff"
     bordercolor="#666666"
     borderopacity="1"
     objecttolerance="10"
     gridtolerance="10"
     guidetolerance="10"
     inkscape:pageopacity="0"
     inkscape:pageshadow="2"
     inkscape:window-width="1366"
     inkscape:window-height="741"
     id="namedview5"
     showgrid="false"
     inkscape:zoom="15.733333"
     inkscape:cx="-17.045696"
     inkscape:cy="6.4999998"
     inkscape:window-x="0"
     inkscape:window-y="27"
     inkscape:window-maximized="1"
     inkscape:current-layer="cemetery-15"
     fit-margin-top="0"
     fit-margin-left="0"
     fit-margin-right="0"
     fit-margin-bottom="0" />
  <path
     d="M 11.264579,11.846154 H 10.532271 L 11.846117,2.7461538 C 11.864963,2.4374 11.629871,2.1719385 11.321225,2.1530923 c -0.02606,-0.00151 -0.05223,-0.00129 -0.07818,7.539e-4 H 9.972271 C 9.972271,1.1630769 8.6476555,0 7.0107324,0 5.3738093,0 4.0599632,1.1630769 4.0599632,2.1538462 H 2.7353478 C 2.4262709,2.1414612 2.1657632,2.3818308 2.1532709,2.6909077 c -7.539e-4,0.018415 -5.385e-4,0.036831 5.384e-4,0.055246 L 3.446117,11.846154 h -0.7 C 2.4347786,11.833877 2.1712555,12.0736 2.1538093,12.384615 V 14 h 9.6923077 v -1.626154 c -0.01734,-0.305092 -0.276231,-0.539969 -0.581538,-0.527692 z M 3.769194,4.3076923 h 6.461538 V 5.3846154 H 3.769194 Z"
     id="path2"
     style="fill:#885555;stroke-width:1.07692313;fill-opacity:1"
     inkscape:connector-curvature="0" />
</svg>
