<?xml version="1.0" encoding="UTF-8" standalone="no"?>
<svg
   width="14"
   height="14"
   version="1.1"
   id="svg4"
   sodipodi:docname="cross_white.svg"
   inkscape:version="1.4.3 (fcd0343856, 2026-01-01)"
   xmlns:inkscape="http://www.inkscape.org/namespaces/inkscape"
   xmlns:sodipodi="http://sodipodi.sourceforge.net/DTD/sodipodi-0.dtd"
   xmlns="http://www.w3.org/2000/svg"
   xmlns:svg="http://www.w3.org/2000/svg"
   xmlns:rdf="http://www.w3.org/1999/02/22-rdf-syntax-ns#"
   xmlns:cc="http://creativecommons.org/ns#"
   xmlns:dc="http://purl.org/dc/elements/1.1/">
  <metadata
     id="metadata10">
    <rdf:RDF>
      <cc:Work
         rdf:about="">
        <dc:format>image/svg+xml</dc:format>
        <dc:type
           rdf:resource="http://purl.org/dc/dcmitype/StillImage" />
      </cc:Work>
    </rdf:RDF>
  </metadata>
  <defs
     id="defs8" />
  <sodipodi:namedview
     pagecolor="#ffffff"
     bordercolor="#666666"
     borderopacity="1"
     objecttolerance="10"
     gridtolerance="10"
     guidetolerance="10"
     inkscape:pageopacity="0"
     inkscape:pageshadow="2"
     inkscape:window-width="1366"
     inkscape:window-height="741"
     id="namedview6"
     showgrid="true"
     fit-margin-top="0"
     fit-margin-left="0"
     fit-margin-right="0"
     fit-margin-bottom="0"
     inkscape:zoom="7.375"
     inkscape:cx="10.169492"
     inkscape:cy="-13.491525"
     inkscape:window-x="0"
     inkscape:window-y="27"
     inkscape:window-maximized="1"
     inkscape:current-layer="svg4"
     inkscape:showpageshadow="2"
     inkscape:pagecheckerboard="0"
     inkscape:deskcolor="#d1d1d1">
    <inkscape:grid
       type="xygrid"
       id="grid812"
       originx="0"
       originy="0"
       spacingy="1"
       spacingx="1"
       units="px" />
  </sodipodi:namedview>
  <path
     d="M 6.2,0 C 5.923,0 5.6763439,0.22401198 5.7,0.5 V 3.7 H 2.5 C 2.223,3.7 2,3.923 2,4.2 v 1.6 c 0,0.277 0.224012,0.5236561 0.5,0.5 h 3.2 v 7.2 c 0,0.277 0.223,0.5 0.5,0.5 h 1.6 c 0.277,0 0.5,-0.223 0.5,-0.5 V 6.3 h 3.2 C 11.777,6.3 12,6.077 12,5.8 V 4.2 C 12,3.923 11.777,3.7 11.5,3.7 H 8.3 V 0.5 C 8.3,0.223 8.077,0 7.8,0 H 6.2"
     id="path2"
     inkscape:connector-curvature="0"
     style="fill:#ffffff;fill-opacity:1"
     sodipodi:nodetypes="cscsssscsssscsssscssc" />
</svg>
