<?xml version="1.0" encoding="UTF-8" standalone="no"?>
<svg
   xmlns:dc="http://purl.org/dc/elements/1.1/"
   xmlns:cc="http://creativecommons.org/ns#"
   xmlns:rdf="http://www.w3.org/1999/02/22-rdf-syntax-ns#"
   xmlns:svg="http://www.w3.org/2000/svg"
   xmlns="http://www.w3.org/2000/svg"
   xmlns:sodipodi="http://sodipodi.sourceforge.net/DTD/sodipodi-0.dtd"
   xmlns:inkscape="http://www.inkscape.org/namespaces/inkscape"
   width="14"
   height="14"
   version="1.1"
   id="svg4"
   sodipodi:docname="info.svg"
   inkscape:version="0.92.5 (2060ec1f9f, 2020-04-08)">
  <metadata
     id="metadata10">
    <rdf:RDF>
      <cc:Work
         rdf:about="">
        <dc:format>image/svg+xml</dc:format>
        <dc:type
           rdf:resource="http://purl.org/dc/dcmitype/StillImage" />
        <dc:title></dc:title>
      </cc:Work>
    </rdf:RDF>
  </metadata>
  <defs
     id="defs8" />
  <sodipodi:namedview
     pagecolor="#ffffff"
     bordercolor="#666666"
     borderopacity="1"
     objecttolerance="10"
     gridtolerance="10"
     guidetolerance="10"
     inkscape:pageopacity="0"
     inkscape:pageshadow="2"
     inkscape:window-width="1366"
     inkscape:window-height="741"
     id="namedview6"
     showgrid="false"
     inkscape:zoom="14.75"
     inkscape:cx="-7.4915254"
     inkscape:cy="4"
     inkscape:window-x="0"
     inkscape:window-y="27"
     inkscape:window-maximized="1"
     inkscape:current-layer="svg4"
     fit-margin-top="0"
     fit-margin-left="0"
     fit-margin-right="0"
     fit-margin-bottom="0" />
  <path
     d="m 2.2,1.5999999 c -0.6648,0 -1.2,0.5352 -1.2,1.2 V 11.2 c 0,0.6648 0.5352,1.2 1.2,1.2 h 9.6 c 0.6648,0 1.2,-0.5352 1.2,-1.2 V 2.7999999 c 0,-0.6648 -0.5352,-1.2 -1.2,-1.2 H 2.2 m 4.2,1.2 h 1.2 c 0.3324,0 0.6,0.2676 0.6,0.6 v 1.2 c 0,0.3324 -0.2676,0.6 -0.6,0.6 H 6.4 c -0.3324,0 -0.6,-0.2676 -0.6,-0.6 v -1.2 c 0,-0.3324 0.2676,-0.6 0.6,-0.6 m -0.6,3.6 h 1.8 c 0.3324,0 0.6,0.2676 0.6,0.6 V 10 c 0.32196,0 0.6,0.27804 0.6,0.6 0,0.32196 -0.27804,0.6 -0.6,0.6 H 5.8 C 5.47804,11.2 5.2,10.92196 5.2,10.6 5.2,10.27804 5.47804,10 5.8,10 V 7.5999999 c -0.3324,0 -0.6,-0.2676 -0.6,-0.6 0,-0.3324 0.2676,-0.6 0.6,-0.6"
     id="path2"
     inkscape:connector-curvature="0"
     style="fill:#555555;fill-opacity:1;stroke-width:1.20000017" />
</svg>
