<?xml version="1.0" encoding="UTF-8" standalone="no"?>
<svg
   xmlns:dc="http://purl.org/dc/elements/1.1/"
   xmlns:cc="http://creativecommons.org/ns#"
   xmlns:rdf="http://www.w3.org/1999/02/22-rdf-syntax-ns#"
   xmlns:svg="http://www.w3.org/2000/svg"
   xmlns="http://www.w3.org/2000/svg"
   xmlns:sodipodi="http://sodipodi.sourceforge.net/DTD/sodipodi-0.dtd"
   xmlns:inkscape="http://www.inkscape.org/namespaces/inkscape"
   version="1.1"
   id="landmark-15"
   width="15px"
   height="15px"
   viewBox="0 0 15 15"
   sodipodi:docname="landmark-blue.svg"
   inkscape:version="0.92.5 (2060ec1f9f, 2020-04-08)">
  <metadata
     id="metadata1077">
    <rdf:RDF>
      <cc:Work
         rdf:about="">
        <dc:format>image/svg+xml</dc:format>
        <dc:type
           rdf:resource="http://purl.org/dc/dcmitype/StillImage" />
        <dc:title></dc:title>
      </cc:Work>
    </rdf:RDF>
  </metadata>
  <defs
     id="defs1075" />
  <sodipodi:namedview
     pagecolor="#ffffff"
     bordercolor="#666666"
     borderopacity="1"
     objecttolerance="10"
     gridtolerance="10"
     guidetolerance="10"
     inkscape:pageopacity="0"
     inkscape:pageshadow="2"
     inkscape:window-width="1366"
     inkscape:window-height="741"
     id="namedview1073"
     showgrid="false"
     inkscape:zoom="15.733333"
     inkscape:cx="7.5"
     inkscape:cy="7.5"
     inkscape:window-x="0"
     inkscape:window-y="27"
     inkscape:window-maximized="1"
     inkscape:current-layer="landmark-15" />
  <path
     d="M12.5,12H12v-0.5c0-0.3-0.2-0.5-0.5-0.5H11V6h1l1-2c-1,0.1-2,0.1-3,0C9.2,3.4,8.6,2.8,8,2V1.5C8,1.2,7.8,1,7.5,1
	S7,1.2,7,1.5V2C6.4,2.8,5.8,3.4,5,4C4,4.1,3,4.1,2,4l1,2h1v5c0,0-0.5,0-0.5,0C3.2,11,3,11.2,3,11.5V12H2.5C2.2,12,2,12.2,2,12.5V13
	h11v-0.5C13,12.2,12.8,12,12.5,12z M7,11H5V6h2V11z M10,11H8V6h2V11z"
     id="path1070"
     style="fill:#1e88e5;fill-opacity:1" />
</svg>
