<?xml version="1.0" encoding="UTF-8" standalone="no"?>
<svg
   xmlns:dc="http://purl.org/dc/elements/1.1/"
   xmlns:cc="http://creativecommons.org/ns#"
   xmlns:rdf="http://www.w3.org/1999/02/22-rdf-syntax-ns#"
   xmlns:svg="http://www.w3.org/2000/svg"
   xmlns="http://www.w3.org/2000/svg"
   xmlns:sodipodi="http://sodipodi.sourceforge.net/DTD/sodipodi-0.dtd"
   xmlns:inkscape="http://www.inkscape.org/namespaces/inkscape"
   width="14"
   height="14"
   version="1.1"
   id="svg4"
   sodipodi:docname="monument_red.svg"
   inkscape:version="0.92.5 (2060ec1f9f, 2020-04-08)">
  <metadata
     id="metadata10">
    <rdf:RDF>
      <cc:Work
         rdf:about="">
        <dc:format>image/svg+xml</dc:format>
        <dc:type
           rdf:resource="http://purl.org/dc/dcmitype/StillImage" />
        <dc:title></dc:title>
      </cc:Work>
    </rdf:RDF>
  </metadata>
  <defs
     id="defs8" />
  <sodipodi:namedview
     pagecolor="#ffffff"
     bordercolor="#666666"
     borderopacity="1"
     objecttolerance="10"
     gridtolerance="10"
     guidetolerance="10"
     inkscape:pageopacity="0"
     inkscape:pageshadow="2"
     inkscape:window-width="1366"
     inkscape:window-height="741"
     id="namedview6"
     showgrid="false"
     fit-margin-top="0"
     fit-margin-left="0"
     fit-margin-right="0"
     fit-margin-bottom="0"
     inkscape:zoom="14.75"
     inkscape:cx="-8.4915254"
     inkscape:cy="7"
     inkscape:window-x="0"
     inkscape:window-y="27"
     inkscape:window-maximized="1"
     inkscape:current-layer="svg4" />
  <path
     d="M 7,0 A 1,1 0 0 0 6,1 1,1 0 0 0 7,2 1,1 0 0 0 8,1 1,1 0 0 0 7,0 M 6.5,3 C 6.2239,3 6,3.2239 6,3.5 V 4 H 5.5 C 5.2239,4 5,4.2239 5,4.5 V 5 c 2e-4,0.1896 0.1076,0.3628 0.2773,0.4473 L 5.9688,5.793 5.5469,10 H 5 C 4.7239,10 4.5,10.2239 4.5,10.5 4.5,10.7761 4.7239,11 5,11 v 2 H 4.5 C 4.2239,13 4,13.2239 4,13.5 4,13.7761 4.2239,14 4.5,14 h 5 C 9.7761,14 10,13.7761 10,13.5 10,13.2239 9.7761,13 9.5,13 H 9 V 11 C 9.2761,11 9.5,10.7761 9.5,10.5 9.5,10.2239 9.2761,10 9,10 H 8.4531 L 8.0312,5.793 8.7227,5.4473 C 8.8924,5.3628 8.9998,5.1896 9,5 V 4.5 C 9,4.2239 8.7761,4 8.5,4 H 8 V 3.5 C 8,3.2239 7.7761,3 7.5,3 h -1"
     id="path2"
     inkscape:connector-curvature="0"
     style="fill:#bb4444;fill-opacity:1" />
</svg>
