<?xml version="1.0" encoding="UTF-8" standalone="no"?>
<svg
   version="1.1"
   id="museum-15"
   width="14"
   height="14"
   viewBox="0 0 14 14"
   sodipodi:docname="museum_white.svg"
   inkscape:version="1.4.3 (fcd0343856, 2026-01-01)"
   xmlns:inkscape="http://www.inkscape.org/namespaces/inkscape"
   xmlns:sodipodi="http://sodipodi.sourceforge.net/DTD/sodipodi-0.dtd"
   xmlns="http://www.w3.org/2000/svg"
   xmlns:svg="http://www.w3.org/2000/svg"
   xmlns:rdf="http://www.w3.org/1999/02/22-rdf-syntax-ns#"
   xmlns:cc="http://creativecommons.org/ns#"
   xmlns:dc="http://purl.org/dc/elements/1.1/">
  <metadata
     id="metadata8">
    <rdf:RDF>
      <cc:Work
         rdf:about="">
        <dc:format>image/svg+xml</dc:format>
        <dc:type
           rdf:resource="http://purl.org/dc/dcmitype/StillImage" />
      </cc:Work>
    </rdf:RDF>
  </metadata>
  <defs
     id="defs6" />
  <sodipodi:namedview
     pagecolor="#ffffff"
     bordercolor="#666666"
     borderopacity="1"
     objecttolerance="10"
     gridtolerance="10"
     guidetolerance="10"
     inkscape:pageopacity="0"
     inkscape:pageshadow="2"
     inkscape:window-width="1366"
     inkscape:window-height="741"
     id="namedview4"
     showgrid="false"
     inkscape:zoom="15.733333"
     inkscape:cx="-4.2584747"
     inkscape:cy="5.4978815"
     inkscape:window-x="0"
     inkscape:window-y="27"
     inkscape:window-maximized="1"
     inkscape:current-layer="museum-15"
     fit-margin-top="0"
     fit-margin-left="0"
     fit-margin-right="0"
     fit-margin-bottom="0"
     inkscape:showpageshadow="2"
     inkscape:pagecheckerboard="0"
     inkscape:deskcolor="#d1d1d1" />
  <path
     id="path7509"
     d="M 7,0 0,3.710323 V 4.307692 H 14 V 3.710323 Z M 1.076923,5.384615 v 5.384616 L 0,12.44352 V 14 H 14 V 12.44352 L 12.92308,10.769231 V 5.384615 Z m 2.816369,1.076923 c 0.182,-0.0025 0.357323,0.06882 0.485908,0.197724 L 7,9.280062 9.6208,6.659262 c 0.26331,-0.262447 0.68945,-0.261908 0.952,0.0014 0.12546,0.125784 0.19611,0.296261 0.19643,0.473953 v 4.568525 c 0.0049,0.37175 -0.29185,0.67738 -0.6636,0.68255 -0.37175,0.0049 -0.677382,-0.29184 -0.682551,-0.6636 -1.09e-4,-0.0059 -1.09e-4,-0.0127 0,-0.0191 V 8.7584 l -1.947725,1.947723 c -0.262769,0.262017 -0.687939,0.262017 -0.950708,0 L 4.576923,8.7584 v 2.94474 c 0.0053,0.37175 -0.291846,0.67738 -0.6636,0.68255 -0.371646,0.0049 -0.677277,-0.29174 -0.682554,-0.66349 -1.07e-4,-0.0059 -1.07e-4,-0.0127 0,-0.0191 V 7.134615 c 0,-0.367661 0.294969,-0.667261 0.662523,-0.673077 z"
     style="fill:#ffffff;stroke-width:1.07692337;fill-opacity:1"
     inkscape:connector-curvature="0" />
</svg>
