<?xml version="1.0" encoding="UTF-8" standalone="no"?>
<svg
   xmlns:dc="http://purl.org/dc/elements/1.1/"
   xmlns:cc="http://creativecommons.org/ns#"
   xmlns:rdf="http://www.w3.org/1999/02/22-rdf-syntax-ns#"
   xmlns:svg="http://www.w3.org/2000/svg"
   xmlns="http://www.w3.org/2000/svg"
   xmlns:sodipodi="http://sodipodi.sourceforge.net/DTD/sodipodi-0.dtd"
   xmlns:inkscape="http://www.inkscape.org/namespaces/inkscape"
   width="14"
   height="14"
   version="1.1"
   id="svg4"
   sodipodi:docname="obelisk_red.svg"
   inkscape:version="0.92.5 (2060ec1f9f, 2020-04-08)">
  <metadata
     id="metadata10">
    <rdf:RDF>
      <cc:Work
         rdf:about="">
        <dc:format>image/svg+xml</dc:format>
        <dc:type
           rdf:resource="http://purl.org/dc/dcmitype/StillImage" />
        <dc:title />
      </cc:Work>
    </rdf:RDF>
  </metadata>
  <defs
     id="defs8" />
  <sodipodi:namedview
     pagecolor="#ffffff"
     bordercolor="#666666"
     borderopacity="1"
     objecttolerance="10"
     gridtolerance="10"
     guidetolerance="10"
     inkscape:pageopacity="0"
     inkscape:pageshadow="2"
     inkscape:window-width="1366"
     inkscape:window-height="741"
     id="namedview6"
     showgrid="false"
     fit-margin-top="0"
     fit-margin-left="0"
     fit-margin-right="0"
     fit-margin-bottom="0"
     inkscape:zoom="14.75"
     inkscape:cx="-15.914406"
     inkscape:cy="6"
     inkscape:window-x="0"
     inkscape:window-y="27"
     inkscape:window-maximized="1"
     inkscape:current-layer="svg4" />
  <path
     d="M 7,1 C 6.8616348,1 6.7289044,1.0549913 6.6311304,1.1528696 L 5.065913,2.718087 C 4.9680348,2.8159652 4.9130435,2.9485913 4.9130435,3.0869565 V 9.347826 c 0,0.288104 0.2336347,0.521739 0.5217391,0.521739 h 3.1304348 c 0.2881043,0 0.5217391,-0.233635 0.5217391,-0.521739 V 3.0869565 c 0,-0.1383652 -0.054991,-0.2710957 -0.1528695,-0.3688695 L 7.3688695,1.1528696 C 7.2710957,1.0549913 7.1383652,1 7,1 m -3.6521739,9.913043 c -0.1383652,0 -0.2710957,0.05499 -0.3688696,0.15287 L 1.9354783,12.109392 C 1.6069914,12.438087 1.8396871,12.999792 2.3043479,13 h 9.3913041 c 0.464661,-2.08e-4 0.697357,-0.561913 0.368869,-0.890608 l -1.043478,-1.043479 c -0.09777,-0.09788 -0.230504,-0.15287 -0.368869,-0.15287 H 3.3478261"
     id="path2"
     inkscape:connector-curvature="0"
     style="fill:#bb4444;fill-opacity:1;stroke-width:1.04347825" />
</svg>
