<?xml version="1.0" encoding="UTF-8" standalone="no"?>
<svg
   xmlns:dc="http://purl.org/dc/elements/1.1/"
   xmlns:cc="http://creativecommons.org/ns#"
   xmlns:rdf="http://www.w3.org/1999/02/22-rdf-syntax-ns#"
   xmlns:svg="http://www.w3.org/2000/svg"
   xmlns="http://www.w3.org/2000/svg"
   xmlns:sodipodi="http://sodipodi.sourceforge.net/DTD/sodipodi-0.dtd"
   xmlns:inkscape="http://www.inkscape.org/namespaces/inkscape"
   version="1.1"
   width="14"
   height="14"
   viewBox="0 0 14 14"
   id="svg2"
   sodipodi:docname="plaque_rust.svg"
   inkscape:version="0.92.5 (2060ec1f9f, 2020-04-08)">
  <sodipodi:namedview
     pagecolor="#ffffff"
     bordercolor="#666666"
     borderopacity="1"
     objecttolerance="10"
     gridtolerance="10"
     guidetolerance="10"
     inkscape:pageopacity="0"
     inkscape:pageshadow="2"
     inkscape:window-width="1366"
     inkscape:window-height="741"
     id="namedview7"
     showgrid="false"
     fit-margin-top="0"
     fit-margin-left="0"
     fit-margin-right="0"
     fit-margin-bottom="0"
     inkscape:zoom="16.857143"
     inkscape:cx="-4.0550847"
     inkscape:cy="5"
     inkscape:window-x="0"
     inkscape:window-y="27"
     inkscape:window-maximized="1"
     inkscape:current-layer="svg2" />
  <metadata
     id="metadata8">
    <rdf:RDF>
      <cc:Work
         rdf:about="">
        <dc:format>image/svg+xml</dc:format>
        <dc:type
           rdf:resource="http://purl.org/dc/dcmitype/StillImage" />
        <dc:title></dc:title>
      </cc:Work>
    </rdf:RDF>
  </metadata>
  <defs
     id="defs6" />
  <rect
     width="14"
     height="14"
     x="-1"
     y="1.9999996"
     id="canvas"
     style="visibility:hidden;fill:none;stroke:none" />
  <path
     style="fill:#885555;fill-opacity:1;stroke:none;stroke-width:0.99999994"
     id="plaque"
     d="m 2.5,1.9999996 c -0.8112384,0 -1.5,0.6887616 -1.5,1.5 V 10.5 C 1,11.269291 1.667788,12 2.5,12 h 9 C 12.248318,12 13,11.290265 13,10.5 V 3.4999996 c 0,-0.7692914 -0.730709,-1.5 -1.5,-1.5 z m 0,1.0000001 c 0.2761424,0 0.5,0.2238576 0.5,0.4999999 0,0.2761424 -0.2238576,0.5 -0.5,0.5 -0.2761424,0 -0.5,-0.2238576 -0.5,-0.5 0,-0.2761424 0.2238576,-0.5 0.5,-0.4999999 z m 9,0 c 0.276142,0 0.5,0.2238576 0.5,0.4999999 0,0.2761424 -0.223858,0.5 -0.5,0.5 -0.276142,0 -0.5,-0.2238576 -0.5,-0.5 0,-0.2761424 0.223858,-0.5 0.5,-0.4999999 z M 5,3.9999996 h 1 v 1 H 5 Z m 2,0 h 1.9999997 v 1 H 7 Z m -4,2 h 8 v 1 H 3 Z m 2,2 H 8.9999997 V 9 H 5 Z M 2.5,9.9999994 C 2.7761424,9.9999994 3,10.223857 3,10.5 3,10.776141 2.7761424,11 2.5,11 2.2238576,11 2,10.776141 2,10.5 2,10.223858 2.2238576,9.9999994 2.5,9.9999994 Z m 9,0 c 0.276142,0 0.5,0.2238576 0.5,0.5000006 0,0.276141 -0.223858,0.5 -0.5,0.5 -0.276142,0 -0.5,-0.223859 -0.5,-0.5 0,-0.276142 0.223858,-0.5000006 0.5,-0.5000006 z"
     inkscape:connector-curvature="0" />
</svg>
