<?xml version="1.0" encoding="UTF-8" standalone="no"?>
<!-- Uploaded to: SVG Repo, www.svgrepo.com, Generator: SVG Repo Mixer Tools -->

<svg
   xmlns:dc="http://purl.org/dc/elements/1.1/"
   xmlns:cc="http://creativecommons.org/ns#"
   xmlns:rdf="http://www.w3.org/1999/02/22-rdf-syntax-ns#"
   xmlns:svg="http://www.w3.org/2000/svg"
   xmlns="http://www.w3.org/2000/svg"
   xmlns:sodipodi="http://sodipodi.sourceforge.net/DTD/sodipodi-0.dtd"
   xmlns:inkscape="http://www.inkscape.org/namespaces/inkscape"
   version="1.1"
   id="ruins"
   width="14"
   height="14"
   viewBox="0 0 4.4800001 4.4799999"
   xml:space="preserve"
   sodipodi:docname="ruins_red.svg"
   inkscape:version="0.92.5 (2060ec1f9f, 2020-04-08)"><metadata
   id="metadata15"><rdf:RDF><cc:Work
       rdf:about=""><dc:format>image/svg+xml</dc:format><dc:type
         rdf:resource="http://purl.org/dc/dcmitype/StillImage" /><dc:title></dc:title></cc:Work></rdf:RDF></metadata><defs
   id="defs13" /><sodipodi:namedview
   pagecolor="#ffffff"
   bordercolor="#666666"
   borderopacity="1"
   objecttolerance="10"
   gridtolerance="10"
   guidetolerance="10"
   inkscape:pageopacity="0"
   inkscape:pageshadow="2"
   inkscape:window-width="1366"
   inkscape:window-height="741"
   id="namedview11"
   showgrid="false"
   inkscape:zoom="13.350176"
   inkscape:cx="-3.2206121"
   inkscape:cy="5.8201298"
   inkscape:window-x="0"
   inkscape:window-y="27"
   inkscape:window-maximized="1"
   inkscape:current-layer="ruins"
   fit-margin-top="0"
   fit-margin-left="0"
   fit-margin-right="0"
   fit-margin-bottom="0" />
<style
   type="text/css"
   id="style2">
<![CDATA[
	.st0{fill:#D1D1D1;}
	.st1{fill:#454545;}
]]>
</style>

<path
   class="st1"
   d="m 172.02999,-108.20982 c -0.058,0 -0.104,0.141 -0.104,0.312 0,0.172 0.047,0.414 0.104,0.156 0.057,-0.258 0.058,-0.468 0,-0.468 z"
   id="path6"
   inkscape:connector-curvature="0"
   style="fill:#454545" />
<path
   class="st1"
   d="m 4.4795075,3.862795 c -2.41e-4,-1.2e-4 -0.0188,-0.0887 -0.04126,-0.19692 l -0.0042,-0.0203 c -0.02246,-0.10818 -0.234243,0.0619 -0.330794,0.0553 -0.09655,-0.007 -0.196576,-0.31798 -0.209272,-0.42775 0,0 0.08413,-0.25823 0.09038,-0.34787 0.0077,-0.11023 -0.108042,-0.16867 -0.211864,-0.13092 l -0.285372,0.10378 c -0.103822,0.0377 -0.183759,-0.0216 -0.177651,-0.13192 l 0.0033,-0.059 c 0.0061,-0.11031 0.01828,-0.23253 0.02702,-0.27159 0.0087,-0.0391 -0.02049,-0.0705 -0.06491,-0.07 -0.04442,5.6e-4 -0.160515,-0.0802 -0.160515,-0.162 0,-0.0818 -0.07945,-0.29739 -0.176566,-0.29739 -0.09709,0 -0.119051,-0.0152 -0.15039,0.0161 -0.02586,0.0258 -0.02754,0.0509 -0.02754,0.13086 0,0.08 -0.05113,0.2954 -0.113586,0.30096 -0.06246,0.006 -0.225907,-0.0744 -0.225907,-0.15286 0,-0.0785 -0.03702,-0.28766 -0.08227,-0.29029 -0.04522,-0.003 -0.116439,-0.005 -0.158225,-0.005 -0.04181,0 -0.076,-0.0514 -0.076,-0.11429 0,-0.0629 0.0082,-0.23928 0.0182,-0.25234 0.01,-0.0131 -0.01051,-0.086 -0.04562,-0.16214 -0.03512,-0.0761 -0.13474,-0.16701 -0.221387,-0.202 -0.08665,-0.035 -0.132289,-0.14282 -0.101411,-0.23962999 0.03088,-0.0968 0.04283,-0.17745 0.02658,-0.17918 -0.01625,-0.002 -0.05886,-0.0741 -0.05886,-0.15439002 0,-0.0803 -0.07978,-0.29188 -0.17725,-0.29188 -0.09747,0 -0.17725,0.0669 -0.17725,0.14871 0,0.0818 -0.05113,0.30194002 -0.113606,0.30751002 -0.06248,0.006 -0.225927,-0.077 -0.225927,-0.15881002 0,-0.0818 -0.07975,-0.29741 -0.177249,-0.29741 -0.09749,0 -0.17725,0.0657 -0.17725,0.14595 0,0.0803 -0.05111,0.29642002 -0.113606,0.30199002 -0.06248,0.006 -0.225927,-0.0758 -0.225927,-0.15604002 0,-0.0802 -0.07499,-0.29188 -0.166662,-0.29188 -0.09167,0 -0.166663,0.0904 -0.166663,0.2009 v 0.47397002 c 0,0.11048999 0.05498,0.27265999 0.122184,0.36036999 l 0.04466,0.0583 c 0.0672,0.0877 0.122185,0.24987 0.122185,0.36036 0,0 0,0.39633 0,0.69492 0,0.54744 0,1.44136 0,1.44136 0,0.11049 0,0.21634 0,0.23521 0,0.0189 0.0904,0.0343 0.200895,0.0343 h 0.855351 c 0.110492,0 0.291298,0 0.40179,0 h 0.0945 c 0.110493,0 0.209695,0 0.220462,0 0.0042,0 0.02192,0 0.04838,0 -0.01844,-0.26619 -0.03437,-0.81497 0.129618,-0.97894 0.1752,-0.1752 0.531287,-0.0413 0.706487,0.13394 0.159089,0.15908 0.175563,0.60969 0.17267,0.84502 h 0.512121 c 0.110493,0 0.229121,0 0.263635,0 0.03451,0 0.153142,0 0.263635,0 h 0.120537 c 0.110492,0 0.200895,-0.0691 0.200895,-0.1535 0,-0.0844 -2.61e-4,-0.15365 -4.82e-4,-0.15375 z m -3.010956,-0.50055 c 0,0.11049 -0.0904,0.2009 -0.200895,0.2009 h -0.07955 c -0.110493,0 -0.200895,-0.0904 -0.200895,-0.2009 v -0.25656 c 0,-0.11049 0.03694,-0.2834 0.0821,-0.38425 0,0 0.02566,-0.0573 0.158587,-0.0573 0.132912,0 0.158567,0.0573 0.158567,0.0573 0.04516,0.10085 0.08208,0.27376 0.08208,0.38425 z m 0,-1.32299 c 0,0.11049 -0.0904,0.20089 -0.200895,0.20089 h -0.07955 c -0.110493,0 -0.200895,-0.0904 -0.200895,-0.20089 v -0.25657 c 0,-0.11049 0.03694,-0.2834 0.08208,-0.38425 0,0 0.02566,-0.0573 0.158587,-0.0573 0.132912,0 0.158587,0.0573 0.158587,0.0573 0.04516,0.10085 0.08208,0.27376 0.08208,0.38425 z m 2.235521,1.79943 -0.0077,0.0192 c -0.04084,0.10266 -0.09894,0.13307 -0.129096,0.0675 -0.03015,-0.0655 -0.120034,-0.15525 -0.199709,-0.19941 -0.07967,-0.0442 -0.08098,-0.14428 -0.0029,-0.22245 l 0.03337,-0.0334 c 0.07807,-0.0782 0.195511,-0.0693 0.260983,0.0197 l 2.61e-4,3.6e-4 c 0.06547,0.089 0.08564,0.24582 0.0448,0.34847 z"
   id="path8"
   style="fill:#bb4444;fill-opacity:1;stroke:none;stroke-width:1.00000024"
   inkscape:connector-curvature="0" />
</svg>