<?xml version="1.0" encoding="UTF-8" standalone="no"?>
<svg
   xmlns:dc="http://purl.org/dc/elements/1.1/"
   xmlns:cc="http://creativecommons.org/ns#"
   xmlns:rdf="http://www.w3.org/1999/02/22-rdf-syntax-ns#"
   xmlns:svg="http://www.w3.org/2000/svg"
   xmlns="http://www.w3.org/2000/svg"
   xmlns:sodipodi="http://sodipodi.sourceforge.net/DTD/sodipodi-0.dtd"
   xmlns:inkscape="http://www.inkscape.org/namespaces/inkscape"
   width="14"
   height="14"
   version="1.1"
   id="svg4"
   sodipodi:docname="shrine_green.svg"
   inkscape:version="0.92.5 (2060ec1f9f, 2020-04-08)">
  <metadata
     id="metadata10">
    <rdf:RDF>
      <cc:Work
         rdf:about="">
        <dc:format>image/svg+xml</dc:format>
        <dc:type
           rdf:resource="http://purl.org/dc/dcmitype/StillImage" />
        <dc:title></dc:title>
      </cc:Work>
    </rdf:RDF>
  </metadata>
  <defs
     id="defs8" />
  <sodipodi:namedview
     pagecolor="#ffffff"
     bordercolor="#666666"
     borderopacity="1"
     objecttolerance="10"
     gridtolerance="10"
     guidetolerance="10"
     inkscape:pageopacity="0"
     inkscape:pageshadow="2"
     inkscape:window-width="1366"
     inkscape:window-height="741"
     id="namedview6"
     showgrid="false"
     inkscape:zoom="14.75"
     inkscape:cx="-13.150608"
     inkscape:cy="6"
     inkscape:window-x="0"
     inkscape:window-y="27"
     inkscape:window-maximized="1"
     inkscape:current-layer="svg4"
     fit-margin-top="0"
     fit-margin-left="0"
     fit-margin-right="0"
     fit-margin-bottom="0" />
  <path
     d="M 7,8.4560305e-8 C 6.8278,-9.991544e-5 6.6677,0.08850008 6.5762,0.23440008 l -2.5,4.00000002 c -0.2088,0.3331 0.0307,0.7657 0.4238,0.7656 H 5 v 4 H 4.5 c -0.2761,0 -0.5,0.2239 -0.5,0.5 V 10.5 c 2e-4,0.1896 0.1076,0.3628 0.2773,0.4473 0.3808,0.1903 0.5121,0.3939 0.6133,0.7988 C 4.9919,12.151 5,12.75 5,13.5 5,13.7761 5.2239,14 5.5,14 h 3 C 8.7761,14 9,13.7761 9,13.5 9,12.75 9.008,12.151 9.1094,11.7461 9.2106,11.3412 9.3419,11.1376 9.7227,10.9473 9.8924,10.8628 9.9998,10.6896 10,10.5 V 9.5000001 c 0,-0.2761 -0.2239,-0.5 -0.5,-0.5 H 9 v -4 h 0.5 c 0.3931,10e-5 0.6326,-0.4325 0.4238,-0.7656 l -2.5,-4.00000002 C 7.3323,0.08850008 7.1722,-9.991544e-5 7,8.4560302e-8 M 7,6.0000001 c 0.5323,4e-4 0.971,0.4176 0.998,0.9492 10e-4,0.0169 0.002,0.0338 0.002,0.0508 v 1.5 c 0,0.277 -0.223,0.5 -0.5,0.5 h -1 c -0.277,0 -0.5,-0.223 -0.5,-0.5 v -1.5 c 0,-0.0233 9e-4,-0.046 0.0041,-0.0684 0.0359,-0.5239 0.4709,-0.9308 0.996,-0.9316 H 7"
     id="path2"
     style="fill:#22aa55;fill-opacity:1"
     inkscape:connector-curvature="0" />
</svg>
