<?xml version="1.0" encoding="UTF-8" standalone="no"?>
<svg
   xmlns:dc="http://purl.org/dc/elements/1.1/"
   xmlns:cc="http://creativecommons.org/ns#"
   xmlns:rdf="http://www.w3.org/1999/02/22-rdf-syntax-ns#"
   xmlns:svg="http://www.w3.org/2000/svg"
   xmlns="http://www.w3.org/2000/svg"
   xmlns:sodipodi="http://sodipodi.sourceforge.net/DTD/sodipodi-0.dtd"
   xmlns:inkscape="http://www.inkscape.org/namespaces/inkscape"
   width="14"
   height="14"
   version="1.1"
   id="svg4"
   sodipodi:docname="jewish_red.svg"
   inkscape:version="0.92.5 (2060ec1f9f, 2020-04-08)">
  <metadata
     id="metadata10">
    <rdf:RDF>
      <cc:Work
         rdf:about="">
        <dc:format>image/svg+xml</dc:format>
        <dc:type
           rdf:resource="http://purl.org/dc/dcmitype/StillImage" />
        <dc:title></dc:title>
      </cc:Work>
    </rdf:RDF>
  </metadata>
  <defs
     id="defs8" />
  <sodipodi:namedview
     pagecolor="#ffffff"
     bordercolor="#666666"
     borderopacity="1"
     objecttolerance="10"
     gridtolerance="10"
     guidetolerance="10"
     inkscape:pageopacity="0"
     inkscape:pageshadow="2"
     inkscape:window-width="1366"
     inkscape:window-height="741"
     id="namedview6"
     showgrid="false"
     fit-margin-top="0"
     fit-margin-left="0"
     fit-margin-right="0"
     fit-margin-bottom="0"
     inkscape:zoom="14.75"
     inkscape:cx="6.0012944"
     inkscape:cy="6.85055"
     inkscape:window-x="0"
     inkscape:window-y="27"
     inkscape:window-maximized="1"
     inkscape:current-layer="svg4" />
  <path
     d="M 6.5568778,0.25446831 4.81239,3.2684364 H 1.3792135 C 0.98565629,3.2680276 0.73936359,3.6940832 0.93609109,4.0349073 L 2.6526794,6.9990036 0.93609109,9.9631 c -0.1967275,0.340824 0.049565,0.76688 0.44312241,0.766471 H 4.81239 l 1.7444878,3.013968 c 0.196421,0.341948 0.6898239,0.341948 0.8862448,0 l 1.7444879,-3.013968 h 3.4331755 c 0.393558,4.09e-4 0.63985,-0.425647 0.443123,-0.766471 L 11.347321,6.9990036 13.063909,4.0349073 C 13.260636,3.6940832 13.014344,3.2680276 12.620786,3.2684364 H 9.1876105 L 7.4431226,0.25446831 c -0.19591,-0.33929108 -0.6903348,-0.33929108 -0.8862448,0 M 7.0000002,1.5298759 8.0060188,3.2684364 H 5.9939816 L 7.0000002,1.5298759 M 2.2654583,4.2903976 h 1.954092 L 3.2434752,5.9790863 2.2654583,4.2903976 m 3.1357858,0 H 8.5988585 L 10.16573,6.9990036 8.5987564,9.70761 H 5.4011419 L 3.834271,6.9990036 5.4012441,4.2903976 m 4.3792064,0 H 11.734542 L 10.756526,5.9790863 9.7804505,4.2903976 M 3.2434752,8.0189209 4.2195503,9.70761 H 2.2654583 L 3.2434752,8.0189209 m 7.5130508,0 0.978016,1.6886891 H 9.7804505 L 10.756526,8.0189209 M 5.9939816,10.729571 h 2.0120372 l -1.0060186,1.73856 -1.0060186,-1.73856"
     id="path2"
     inkscape:connector-curvature="0"
     style="fill:#bb4444;stroke-width:1.02196121;fill-opacity:1" />
</svg>
