<?xml version="1.0" encoding="UTF-8" standalone="no"?>
<svg
   xmlns:dc="http://purl.org/dc/elements/1.1/"
   xmlns:cc="http://creativecommons.org/ns#"
   xmlns:rdf="http://www.w3.org/1999/02/22-rdf-syntax-ns#"
   xmlns:svg="http://www.w3.org/2000/svg"
   xmlns="http://www.w3.org/2000/svg"
   xmlns:sodipodi="http://sodipodi.sourceforge.net/DTD/sodipodi-0.dtd"
   xmlns:inkscape="http://www.inkscape.org/namespaces/inkscape"
   width="14"
   height="14"
   version="1.1"
   id="svg4"
   sodipodi:docname="statue_red.svg"
   inkscape:version="0.92.5 (2060ec1f9f, 2020-04-08)">
  <metadata
     id="metadata10">
    <rdf:RDF>
      <cc:Work
         rdf:about="">
        <dc:format>image/svg+xml</dc:format>
        <dc:type
           rdf:resource="http://purl.org/dc/dcmitype/StillImage" />
        <dc:title></dc:title>
      </cc:Work>
    </rdf:RDF>
  </metadata>
  <defs
     id="defs8" />
  <sodipodi:namedview
     pagecolor="#ffffff"
     bordercolor="#666666"
     borderopacity="1"
     objecttolerance="10"
     gridtolerance="10"
     guidetolerance="10"
     inkscape:pageopacity="0"
     inkscape:pageshadow="2"
     inkscape:window-width="1366"
     inkscape:window-height="741"
     id="namedview6"
     showgrid="false"
     fit-margin-top="0"
     fit-margin-left="0"
     fit-margin-right="0"
     fit-margin-bottom="0"
     inkscape:zoom="14.75"
     inkscape:cx="4.9998932"
     inkscape:cy="7"
     inkscape:window-x="0"
     inkscape:window-y="27"
     inkscape:window-maximized="1"
     inkscape:current-layer="svg4" />
  <path
     d="M 7,0 C 6.446,0 6,0.446 6,1 6,1.554 6.446,2 7,2 7.554,2 8,1.554 8,1 8,0.446 7.554,0 7,0 M 5.5,3 C 5.223,3 5,3.223 5,3.5 v 2 C 5,5.777 5.223,6 5.5,6 H 6 v 4.5 C 6,10.777 6.223,11 6.5,11 h 1 C 7.777,11 8,10.777 8,10.5 V 6 H 8.5 C 8.777,6 9,5.777 9,5.5 v -2 C 9,3.223 8.777,3 8.5,3 h -3 m -2,9 a 0.5,0.5 0 0 0 -0.3535,0.1465 l -1,1 A 0.5,0.5 0 0 0 2.5,14 h 9 a 0.5,0.5 0 0 0 0.3535,-0.8535 l -1,-1 A 0.5,0.5 0 0 0 10.5,12 h -7"
     id="path2"
     inkscape:connector-curvature="0"
     style="fill:#bb4444;fill-opacity:1" />
</svg>
