<?xml version="1.0" encoding="UTF-8" standalone="no"?>
<svg
   xmlns:dc="http://purl.org/dc/elements/1.1/"
   xmlns:cc="http://creativecommons.org/ns#"
   xmlns:rdf="http://www.w3.org/1999/02/22-rdf-syntax-ns#"
   xmlns:svg="http://www.w3.org/2000/svg"
   xmlns="http://www.w3.org/2000/svg"
   xmlns:sodipodi="http://sodipodi.sourceforge.net/DTD/sodipodi-0.dtd"
   xmlns:inkscape="http://www.inkscape.org/namespaces/inkscape"
   width="14"
   height="14"
   version="1.1"
   id="svg4"
   sodipodi:docname="sunflower_rust.svg"
   inkscape:version="0.92.5 (2060ec1f9f, 2020-04-08)">
  <metadata
     id="metadata10">
    <rdf:RDF>
      <cc:Work
         rdf:about="">
        <dc:format>image/svg+xml</dc:format>
        <dc:type
           rdf:resource="http://purl.org/dc/dcmitype/StillImage" />
        <dc:title></dc:title>
      </cc:Work>
    </rdf:RDF>
  </metadata>
  <defs
     id="defs8" />
  <sodipodi:namedview
     pagecolor="#ffffff"
     bordercolor="#666666"
     borderopacity="1"
     objecttolerance="10"
     gridtolerance="10"
     guidetolerance="10"
     inkscape:pageopacity="0"
     inkscape:pageshadow="2"
     inkscape:window-width="1366"
     inkscape:window-height="741"
     id="namedview6"
     showgrid="false"
     fit-margin-top="0"
     fit-margin-left="0"
     fit-margin-right="0"
     fit-margin-bottom="0"
     inkscape:zoom="14.75"
     inkscape:cx="-4.4916254"
     inkscape:cy="7"
     inkscape:window-x="0"
     inkscape:window-y="27"
     inkscape:window-maximized="1"
     inkscape:current-layer="svg4" />
  <path
     d="M 7,0 C 6.8721,0 6.7441,0.0489 6.6465,0.1465 6.2786,0.5143 6.125,1.0139 6.125,1.5 c 0,0.4861 0.1536,0.9857 0.5215,1.3535 0.1952,0.1952 0.5118,0.1952 0.707,0 C 7.7214,2.4857 7.875,1.9861 7.875,1.5 7.875,1.0139 7.7214,0.5143 7.3535,0.1465 7.2559,0.0489 7.1279,0 7,0 M 3.9805,0.8047 C 3.7679,0.8135 3.5757,0.9575 3.5176,1.1738 3.3829,1.6763 3.4991,2.1864 3.7422,2.6074 3.9852,3.0284 4.3686,3.3849 4.8711,3.5195 5.1375,3.5903 5.4109,3.4322 5.4824,3.166 5.6171,2.6635 5.5009,2.1534 5.2578,1.7324 5.0148,1.3114 4.6314,0.9549 4.1289,0.8203 4.079,0.807 4.0295,0.8027 3.9805,0.8047 m 5.9902,0 C 9.9376,0.8066 9.9044,0.8115 9.8711,0.8203 9.3686,0.9549 8.9852,1.3114 8.7422,1.7324 8.4991,2.1534 8.3829,2.6635 8.5176,3.166 8.5891,3.4322 8.8625,3.5903 9.1289,3.5195 9.6314,3.3849 10.0148,3.0284 10.2578,2.6074 10.5009,2.1864 10.6171,1.6763 10.4824,1.1738 10.4199,0.9409 10.2025,0.7912 9.9707,0.8047 M 2.0508,2.9609 C 1.9257,2.9652 1.7995,2.9839 1.6738,3.0176 1.4076,3.0891 1.2495,3.3625 1.3203,3.6289 1.4549,4.1314 1.8114,4.5148 2.2324,4.7578 2.6534,5.0009 3.1635,5.1171 3.666,4.9824 3.9322,4.9109 4.0903,4.6375 4.0195,4.3711 3.8849,3.8686 3.5284,3.4852 3.1074,3.2422 2.7917,3.0599 2.426,2.9482 2.0508,2.9609 m 9.8984,0 c -0.3752,-0.0127 -0.7409,0.0989 -1.0566,0.2813 -0.421,0.243 -0.7775,0.6264 -0.9121,1.1289 -0.0708,0.2664 0.0873,0.5398 0.3535,0.6113 0.5025,0.1347 1.0126,0.0185 1.4336,-0.2246 0.421,-0.243 0.7775,-0.6264 0.9121,-1.1289 C 12.7505,3.3625 12.5924,3.0891 12.3262,3.0176 12.2005,2.9839 12.0743,2.9652 11.9492,2.9609 M 7,4 C 5.6252,4 4.5,5.1252 4.5,6.5 4.5,7.8748 5.6252,9 7,9 8.3748,9 9.5,7.8748 9.5,6.5 9.5,5.1252 8.3748,4 7,4 M 2,5.625 c -0.4861,0 -0.9857,0.1536 -1.3535,0.5215 -0.1952,0.1952 -0.1952,0.5118 0,0.707 C 1.0143,7.2214 1.5139,7.375 2,7.375 c 0.4861,0 0.9857,-0.1536 1.3535,-0.5215 0.1952,-0.1952 0.1952,-0.5118 0,-0.707 C 2.9857,5.7786 2.4861,5.625 2,5.625 m 10,0 c -0.4861,0 -0.9857,0.1536 -1.3535,0.5215 -0.1952,0.1952 -0.1952,0.5118 0,0.707 0.3678,0.3679 0.8674,0.5215 1.3535,0.5215 0.4861,0 0.9857,-0.1536 1.3535,-0.5215 0.1952,-0.1952 0.1952,-0.5118 0,-0.707 C 12.9857,5.7786 12.4861,5.625 12,5.625 M 3.2891,7.9609 C 2.9139,7.9482 2.5482,8.0598 2.2324,8.2422 1.8114,8.4852 1.4549,8.8686 1.3203,9.3711 1.2495,9.6375 1.4076,9.9109 1.6738,9.9824 2.1763,10.1171 2.6864,10.0009 3.1074,9.7578 3.5284,9.5148 3.8849,9.1314 4.0195,8.6289 4.0903,8.3625 3.9322,8.0891 3.666,8.0176 3.5404,7.9839 3.4141,7.9652 3.2891,7.9609 m 7.4218,0 c -0.125,0.0043 -0.2513,0.023 -0.3769,0.0567 -0.2662,0.0715 -0.4243,0.3449 -0.3535,0.6113 0.1346,0.5025 0.4911,0.8859 0.9121,1.1289 0.421,0.2431 0.9311,0.3593 1.4336,0.2246 C 12.5924,9.9109 12.7505,9.6375 12.6797,9.3711 12.5451,8.8686 12.1886,8.4852 11.7676,8.2422 11.4518,8.0599 11.0861,7.9482 10.7109,7.9609 M 4.9707,9.4648 C 4.9376,9.4668 4.9044,9.4716 4.8711,9.4805 4.3686,9.6151 3.9852,9.9716 3.7422,10.3926 3.4991,10.8136 3.3829,11.3237 3.5176,11.8262 3.5891,12.0924 3.8625,12.2505 4.1289,12.1797 4.6314,12.0451 5.0148,11.6886 5.2578,11.2676 5.5009,10.8466 5.6171,10.3365 5.4824,9.834 5.4199,9.6011 5.2025,9.4513 4.9707,9.4648 m 4.0098,0 C 8.7679,9.4736 8.5757,9.6177 8.5176,9.834 c -0.1347,0.5025 -0.0185,1.0126 0.2246,1.4336 0.243,0.421 0.6264,0.7775 1.1289,0.9121 0.2664,0.0708 0.5398,-0.0873 0.6113,-0.3535 0.1347,-0.5025 0.0185,-1.0126 -0.2246,-1.4336 C 10.0148,9.9716 9.6314,9.6151 9.1289,9.4805 9.079,9.4672 9.0295,9.4628 8.9805,9.4648 M 7,10 c -0.2761,0 -0.5,0.2239 -0.5,0.5 v 3 c 0,0.2761 0.2239,0.5 0.5,0.5 0.2761,0 0.5,-0.2239 0.5,-0.5 v -3 C 7.5,10.2239 7.2761,10 7,10"
     id="path2"
     inkscape:connector-curvature="0"
     style="fill:#885555;fill-opacity:1" />
</svg>
