<?xml version="1.0" encoding="UTF-8" standalone="no"?>
<svg
   xmlns:dc="http://purl.org/dc/elements/1.1/"
   xmlns:cc="http://creativecommons.org/ns#"
   xmlns:rdf="http://www.w3.org/1999/02/22-rdf-syntax-ns#"
   xmlns:svg="http://www.w3.org/2000/svg"
   xmlns="http://www.w3.org/2000/svg"
   xmlns:sodipodi="http://sodipodi.sourceforge.net/DTD/sodipodi-0.dtd"
   xmlns:inkscape="http://www.inkscape.org/namespaces/inkscape"
   id="viewpoint-15"
   width="15"
   height="15"
   viewBox="0 0 15 15"
   version="1.1"
   sodipodi:docname="viewpoint-blue.svg"
   inkscape:version="0.92.5 (2060ec1f9f, 2020-04-08)">
  <metadata
     id="metadata8">
    <rdf:RDF>
      <cc:Work
         rdf:about="">
        <dc:format>image/svg+xml</dc:format>
        <dc:type
           rdf:resource="http://purl.org/dc/dcmitype/StillImage" />
        <dc:title></dc:title>
      </cc:Work>
    </rdf:RDF>
  </metadata>
  <defs
     id="defs6" />
  <sodipodi:namedview
     pagecolor="#ffffff"
     bordercolor="#666666"
     borderopacity="1"
     objecttolerance="10"
     gridtolerance="10"
     guidetolerance="10"
     inkscape:pageopacity="0"
     inkscape:pageshadow="2"
     inkscape:window-width="706"
     inkscape:window-height="480"
     id="namedview4"
     showgrid="false"
     inkscape:zoom="15.733333"
     inkscape:cx="7.5"
     inkscape:cy="7.5"
     inkscape:window-x="0"
     inkscape:window-y="27"
     inkscape:window-maximized="0"
     inkscape:current-layer="viewpoint-15" />
  <path
     id="cf3b542b-d2af-4732-9b92-9e3dc05e460f"
     d="M6.02,8.425a2.3859,2.3859,0,0,0-.46.44l-4.55-3.5a7.9976,7.9976,0,0,1,1.51-1.51Zm6.46-4.56-3.5,4.55a2.3971,2.3971,0,0,1,.45.45l4.56-3.5A7.945,7.945,0,0,0,12.48,3.865ZM7.3042,10.0129a1.5,1.5,0,1,0,1.6829,1.2914h0A1.5,1.5,0,0,0,7.3042,10.0129ZM6.43,2.235a7.9329,7.9329,0,0,0-2.06.55l2.2,5.32a2.0438,2.0438,0,0,1,.61-.17Zm2.14.01-.75,5.69a2.49,2.49,0,0,1,.61.16l2.2-5.3A7.2129,7.2129,0,0,0,8.57,2.245Z"
     style="fill:#1e88e5;fill-opacity:1" />
</svg>
