<?xml version="1.0" encoding="UTF-8" standalone="no"?>
<svg
   xmlns:dc="http://purl.org/dc/elements/1.1/"
   xmlns:cc="http://creativecommons.org/ns#"
   xmlns:rdf="http://www.w3.org/1999/02/22-rdf-syntax-ns#"
   xmlns:svg="http://www.w3.org/2000/svg"
   xmlns="http://www.w3.org/2000/svg"
   xmlns:sodipodi="http://sodipodi.sourceforge.net/DTD/sodipodi-0.dtd"
   xmlns:inkscape="http://www.inkscape.org/namespaces/inkscape"
   id="viewpoint-15"
   width="14"
   height="14"
   viewBox="0 0 14 14"
   version="1.1"
   sodipodi:docname="viewpoint_blue.svg"
   inkscape:version="0.92.5 (2060ec1f9f, 2020-04-08)">
  <metadata
     id="metadata8">
    <rdf:RDF>
      <cc:Work
         rdf:about="">
        <dc:format>image/svg+xml</dc:format>
        <dc:type
           rdf:resource="http://purl.org/dc/dcmitype/StillImage" />
        <dc:title></dc:title>
      </cc:Work>
    </rdf:RDF>
  </metadata>
  <defs
     id="defs6" />
  <sodipodi:namedview
     pagecolor="#ffffff"
     bordercolor="#666666"
     borderopacity="1"
     objecttolerance="10"
     gridtolerance="10"
     guidetolerance="10"
     inkscape:pageopacity="0"
     inkscape:pageshadow="2"
     inkscape:window-width="1366"
     inkscape:window-height="741"
     id="namedview4"
     showgrid="false"
     inkscape:zoom="15.733333"
     inkscape:cx="-4.3468646"
     inkscape:cy="5.5000749"
     inkscape:window-x="0"
     inkscape:window-y="27"
     inkscape:window-maximized="1"
     inkscape:current-layer="viewpoint-15"
     fit-margin-top="0"
     fit-margin-left="0"
     fit-margin-right="0"
     fit-margin-bottom="0" />
  <path
     id="cf3b542b-d2af-4732-9b92-9e3dc05e460f"
     d="M 5.403698,7.870915 A 2.5733898,2.5733898 0 0 0 4.9075501,8.3454912 L 0,4.5704527 A 8.6260709,8.6260709 0 0 1 1.6286595,2.9417932 Z m 6.967643,-4.9183359 -3.775039,4.90755 A 2.58547,2.58547 0 0 1 9.081664,8.3454912 L 14,4.5704527 A 8.5693374,8.5693374 0 0 0 12.371341,2.9525791 Z M 6.7888136,9.5835957 a 1.6178737,1.6178737 0 1 0 1.8151463,1.3928823 v 0 A 1.6178737,1.6178737 0 0 0 6.7888136,9.5835957 Z M 5.8459168,1.1944897 A 8.5562866,8.5562866 0 0 0 3.624037,1.78771 L 5.9969183,7.5257686 A 2.2044068,2.2044068 0 0 1 6.6548536,7.3424096 Z M 8.1540832,1.2052757 7.3451464,7.3424098 A 2.6856703,2.6856703 0 0 1 8.0030817,7.514983 L 10.375963,1.7984959 A 7.7797072,7.7797072 0 0 0 8.1540832,1.2052757 Z"
     style="fill:#2288ee;stroke-width:1.07858241;fill-opacity:1"
     inkscape:connector-curvature="0" />
</svg>
