<?xml version="1.0" encoding="UTF-8" standalone="no"?>
<svg
   xmlns:dc="http://purl.org/dc/elements/1.1/"
   xmlns:cc="http://creativecommons.org/ns#"
   xmlns:rdf="http://www.w3.org/1999/02/22-rdf-syntax-ns#"
   xmlns:svg="http://www.w3.org/2000/svg"
   xmlns="http://www.w3.org/2000/svg"
   xmlns:sodipodi="http://sodipodi.sourceforge.net/DTD/sodipodi-0.dtd"
   xmlns:inkscape="http://www.inkscape.org/namespaces/inkscape"
   id="village-15"
   width="15"
   height="15"
   viewBox="0 0 15 15"
   version="1.1"
   sodipodi:docname="village-blue.svg"
   inkscape:version="0.92.5 (2060ec1f9f, 2020-04-08)">
  <metadata
     id="metadata9">
    <rdf:RDF>
      <cc:Work
         rdf:about="">
        <dc:format>image/svg+xml</dc:format>
        <dc:type
           rdf:resource="http://purl.org/dc/dcmitype/StillImage" />
        <dc:title></dc:title>
      </cc:Work>
    </rdf:RDF>
  </metadata>
  <defs
     id="defs7" />
  <sodipodi:namedview
     pagecolor="#ffffff"
     bordercolor="#666666"
     borderopacity="1"
     objecttolerance="10"
     gridtolerance="10"
     guidetolerance="10"
     inkscape:pageopacity="0"
     inkscape:pageshadow="2"
     inkscape:window-width="706"
     inkscape:window-height="480"
     id="namedview5"
     showgrid="false"
     inkscape:zoom="15.733333"
     inkscape:cx="7.5"
     inkscape:cy="7.5"
     inkscape:window-x="0"
     inkscape:window-y="27"
     inkscape:window-maximized="0"
     inkscape:current-layer="village-15" />
  <path
     d="M6.176,4.176a.249.249,0,0,0-.352,0l-4.4,4.4A.25.25,0,0,0,1.6,9H3v4.751A.249.249,0,0,0,3.249,14h3.5A.249.249,0,0,0,7,13.753H7V8.323a.249.249,0,0,1,.073-.176L8.5,6.5ZM6,12H5V11H6Zm0-2H5V9H6Zm6.75-4h-.5a.25.25,0,0,0-.25.25V8L10.676,6.176a.249.249,0,0,0-.352,0L8.056,8.932A.246.246,0,0,0,8,9.088v4.66A.249.249,0,0,0,8.246,14h1.5A.253.253,0,0,0,10,13.748h0V12h1v1.747a.253.253,0,0,0,.253.253h1.5A.25.25,0,0,0,13,13.751V6.25A.25.25,0,0,0,12.75,6ZM10,11H9V10h1Zm2,0H11V10h1Z"
     id="path2"
     style="fill:#1e88e5;fill-opacity:1" />
</svg>
