<?xml version="1.0" encoding="UTF-8" standalone="no"?>
<svg
   xmlns:dc="http://purl.org/dc/elements/1.1/"
   xmlns:cc="http://creativecommons.org/ns#"
   xmlns:rdf="http://www.w3.org/1999/02/22-rdf-syntax-ns#"
   xmlns:svg="http://www.w3.org/2000/svg"
   xmlns="http://www.w3.org/2000/svg"
   xmlns:sodipodi="http://sodipodi.sourceforge.net/DTD/sodipodi-0.dtd"
   xmlns:inkscape="http://www.inkscape.org/namespaces/inkscape"
   id="village-15"
   width="14"
   height="14"
   viewBox="0 0 14 14"
   version="1.1"
   sodipodi:docname="village_rust.svg"
   inkscape:version="0.92.5 (2060ec1f9f, 2020-04-08)">
  <metadata
     id="metadata9">
    <rdf:RDF>
      <cc:Work
         rdf:about="">
        <dc:format>image/svg+xml</dc:format>
        <dc:type
           rdf:resource="http://purl.org/dc/dcmitype/StillImage" />
        <dc:title></dc:title>
      </cc:Work>
    </rdf:RDF>
  </metadata>
  <defs
     id="defs7" />
  <sodipodi:namedview
     pagecolor="#ffffff"
     bordercolor="#666666"
     borderopacity="1"
     objecttolerance="10"
     gridtolerance="10"
     guidetolerance="10"
     inkscape:pageopacity="0"
     inkscape:pageshadow="2"
     inkscape:window-width="1366"
     inkscape:window-height="741"
     id="namedview5"
     showgrid="false"
     inkscape:zoom="15.733333"
     inkscape:cx="-4.6267922"
     inkscape:cy="6.5000076"
     inkscape:window-x="0"
     inkscape:window-y="27"
     inkscape:window-maximized="1"
     inkscape:current-layer="village-15"
     fit-margin-top="0"
     fit-margin-left="0"
     fit-margin-right="0"
     fit-margin-bottom="0" />
  <path
     d="m 5.7970299,1.1391873 a 0.29931705,0.29931705 0 0 0 -0.423131,0 L 0.08476223,6.428324 a 0.30051913,0.30051913 0 0 0 0.2115655,0.5096805 H 1.9792348 V 12.64907 a 0.29931705,0.29931705 0 0 0 0.2993171,0.299317 h 4.2072678 a 0.29931705,0.29931705 0 0 0 0.3017212,-0.296913 v 0 -6.5272754 A 0.29931705,0.29931705 0 0 1 6.8752925,5.9126332 L 8.5906557,3.9328131 Z M 5.5854644,10.544233 H 4.3833879 V 9.3421573 h 1.2020765 z m 0,-2.404152 H 4.3833879 V 6.9380045 H 5.5854644 Z M 13.699481,3.3317749 H 13.098442 A 0.30051913,0.30051913 0 0 0 12.797923,3.632294 V 5.7359279 L 11.206374,3.5433404 a 0.29931705,0.29931705 0 0 0 -0.423131,0 L 8.0569337,6.8562632 a 0.29571082,0.29571082 0 0 0 -0.067316,0.187524 v 5.6016768 a 0.29931705,0.29931705 0 0 0 0.2957108,0.302923 h 1.8031145 a 0.30412536,0.30412536 0 0 0 0.305327,-0.302923 v 0 -2.101231 h 1.202077 v 2.100029 a 0.30412536,0.30412536 0 0 0 0.304125,0.304125 h 1.803115 A 0.30051913,0.30051913 0 0 0 14,12.64907 V 3.632294 A 0.30051913,0.30051913 0 0 0 13.699481,3.3317749 Z M 10.39377,9.3421573 H 9.1916942 V 8.140081 H 10.39377 Z m 2.404153,0 H 11.595847 V 8.140081 h 1.202076 z"
     id="path2"
     style="fill:#885555;stroke-width:1.20207655;fill-opacity:1"
     inkscape:connector-curvature="0" />
</svg>
