<?xml version="1.0" encoding="UTF-8" standalone="no"?>
<svg
   width="14"
   height="14"
   version="1.1"
   id="svg1"
   sodipodi:docname="waterfall.svg"
   inkscape:version="1.4.3 (fcd0343856, 2026-01-01)"
   xmlns:inkscape="http://www.inkscape.org/namespaces/inkscape"
   xmlns:sodipodi="http://sodipodi.sourceforge.net/DTD/sodipodi-0.dtd"
   xmlns="http://www.w3.org/2000/svg"
   xmlns:svg="http://www.w3.org/2000/svg">
  <defs
     id="defs1" />
  <sodipodi:namedview
     id="namedview1"
     pagecolor="#ffffff"
     bordercolor="#666666"
     borderopacity="1.0"
     inkscape:showpageshadow="2"
     inkscape:pageopacity="0.0"
     inkscape:pagecheckerboard="0"
     inkscape:deskcolor="#d1d1d1"
     inkscape:zoom="35.0625"
     inkscape:cx="7.0017825"
     inkscape:cy="6.0035651"
     inkscape:window-width="1366"
     inkscape:window-height="741"
     inkscape:window-x="0"
     inkscape:window-y="27"
     inkscape:window-maximized="1"
     inkscape:current-layer="svg1" />
  <path
     d="m 1.6153847,0.5384615 c -0.2973385,0 -0.5384616,0.2411231 -0.5384616,0.5384616 0,0.2973385 0.2411231,0.5384615 0.5384616,0.5384615 h 0.5384615 c 1.7907078,0 3.2307693,1.4400616 3.2307693,3.2307693 v 5.6538471 c 0.3988923,0.0032 0.7824923,0.153784 1.0769231,0.4228 V 4.8461539 c 0,-1.2322154 -0.5226308,-2.3455385 -1.3567077,-3.1319077 1.4022616,0.3530154 2.4336308,1.6165693 2.4336308,3.1319077 v 6.0766471 c 0.2944308,-0.269016 0.6780308,-0.419677 1.0769231,-0.4228 V 4.8461539 c 0,-1.2322154 -0.5226308,-2.3455385 -1.3567077,-3.1319077 1.4022616,0.3530154 2.4336309,1.6165693 2.4336309,3.1319077 v 6.0766471 c 0.02218,0.01626 0.04394,0.03306 0.06515,0.05051 0.336754,0.336539 0.49,0.334384 0.473307,0.334384 0,0 0.125139,0.01368 0.473308,-0.334384 0.02122,-0.01734 0.04308,-0.03425 0.06515,-0.05051 V 4.8461539 C 10.769231,2.473477 8.8342156,0.5384615 6.4615386,0.5384615 H 1.6153847 M 1.7731539,11.734693 C 1.2981231,12.209724 0.8974,12.384616 0.5384616,12.384616 0.2411231,12.384616 0,12.625739 0,12.923078 c 0,0.297338 0.2411231,0.538461 0.5384616,0.538461 0.5808923,0 1.1064308,-0.370678 1.6153846,-0.780339 0.5057231,0.407615 1.0299693,0.780339 1.6153847,0.780339 0.5808923,0 1.1064308,-0.370678 1.6153846,-0.780339 0.5089539,0.409661 1.0344923,0.780339 1.6153847,0.780339 0.5808923,0 1.1064308,-0.370678 1.6153846,-0.780339 0.5057232,0.407615 1.0299692,0.780339 1.6153842,0.780339 0.580893,0 1.106431,-0.370678 1.615385,-0.780339 0.508954,0.409661 1.034492,0.780339 1.615385,0.780339 0.297338,0 0.538461,-0.241123 0.538461,-0.538461 0,-0.297339 -0.241123,-0.538463 -0.538461,-0.538463 -0.358939,0 -0.759662,-0.174892 -1.234693,-0.649922 -0.210215,-0.210215 -0.551169,-0.210215 -0.761384,0 -0.475031,0.47503 -0.875754,0.649922 -1.234693,0.649922 -0.353338,0 -0.76903,-0.18426 -1.2346919,-0.649922 -0.2102154,-0.210215 -0.5511692,-0.210215 -0.7613846,0 -0.4750308,0.47503 -0.8757539,0.649922 -1.2346923,0.649922 -0.3589385,0 -0.7596616,-0.174892 -1.2346924,-0.649922 -0.2102154,-0.210215 -0.5511692,-0.210215 -0.7613846,0 -0.4750308,0.47503 -0.8757539,0.649922 -1.2346923,0.649922 -0.3533385,0 -0.7690308,-0.18426 -1.2346924,-0.649922 -0.2097846,-0.209892 -0.5516,-0.209892 -0.7613846,0"
     fill="#000000"
     id="path1"
     style="stroke-width:1;fill:#555555;fill-opacity:1" />
</svg>
