<?xml version="1.0" encoding="UTF-8" standalone="no"?>
<svg
   xmlns:dc="http://purl.org/dc/elements/1.1/"
   xmlns:cc="http://creativecommons.org/ns#"
   xmlns:rdf="http://www.w3.org/1999/02/22-rdf-syntax-ns#"
   xmlns:svg="http://www.w3.org/2000/svg"
   xmlns="http://www.w3.org/2000/svg"
   xmlns:sodipodi="http://sodipodi.sourceforge.net/DTD/sodipodi-0.dtd"
   xmlns:inkscape="http://www.inkscape.org/namespaces/inkscape"
   version="1.1"
   width="15"
   height="15"
   viewBox="0 0 15 15"
   id="home-15"
   sodipodi:docname="home_icon.svg"
   inkscape:version="0.92.5 (2060ec1f9f, 2020-04-08)">
  <metadata
     id="metadata869">
    <rdf:RDF>
      <cc:Work
         rdf:about="">
        <dc:format>image/svg+xml</dc:format>
        <dc:type
           rdf:resource="http://purl.org/dc/dcmitype/StillImage" />
        <dc:title></dc:title>
      </cc:Work>
    </rdf:RDF>
  </metadata>
  <defs
     id="defs867" />
  <sodipodi:namedview
     pagecolor="#ffffff"
     bordercolor="#666666"
     borderopacity="1"
     objecttolerance="10"
     gridtolerance="10"
     guidetolerance="10"
     inkscape:pageopacity="0"
     inkscape:pageshadow="2"
     inkscape:window-width="1366"
     inkscape:window-height="741"
     id="namedview865"
     showgrid="false"
     inkscape:zoom="32"
     inkscape:cx="7.1052222"
     inkscape:cy="10.146643"
     inkscape:window-x="0"
     inkscape:window-y="27"
     inkscape:window-maximized="1"
     inkscape:current-layer="home-15"
     fit-margin-top="0"
     fit-margin-left="0"
     fit-margin-right="0"
     fit-margin-bottom="0" />
  <path
     d="m 1.6599298,13.987838 c 0,0.146619 0.1188604,0.410129 0.2654794,0.410129 h 3.9811295 v -3.185753 h 3.1857532 v 3.185753 h 3.9811301 c 0.146619,0 0.265479,-0.11886 0.265479,-0.265479 L 13.347198,6.9766219 1.6599298,6.8798681 Z M 14.328609,6.5185382 C 14.276341,6.4319282 13.668874,5.938802 13.339008,5.6489338 V 1.6572913 c 0,-0.5864759 -0.475432,-1.06191774 -1.061918,-1.06191774 -0.586487,0 -1.061918,0.47544184 -1.061918,1.06191774 V 3.7811267 L 7.692472,0.69094616 C 7.5921207,0.58443581 7.4245076,0.57921117 7.3177212,0.67926506 L 7.3060401,0.69094616 0.67001009,6.4922027 c -0.10024503,0.1069988 -0.0947655,0.2750048 0.0122333,0.3752498 0.0482748,0.045227 0.11170313,0.070798 0.17784998,0.071711 4.03588353,0.06682 8.82629563,0.033459 13.27397163,0.026548 0.146619,4.884e-4 0.265873,-0.1179791 0.266361,-0.2645981 2.23e-4,-0.067761 0.0078,-0.087407 -0.07182,-0.1824693 z"
     id="path862"
     style="fill:#00c9c9;stroke:#000000;stroke-width:1.13385827;stroke-miterlimit:4;stroke-dasharray:none;stroke-opacity:1;fill-opacity:0.99000001"
     inkscape:connector-curvature="0"
     sodipodi:nodetypes="ssccccssccsccsssccccccccccc" />
</svg>
