<?xml version="1.0" encoding="UTF-8" standalone="no"?>
<svg
   xmlns:dc="http://purl.org/dc/elements/1.1/"
   xmlns:cc="http://creativecommons.org/ns#"
   xmlns:rdf="http://www.w3.org/1999/02/22-rdf-syntax-ns#"
   xmlns:svg="http://www.w3.org/2000/svg"
   xmlns="http://www.w3.org/2000/svg"
   xmlns:sodipodi="http://sodipodi.sourceforge.net/DTD/sodipodi-0.dtd"
   xmlns:inkscape="http://www.inkscape.org/namespaces/inkscape"
   version="1.1"
   id="art-gallery-15"
   width="15px"
   height="15px"
   viewBox="0 0 15 15"
   sodipodi:docname="art-gallery-15.svg"
   inkscape:version="0.92.5 (2060ec1f9f, 2020-04-08)">
  <metadata
     id="metadata9">
    <rdf:RDF>
      <cc:Work
         rdf:about="">
        <dc:format>image/svg+xml</dc:format>
        <dc:type
           rdf:resource="http://purl.org/dc/dcmitype/StillImage" />
        <dc:title></dc:title>
      </cc:Work>
    </rdf:RDF>
  </metadata>
  <defs
     id="defs7" />
  <sodipodi:namedview
     pagecolor="#ffffff"
     bordercolor="#666666"
     borderopacity="1"
     objecttolerance="10"
     gridtolerance="10"
     guidetolerance="10"
     inkscape:pageopacity="0"
     inkscape:pageshadow="2"
     inkscape:window-width="1366"
     inkscape:window-height="741"
     id="namedview5"
     showgrid="false"
     inkscape:zoom="15.733333"
     inkscape:cx="-3.2733052"
     inkscape:cy="7.4999998"
     inkscape:window-x="0"
     inkscape:window-y="27"
     inkscape:window-maximized="1"
     inkscape:current-layer="art-gallery-15" />
  <path
     d="M10.71,4L7.85,1.15C7.6555,0.9539,7.339,0.9526,7.1429,1.1471C7.1419,1.1481,7.141,1.149,7.14,1.15L4.29,4H1.5  C1.2239,4,1,4.2239,1,4.5v9C1,13.7761,1.2239,14,1.5,14h12c0.2761,0,0.5-0.2239,0.5-0.5v-9C14,4.2239,13.7761,4,13.5,4H10.71z   M7.5,2.21L9.29,4H5.71L7.5,2.21z M13,13H2V5h11V13z M5,8C4.4477,8,4,7.5523,4,7s0.4477-1,1-1s1,0.4477,1,1S5.5523,8,5,8z M12,12  H4.5L6,9l1.25,2.5L9.5,7L12,12z"
     id="path2"
     style="fill:#333333;fill-opacity:0.94117647" />
</svg>
