<?xml version="1.0" encoding="UTF-8" standalone="no"?>
<svg
   xmlns:dc="http://purl.org/dc/elements/1.1/"
   xmlns:cc="http://creativecommons.org/ns#"
   xmlns:rdf="http://www.w3.org/1999/02/22-rdf-syntax-ns#"
   xmlns:svg="http://www.w3.org/2000/svg"
   xmlns="http://www.w3.org/2000/svg"
   xmlns:sodipodi="http://sodipodi.sourceforge.net/DTD/sodipodi-0.dtd"
   xmlns:inkscape="http://www.inkscape.org/namespaces/inkscape"
   version="1.1"
   id="cemetery-15"
   width="15px"
   height="15px"
   viewBox="0 0 15 15"
   sodipodi:docname="cemetery-15.svg"
   inkscape:version="0.92.5 (2060ec1f9f, 2020-04-08)">
  <metadata
     id="metadata9">
    <rdf:RDF>
      <cc:Work
         rdf:about="">
        <dc:format>image/svg+xml</dc:format>
        <dc:type
           rdf:resource="http://purl.org/dc/dcmitype/StillImage" />
      </cc:Work>
    </rdf:RDF>
  </metadata>
  <defs
     id="defs7" />
  <sodipodi:namedview
     pagecolor="#ffffff"
     bordercolor="#666666"
     borderopacity="1"
     objecttolerance="10"
     gridtolerance="10"
     guidetolerance="10"
     inkscape:pageopacity="0"
     inkscape:pageshadow="2"
     inkscape:window-width="1366"
     inkscape:window-height="741"
     id="namedview5"
     showgrid="false"
     inkscape:zoom="15.733333"
     inkscape:cx="7.5"
     inkscape:cy="7.5"
     inkscape:window-x="0"
     inkscape:window-y="27"
     inkscape:window-maximized="1"
     inkscape:current-layer="cemetery-15" />
  <path
     d="M11.46,12h-0.68L12,3.55c0.0175-0.2867-0.2008-0.5332-0.4874-0.5507C11.4884,2.9979,11.4641,2.9981,11.44,3h-1.18
	c0-0.92-1.23-2-2.75-2S4.77,2.08,4.77,3H3.54C3.253,2.9885,3.0111,3.2117,2.9995,3.4987C2.9988,3.5158,2.999,3.5329,3,3.55L4.2,12
	H3.55C3.2609,11.9886,3.0162,12.2112,3,12.5V14h9v-1.51C11.9839,12.2067,11.7435,11.9886,11.46,12z M4.5,5h6v1h-6V5z"
     id="path2"
     style="fill:#333333" />
</svg>
