<?xml version="1.0" encoding="UTF-8" standalone="no"?>
<svg
   xmlns:dc="http://purl.org/dc/elements/1.1/"
   xmlns:cc="http://creativecommons.org/ns#"
   xmlns:rdf="http://www.w3.org/1999/02/22-rdf-syntax-ns#"
   xmlns:svg="http://www.w3.org/2000/svg"
   xmlns="http://www.w3.org/2000/svg"
   xmlns:sodipodi="http://sodipodi.sourceforge.net/DTD/sodipodi-0.dtd"
   xmlns:inkscape="http://www.inkscape.org/namespaces/inkscape"
   version="1.1"
   id="religious-muslim-15"
   width="15px"
   height="15px"
   viewBox="0 0 15 15"
   sodipodi:docname="religious-muslim-blue.svg"
   inkscape:version="0.92.5 (2060ec1f9f, 2020-04-08)">
  <metadata
     id="metadata8">
    <rdf:RDF>
      <cc:Work
         rdf:about="">
        <dc:format>image/svg+xml</dc:format>
        <dc:type
           rdf:resource="http://purl.org/dc/dcmitype/StillImage" />
        <dc:title></dc:title>
      </cc:Work>
    </rdf:RDF>
  </metadata>
  <defs
     id="defs6" />
  <sodipodi:namedview
     pagecolor="#ffffff"
     bordercolor="#666666"
     borderopacity="1"
     objecttolerance="10"
     gridtolerance="10"
     guidetolerance="10"
     inkscape:pageopacity="0"
     inkscape:pageshadow="2"
     inkscape:window-width="706"
     inkscape:window-height="480"
     id="namedview4"
     showgrid="false"
     inkscape:zoom="15.733333"
     inkscape:cx="7.5"
     inkscape:cy="7.5"
     inkscape:window-x="0"
     inkscape:window-y="27"
     inkscape:window-maximized="0"
     inkscape:current-layer="religious-muslim-15" />
  <path
     id="path7552-2-1"
     d="M6.7941,0C3,0,0,3,0,6.7941
	s3,6.7941,6.7941,6.7941c2.1176,0,4.4118-0.7059,5.6471-2.2941C11.6471,11.8235,10.1471,12.4412,9,12.4412
	c-2.9118,0-5.1176-2.9118-5.1176-5.8235S6.0882,1.1471,9,1.1471c1.0588,0,2.5588,0.6176,3.4412,1.1471
	C11.2059,0.7059,8.9118,0,6.7941,0z M11,3l-1,2.5H7L9.5,7l-1,3L11,8.5l2.5,1.5l-1-3L15,5.5h-3L11,3z"
     style="fill:#1e88e5;fill-opacity:1" />
</svg>
