<?xml version="1.0" encoding="UTF-8" standalone="no"?>
<!-- Created with Inkscape (http://www.inkscape.org/) -->

<svg
   xmlns:dc="http://purl.org/dc/elements/1.1/"
   xmlns:cc="http://creativecommons.org/ns#"
   xmlns:rdf="http://www.w3.org/1999/02/22-rdf-syntax-ns#"
   xmlns:svg="http://www.w3.org/2000/svg"
   xmlns="http://www.w3.org/2000/svg"
   xmlns:sodipodi="http://sodipodi.sourceforge.net/DTD/sodipodi-0.dtd"
   xmlns:inkscape="http://www.inkscape.org/namespaces/inkscape"
   width="130mm"
   height="130mm"
   viewBox="0 0 130 130"
   version="1.1"
   id="svg8"
   inkscape:version="0.92.5 (2060ec1f9f, 2020-04-08)"
   sodipodi:docname="architecture.svg">
  <defs
     id="defs2" />
  <sodipodi:namedview
     id="base"
     pagecolor="#ffffff"
     bordercolor="#666666"
     borderopacity="1.0"
     inkscape:pageopacity="0.0"
     inkscape:pageshadow="2"
     inkscape:zoom="0.7"
     inkscape:cx="-158.42972"
     inkscape:cy="234.58782"
     inkscape:document-units="mm"
     inkscape:current-layer="layer1"
     showgrid="true"
     fit-margin-top="0"
     fit-margin-left="0"
     fit-margin-right="0"
     fit-margin-bottom="0"
     inkscape:window-width="1366"
     inkscape:window-height="741"
     inkscape:window-x="0"
     inkscape:window-y="27"
     inkscape:window-maximized="1"
     showguides="false">
    <inkscape:grid
       type="xygrid"
       id="grid1024" />
  </sodipodi:namedview>
  <metadata
     id="metadata5">
    <rdf:RDF>
      <cc:Work
         rdf:about="">
        <dc:format>image/svg+xml</dc:format>
        <dc:type
           rdf:resource="http://purl.org/dc/dcmitype/StillImage" />
        <dc:title></dc:title>
      </cc:Work>
    </rdf:RDF>
  </metadata>
  <g
     inkscape:label="Layer 1"
     inkscape:groupmode="layer"
     id="layer1"
     transform="translate(-36.297622,-95.928558)">
    <circle
       style="opacity:1;fill:#ffffff;fill-opacity:1;stroke:#6b1b10;stroke-width:1.88649583;stroke-linecap:square;stroke-linejoin:miter;stroke-miterlimit:1;stroke-dasharray:none;stroke-opacity:0;paint-order:markers stroke fill"
       id="path1030"
       cx="-48.735756"
       cy="137.0929"
       r="64.822914" />
    <path
       style="opacity:1;fill:#784421;fill-opacity:1;stroke:none;stroke-width:13.22032166;stroke-linecap:round;stroke-linejoin:round;stroke-miterlimit:4;stroke-dasharray:none;stroke-opacity:1;paint-order:normal"
       d="m -37.785711,109.80335 a 64.999999,64.999999 0 0 0 -65.000169,65.00016 64.999999,64.999999 0 0 0 65.000169,64.99965 64.999999,64.999999 0 0 0 64.999649,-64.99965 64.999999,64.999999 0 0 0 -64.999649,-65.00016 z m 0,5.00021 a 59.999998,59.999998 0 0 1 59.999956,59.99995 59.999998,59.999998 0 0 1 -59.999956,59.99996 59.999998,59.999998 0 0 1 -59.999954,-59.99996 59.999998,59.999998 0 0 1 59.999954,-59.99995 z"
       id="path815"
       inkscape:connector-curvature="0" />
    <circle
       style="opacity:1;fill:#ffa5a5;fill-opacity:1;stroke:#784421;stroke-width:20;stroke-linecap:square;stroke-linejoin:miter;stroke-miterlimit:1;stroke-dasharray:none;stroke-opacity:1;paint-order:markers stroke fill"
       id="path1030-6"
       cy="160.92856"
       cx="101.29762"
       r="55.00021" />
    <path
       inkscape:connector-curvature="0"
       style="fill:#784421;stroke:#784421;stroke-width:2.03379393;stroke-miterlimit:4;stroke-dasharray:none;stroke-opacity:1;fill-opacity:1"
       d="m 142.78072,190.32361 c 0,2.15061 -1.8212,3.9102 -4.04713,3.9102 H 63.861656 c -2.22593,0 -4.047135,-1.75959 -4.047135,-3.9102 0,-2.15062 1.821205,-3.91021 4.047135,-3.91021 h 74.871934 c 2.22593,0 4.04713,1.66183 4.04713,3.91021 z m -4.04713,-56.69802 H 63.861656 c -2.22593,0 -4.047135,1.7596 -4.047135,3.91022 v 3.91019 h 82.966199 v -3.91019 c 0,-2.24838 -1.8212,-3.91022 -4.04713,-3.91022 z m -37.43596,-19.35553 -28.633464,15.44532 h 57.266914 z m 9.10604,34.99637 v -3.91022 H 92.191572 v 3.91022 c 0,2.1506 1.821215,3.91019 4.047136,3.91019 h 10.117832 c 2.22591,0 4.04713,-1.75959 4.04713,-3.91019 z m -46.542014,3.91019 H 76.00305 v -7.82041 H 59.814521 v 3.91022 c 0,2.1506 1.821204,3.91019 4.047135,3.91019 z m 62.730544,0 h 12.14139 c 2.22593,0 4.04713,-1.75959 4.04713,-3.91019 v -3.91022 H 126.5922 Z m -21.24745,29.32657 v -25.41635 h -8.094258 v 25.41635 z m 21.24745,-25.41635 v 25.41635 h 8.09426 v -25.41635 z m -50.589149,25.41635 v -25.41635 h -8.094269 v 25.41635 z"
       id="path5588" />
  </g>
</svg>
