<?xml version="1.0" encoding="UTF-8" standalone="no"?>
<svg
   xmlns:dc="http://purl.org/dc/elements/1.1/"
   xmlns:cc="http://creativecommons.org/ns#"
   xmlns:rdf="http://www.w3.org/1999/02/22-rdf-syntax-ns#"
   xmlns:svg="http://www.w3.org/2000/svg"
   xmlns="http://www.w3.org/2000/svg"
   xmlns:sodipodi="http://sodipodi.sourceforge.net/DTD/sodipodi-0.dtd"
   xmlns:inkscape="http://www.inkscape.org/namespaces/inkscape"
   version="1.1"
   id="doctor-15"
   width="11.500478"
   height="13"
   viewBox="0 0 11.500478 13"
   sodipodi:docname="clinic.svg"
   inkscape:version="0.92.5 (2060ec1f9f, 2020-04-08)">
  <metadata
     id="metadata855">
    <rdf:RDF>
      <cc:Work
         rdf:about="">
        <dc:format>image/svg+xml</dc:format>
        <dc:type
           rdf:resource="http://purl.org/dc/dcmitype/StillImage" />
        <dc:title></dc:title>
      </cc:Work>
    </rdf:RDF>
  </metadata>
  <defs
     id="defs853" />
  <sodipodi:namedview
     pagecolor="#ffffff"
     bordercolor="#666666"
     borderopacity="1"
     objecttolerance="10"
     gridtolerance="10"
     guidetolerance="10"
     inkscape:pageopacity="0"
     inkscape:pageshadow="2"
     inkscape:window-width="1366"
     inkscape:window-height="741"
     id="namedview851"
     showgrid="false"
     fit-margin-top="0"
     fit-margin-left="0"
     fit-margin-right="0"
     fit-margin-bottom="0"
     inkscape:zoom="40.133333"
     inkscape:cx="5.5"
     inkscape:cy="6.5"
     inkscape:window-x="0"
     inkscape:window-y="27"
     inkscape:window-maximized="1"
     inkscape:current-layer="doctor-15" />
  <path
     d="M 3.5,6 C 2.1193,6 1,4.8807 1,3.5 v 0 -2 C 1,1.2239 1.2239,1 1.5,1 H 2 C 2.2761,1 2.5,0.7761 2.5,0.5 2.5,0.2239 2.2761,0 2,0 H 1.5 C 0.6716,0 0,0.6716 0,1.5 v 2 c 0.0013,1.1466 0.5658,2.2195 1.51,2.87 v 0 C 2.4131,7.1662 2.9514,8.297 3,9.5 3,11.433 4.567,13 6.5,13 8.433,13 10,11.433 10,9.5 V 8.93 C 11.0695,8.6539 11.7126,7.563 11.4365,6.4935 11.1603,5.424 10.0695,4.7809 9,5.057 7.9305,5.3332 7.2874,6.424 7.5635,7.4935 7.7454,8.198 8.2955,8.7481 9,8.93 V 9.5 C 9,10.8807 7.8807,12 6.5,12 5.1193,12 4,10.8807 4,9.5 4.0511,8.2955 4.5932,7.1644 5.5,6.37 v 0 C 6.4404,5.7172 7.001,4.6448 7,3.5 v -2 C 7,0.6716 6.3284,0 5.5,0 H 5 C 4.7239,0 4.5,0.2239 4.5,0.5 4.5,0.7761 4.7239,1 5,1 H 5.5 C 5.7761,1 6,1.2239 6,1.5 v 2 0 C 6,4.8807 4.8807,6 3.5,6 m 6,2 c -0.5523,0 -1,-0.4477 -1,-1 0,-0.5523 0.4477,-1 1,-1 0.5523,0 1,0.4477 1,1 0,0.5523 -0.4477,1 -1,1 z"
     id="path848"
     style="fill:#ffbfd5;fill-opacity:1"
     inkscape:connector-curvature="0" />
</svg>
