<?xml version="1.0" encoding="UTF-8" standalone="no"?>
<svg
   xmlns:dc="http://purl.org/dc/elements/1.1/"
   xmlns:cc="http://creativecommons.org/ns#"
   xmlns:rdf="http://www.w3.org/1999/02/22-rdf-syntax-ns#"
   xmlns:svg="http://www.w3.org/2000/svg"
   xmlns="http://www.w3.org/2000/svg"
   xmlns:sodipodi="http://sodipodi.sourceforge.net/DTD/sodipodi-0.dtd"
   xmlns:inkscape="http://www.inkscape.org/namespaces/inkscape"
   version="1.1"
   id="pitch-15"
   width="11"
   height="13"
   viewBox="0 0 11 13"
   sodipodi:docname="fitness-centre.svg"
   inkscape:version="0.92.5 (2060ec1f9f, 2020-04-08)">
  <metadata
     id="metadata894">
    <rdf:RDF>
      <cc:Work
         rdf:about="">
        <dc:format>image/svg+xml</dc:format>
        <dc:type
           rdf:resource="http://purl.org/dc/dcmitype/StillImage" />
        <dc:title></dc:title>
      </cc:Work>
    </rdf:RDF>
  </metadata>
  <defs
     id="defs892" />
  <sodipodi:namedview
     pagecolor="#ffffff"
     bordercolor="#666666"
     borderopacity="1"
     objecttolerance="10"
     gridtolerance="10"
     guidetolerance="10"
     inkscape:pageopacity="0"
     inkscape:pageshadow="2"
     inkscape:window-width="640"
     inkscape:window-height="480"
     id="namedview890"
     showgrid="false"
     inkscape:zoom="15.733333"
     inkscape:cx="5.5"
     inkscape:cy="6.5"
     inkscape:window-x="0"
     inkscape:window-y="27"
     inkscape:window-maximized="0"
     inkscape:current-layer="pitch-15"
     fit-margin-top="0"
     fit-margin-left="0"
     fit-margin-right="0"
     fit-margin-bottom="0" />
  <path
     d="M 3,2 C 2.4477,2 2,1.5523 2,1 2,0.4477 2.4477,0 3,0 3.5523,0 4,0.4477 4,1 4,1.5523 3.5523,2 3,2 Z m 7.5,7 H 8 L 7,6 6,4.25 7,4 9.3,5 V 5 C 9.5761,5.1105 9.8895,4.9761 10,4.7 10.1105,4.4239 9.9761,4.1105 9.7,4 V 4 L 7,3 H 5 L 3,4 2,5 H 0.5 C 0.2239,5 0,5.2239 0,5.5 0,5.7761 0.2239,6 0.5,6 H 3 L 4,5 5,7 3,9 v 3.5 C 3,12.7761 3.2239,13 3.5,13 3.7761,13 4,12.7761 4,12.5 V 9.39 L 6,8 7,10 h 3.5 C 10.7761,10 11,9.7761 11,9.5 11,9.2239 10.7761,9 10.5,9 Z"
     id="path887"
     style="fill:#c87137"
     inkscape:connector-curvature="0" />
</svg>
