<?xml version="1.0" encoding="UTF-8" standalone="no"?>
<svg
   xmlns:dc="http://purl.org/dc/elements/1.1/"
   xmlns:cc="http://creativecommons.org/ns#"
   xmlns:rdf="http://www.w3.org/1999/02/22-rdf-syntax-ns#"
   xmlns:svg="http://www.w3.org/2000/svg"
   xmlns="http://www.w3.org/2000/svg"
   xmlns:sodipodi="http://sodipodi.sourceforge.net/DTD/sodipodi-0.dtd"
   xmlns:inkscape="http://www.inkscape.org/namespaces/inkscape"
   version="1.1"
   id="art-gallery-15"
   width="13"
   height="12.99793"
   viewBox="0 0 13 12.99793"
   sodipodi:docname="gallery.svg"
   inkscape:version="0.92.5 (2060ec1f9f, 2020-04-08)">
  <metadata
     id="metadata939">
    <rdf:RDF>
      <cc:Work
         rdf:about="">
        <dc:format>image/svg+xml</dc:format>
        <dc:type
           rdf:resource="http://purl.org/dc/dcmitype/StillImage" />
        <dc:title></dc:title>
      </cc:Work>
    </rdf:RDF>
  </metadata>
  <defs
     id="defs937" />
  <sodipodi:namedview
     pagecolor="#ffffff"
     bordercolor="#666666"
     borderopacity="1"
     objecttolerance="10"
     gridtolerance="10"
     guidetolerance="10"
     inkscape:pageopacity="0"
     inkscape:pageshadow="2"
     inkscape:window-width="1366"
     inkscape:window-height="741"
     id="namedview935"
     showgrid="false"
     fit-margin-top="0"
     fit-margin-left="0"
     fit-margin-right="0"
     fit-margin-bottom="0"
     inkscape:zoom="40.133333"
     inkscape:cx="6.5"
     inkscape:cy="6.5"
     inkscape:window-x="0"
     inkscape:window-y="27"
     inkscape:window-maximized="1"
     inkscape:current-layer="art-gallery-15" />
  <path
     d="M 9.71,2.9979292 6.85,0.14792923 c -0.1945,-0.1961 -0.511,-0.1974 -0.7071,-0.0029 -0.001,0.001 -0.0019,0.0019 -0.0029,0.0029 L 3.29,2.9979292 H 0.5 c -0.2761,0 -0.5,0.2239 -0.5,0.5 v 8.9999998 c 0,0.2761 0.2239,0.5 0.5,0.5 h 12 c 0.2761,0 0.5,-0.2239 0.5,-0.5 V 3.4979292 c 0,-0.2761 -0.2239,-0.5 -0.5,-0.5 z m -3.21,-1.79 1.79,1.79 H 4.71 Z M 12,11.997929 H 1 V 3.9979292 H 12 Z M 4,6.9979292 c -0.5523,0 -1,-0.4477 -1,-1 0,-0.5523 0.4477,-1 1,-1 0.5523,0 1,0.4477 1,1 0,0.5523 -0.4477,1 -1,1 z m 7,3.9999998 H 3.5 L 5,7.9979292 6.25,10.497929 8.5,5.9979292 Z"
     id="path932"
     style="fill:#89a02c"
     inkscape:connector-curvature="0" />
</svg>
