<?xml version="1.0" encoding="UTF-8" standalone="no"?>
<svg
   xmlns:dc="http://purl.org/dc/elements/1.1/"
   xmlns:cc="http://creativecommons.org/ns#"
   xmlns:rdf="http://www.w3.org/1999/02/22-rdf-syntax-ns#"
   xmlns:svg="http://www.w3.org/2000/svg"
   xmlns="http://www.w3.org/2000/svg"
   xmlns:sodipodi="http://sodipodi.sourceforge.net/DTD/sodipodi-0.dtd"
   xmlns:inkscape="http://www.inkscape.org/namespaces/inkscape"
   viewBox="0 0 60 60"
   version="1.1"
   id="svg885"
   sodipodi:docname="globe.svg"
   width="60"
   height="60"
   style="enable-background:new"
   inkscape:export-filename="/home/peter/Webfiles/LGBTQmap/globeicon57.png"
   inkscape:export-xdpi="91.199997"
   inkscape:export-ydpi="91.199997"
   inkscape:version="0.92.5 (2060ec1f9f, 2020-04-08)">
  <metadata
     id="metadata891">
    <rdf:RDF>
      <cc:Work
         rdf:about="">
        <dc:format>image/svg+xml</dc:format>
        <dc:type
           rdf:resource="http://purl.org/dc/dcmitype/StillImage" />
        <dc:title />
      </cc:Work>
    </rdf:RDF>
  </metadata>
  <defs
     id="defs889">
    <filter
       inkscape:collect="always"
       style="color-interpolation-filters:sRGB"
       id="filter1755">
      <feBlend
         inkscape:collect="always"
         mode="overlay"
         in2="BackgroundImage"
         id="feBlend1757" />
    </filter>
  </defs>
  <sodipodi:namedview
     pagecolor="#ffffff"
     bordercolor="#666666"
     borderopacity="1"
     objecttolerance="10"
     gridtolerance="10"
     guidetolerance="10"
     inkscape:pageopacity="0"
     inkscape:pageshadow="2"
     inkscape:window-width="1366"
     inkscape:window-height="741"
     id="namedview887"
     showgrid="true"
     fit-margin-top="0"
     fit-margin-left="0"
     fit-margin-right="0"
     fit-margin-bottom="0"
     inkscape:zoom="9.03125"
     inkscape:cx="26.551771"
     inkscape:cy="31.498225"
     inkscape:window-x="0"
     inkscape:window-y="27"
     inkscape:window-maximized="1"
     inkscape:current-layer="svg885">
    <inkscape:grid
       type="xygrid"
       id="grid1552"
       originx="-2.0000006"
       originy="-2.0000005" />
  </sodipodi:namedview>
  <path
     style="opacity:1;fill:#ffffff;fill-opacity:1;stroke:none;stroke-width:3.77955174;stroke-linecap:square;stroke-linejoin:round;stroke-miterlimit:4;stroke-dasharray:none;stroke-opacity:1;paint-order:markers stroke fill"
     id="path883"
     sodipodi:type="arc"
     sodipodi:cx="30.000237"
     sodipodi:cy="30"
     sodipodi:rx="30.000237"
     sodipodi:ry="30"
     sodipodi:start="0"
     sodipodi:end="6.2775743"
     d="M 60.000473,30 A 30.000237,30 0 0 1 30.042319,59.99997 30.000237,30 0 0 1 1.1806361e-4,30.084165 30.000237,30 0 0 1 29.873988,2.6564081e-4 30.000237,30 0 0 1 60.000001,29.831671 L 30.000237,30 Z" />
  <g
     id="g1550"
     transform="matrix(2.2446725,0,0,3.0505253,60.307132,28.541948)"
     inkscape:label="g1550">
    <path
       style="fill:#750787;stroke-width:0.09824718"
       d="m 30.400391,2 -0.515625,0.1289062 c 0.171814,-0.011704 0.34381,-0.029297 0.515625,-0.029297 -0.1,0.2 0.90039,0.6 0.90039,1 0.1,0.4 0.4,0.9003906 0,0.9003906 -0.4,-0.1 -1.000781,-0.9003906 -1.300781,-1.4003906 -0.3,-0.6 -3.91e-4,0.5996094 -0.400391,1.0996094 -0.4,0.3999996 -0.70039,-0.099609 -0.40039,-0.5996094 0.3,-0.3 -0.19961,-0.600391 -0.59961,-0.9003906 -0.5,0.1 -1,0.1011718 -1.5,0.2011718 l -0.06641,0.033203 0.166016,-0.033203 c 0.1,0.4 -0.798828,0.6003907 -1.298828,0.4003906 -0.1,10e-8 -0.201172,-0.1015625 -0.201172,-0.1015624 C 12.099227,5.5992186 2,17.6 2,32 2,48.6 15.4,62 32,62 48.6,62 62,48.6 62,32 62,23.346182 58.33759,15.584897 52.492188,10.089844 c -0.115934,1.71729 -0.700552,2.11852 -1.191407,2.609375 -0.6,0.5 -1.70039,0.400781 -1.90039,0.800781 -0.2,0.4 -0.6,1.5 -2,1.5 -1.5,0 -0.99961,2.099219 -1.09961,2.699219 C 46.200781,18.299219 45.9,19 45.5,18.5 c -0.4,-0.6 -0.500781,-0.400391 -1.800781,-1.900391 -1.3,-1.5 -0.798438,-2.398828 -0.398438,-2.798828 0.4,-0.4 0.6,-1.500781 0,-1.300781 -0.6,0.2 -0.900781,-0.199219 -0.800781,-0.699219 0.1,-0.5 0.7,-0.90039 0,-1.40039 C 41.8,9.9003894 42.199609,7.9992184 41.599609,6.1992188 40.999609,4.4992187 40.3,5.7007816 39,5.8007812 37.7,5.9007813 37.499609,5 38.099609,4.5 38.699609,4 38.800391,3.9996094 37.900391,3.5996094 37.409736,3.4033474 37.402974,2.9194925 37.591797,2.5234375 L 37.400391,2.4003906 c -0.2,0 -0.501172,-0.099609 -0.701172,-0.099609 C 36.499219,2.8007805 36.3,3.5996094 36,3.5996094 c -0.4,0 -0.799219,0.4007812 -0.199219,0.8007812 0.6,0.4 -0.10039,1.1992188 -0.90039,0.6992188 -0.8,-0.6 -2.500391,0.1996093 -2.400391,0.5996094 0.1,0.3999997 0.7,0.5011718 1.5,0.2011718 0.8,-0.4 1.200781,3.908e-4 1.300781,0.4003906 0.1,0.3 0,0.3988282 0,0.7988282 0,0.4 -1.000781,0.1011721 -1.800781,0.2011718 -0.8,0.1 -1.599609,-0.1015626 -1.599609,-0.6015624 0,-0.4 -0.800391,-1.2996094 -1.400391,-1.5996094 -0.6,-0.3 0.200391,-1.1 0.900391,-0.5 0.7,0.6 0.7,-0.098828 1.5,-0.2988282 C 33.700391,4.1007814 32.5,3.7 33,3.5 33.476595,3.309362 33.226312,2.8223844 33.115234,2 h -0.314453 c 0,0.5 -0.8,1.2003906 -1,0.9003906 -0.1,-0.4 -0.4,-0.8003906 -1,-0.9003906 z m -4.458985,1.1113281 c 0.07324,0.010352 0.157813,0.037891 0.257813,0.087891 1,0.4999996 -0.09844,1.2003906 -0.398438,0.9003906 -0.2625,-0.2625 -0.37207,-1.0607413 0.140625,-0.9882816 z M 24.648438,3.9570312 C 25.116016,4.0048828 24.875391,5 25.400391,5 c 0.6,0 0.4,0.3992188 1,0.6992188 C 27.000391,5.9992185 26.7,4.1007814 27,4.8007812 c 0.4,0.7 1.400391,1.6984376 0.900391,1.8984376 -0.4,0.1 -2.200391,0.8011718 -2.400391,0.7011718 -0.2,-0.1 -0.400781,-0.6011721 -0.800781,-0.7011718 C 24.299219,6.5992188 23.8,5.5996094 23.5,5.5996094 23.2,5.5996094 23.600391,4.3 24.400391,4 c 0.1,-0.0375 0.181248,-0.049805 0.248047,-0.042969 z m 5.296874,0.8476563 c 0.321293,-0.023242 0.516407,1.2457031 0.253907,1.5957031 -0.3,0.4 -0.798438,0.3 -0.898438,0 -0.1,-0.3 -1.901562,-1.8 -1.101562,-1.5 0.8,0.3 1.201562,0.5 1.601562,0 0.05,-0.0625 0.09863,-0.092383 0.144531,-0.095703 z M 31,6.1992188 c 0,0 0.5,1.1999997 0,1 -0.5,-0.2000001 -0.5,-0.7000004 0,-1 z m -8.134766,1.2363281 c 0.53418,0.029297 1.347657,0.2636718 1.535157,0.2636719 0.3,0 1.098828,1.2011718 1.298828,1.2011718 C 25.899219,8.9003906 27,9.9 27,9.5 27,9.1 27.200391,8.4 27.900391,8.5 29.100391,8.3 28,9.7007818 28,10.300781 c -0.1,0.5 0.899219,1.498438 1.199219,1.898438 0.3,0.4 -0.89961,0.60039 -1.09961,0.40039 -0.2,-0.3 -0.799218,7.82e-4 -1.199218,0.300782 -0.09316,0.06987 -0.232179,0.07496 -0.394532,0.04687 0.270245,0.17229 0.494672,0.354576 0.59375,0.552734 0.4,0.6 1.59961,-0.4 2.09961,-0.5 0.6,-0.1 1.701562,0.699219 2.101562,0.199219 0.9,-1.3 -0.600781,-1.798828 1.199219,-0.798828 1.3,0.7 3.700391,-2.300782 2.900391,1.199218 -0.5,2.5 -2.5,2.601172 -4,4.201172 -1.4,1.6 2.9,2.1 3,3.5 0.3,4.2 2.50039,-0.300781 1.90039,-1.800781 -1.1,-2.9 1.298828,-2.100781 2.298828,-0.300781 0.5,1 0.89961,0.200781 1.59961,-0.199219 0.5,-0.3 0.700781,1.2 0.800781,1.5 0.3,0.9 1.600391,1.200781 1.400391,2.300781 -0.2,1.3 -1.1,0.89961 -2,1.09961 -1,0.3 0.1,1.10039 0,1.40039 -0.1,0.4 -1.29961,0.499219 -1.59961,0.699219 -0.9,0.6 -0.401562,1.599219 -1.101562,2.199219 -0.5,0.4 -0.99961,0.20039 -1.09961,0.90039 -0.1,0.9 -1.7,1.2 -1.5,2 0,0.2 0.501172,1.9 0.201172,2 -0.2,0.1 -1.2,-1.399609 -1.5,-1.599609 -0.6,-0.3 -3.2,-7.81e-4 -3.5,1.699219 -0.2,1.1 1.5,2.800781 2,1.300781 0.553301,-1.844336 0.850105,1.067054 0.736328,1.21875 0.286472,0.228188 1.846521,-0.381485 1.363282,0.681641 -0.2,0.5 0.20039,1.698828 0.90039,1.298828 0.3,-0.1 1.099219,0.301562 1.199219,0.101562 0.1,-0.3 0.399219,-0.501172 0.699219,-0.701172 0.7,-0.4 1.7,0 2.5,0 0.4,0.1 4.300781,2.19961 4.300781,2.59961 0.1,1.6 3.000391,1.40039 3.400391,1.90039 1.2,1.5 0.9,0.701172 0,2.701172 -0.4,1 3.9e-4,2.198438 -1.09961,2.898438 -0.5,0.4 -1.101562,0.201172 -1.601562,0.701172 -0.4,0.5 -0.2,1 -0.5,1.5 -0.3,0.6 -4.29961,4.199609 -4.59961,5.099609 -0.1,0.5 -1.298828,0.900781 -0.298828,1.300781 0.6,0.1 -1.30039,1.999219 -0.40039,2.699219 2.2,1.7 -1.49961,1.400391 -2.09961,-0.599609 -0.4,-1.2 -0.101172,-2.09961 0.298828,-3.09961 0.3,-0.8 -0.10039,-1.801172 0.09961,-2.701172 0.4,-1.7 1.000781,-3.60039 0.800781,-5.40039 -0.1,-1.1 -0.399219,-1.198828 -1.199219,-1.798828 -0.9,-0.7 -0.9,-1.6 -1.5,-2.5 -0.5,-0.8 0.9,-3.8 0.5,-4 C 35.300781,38.200396 34.3,38.4 34,38 c -0.4,-0.5 -0.599609,-1.000391 -1.099609,-1.400391 -0.3,-0.2 -1.6,-1.00039 -2,-0.90039 C 29.100391,35.899219 27.2,34.2 26,33 c -0.8,-0.8 -1.099219,-1.699609 -1.699219,-2.599609 -0.5,-0.8 -1.201562,-0.800782 -1.601562,-1.800782 -0.4,-1 -0.198828,-2.30039 -0.298828,-3.40039 -0.1,-1.2 -0.700391,-1.498438 -1.400391,-2.398438 -1.5,-1.9 -2.000391,-4.701172 -4.900391,-4.701172 -1.6,0 -1.499218,3.300391 -2.699218,2.900391 -1.4,-0.5 -3.5000004,1.899609 -3.5000004,1.599609 0.2000004,-1.7 1.8996094,-2.5 2.0996094,-3 C 12.5,17.999609 9.5003906,18.4 9.9003906,17 c 0.2000004,-0.7 2.0992184,-1.199609 1.6992184,-1.599609 -0.1,-0.1 -1.5999992,-1.101172 -1.5,-1.201172 0.3,-0.2 1.501172,0.401562 1.201172,-0.398438 -0.2,-0.5 -0.601172,-0.9 -0.701172,-1.5 -0.3,-1.4 3.901172,-1.301562 4.701172,-1.101562 C 17.700781,11.699219 18.6,12.9 21,12 c 0.693118,-0.288799 2.412069,-0.133699 3.863281,0.271484 -0.05186,-0.02137 -0.118514,-0.05708 -0.164062,-0.07226 -0.5,-0.3 1.200781,-0.898438 0.300781,-0.898438 -0.9,0 -0.9,-0.801172 -1,-1.201172 -0.1,-0.3999988 -0.899609,0.8 -1.599609,0 -0.7,-0.7999988 0.2,-1.8003904 0,-2.4003902 -0.075,-0.2250001 0.144336,-0.28125 0.464843,-0.2636719 z m 8.783204,0.296875 C 32.01875,7.8121094 32.375,8.5253906 32,8.9003906 c -0.5,0.4 -0.800391,1.3000004 -0.900391,1 -0.1,-0.3 -0.198828,-1.7 0.201172,-2 0.1,-0.15 0.224217,-0.1945312 0.347657,-0.1679687 z m -1.548829,0.2558593 c 0.200977,0.03418 0.201172,0.4625003 0.201172,0.8125 0,0.4000001 0.3,0.9000007 0,1.4999998 -0.3,0.6 -0.7,-3.9e-4 -1,-0.4003904 -0.3,-0.4 -0.3,-0.7996093 0,-1.0996094 C 29.600781,8.5007814 29.5,8.1 30,8 30.0375,7.9875 30.0709,7.983398 30.09961,7.988281 Z M 35.804688,8.1875 C 36.121094,8.2039063 36.3875,8.3242188 36.5,8.6992188 c 0.3,1 1.2,2.3015622 2,2.6015622 0.8,0.3 -3.91e-4,1.39961 0.599609,1.59961 0.6,0.2 1.701172,0.898828 1.701172,1.298828 0,0.4 -0.501172,0.900781 -0.701172,0.800781 -1.5,-0.4 -2.8,-1.899219 -3.5,-2.699219 C 35.399609,10.900781 35.5,12.1 33.5,11.5 33,11.3 32.199219,9.8 32.699219,9 c 0.5,-0.8 1.101562,-0.8992187 1.601562,-0.6992188 0.3125,0.1250001 0.976563,-0.140625 1.503907,-0.1132812 z m -4.757813,2.064453 c 0.127148,-0.05195 0.377734,0.298438 0.552734,0.648438 0.2,0.4 -0.09961,1.00039 -0.599609,0.90039 -0.5,-0.1 -0.3,-1.1 0,-1.5 0.0125,-0.025 0.02871,-0.04141 0.04687,-0.04883 z M 37.480469,14.5 c 0.486718,-0.04375 1.394922,1.137891 1.919922,1.400391 1.1,0.6 0.09883,1.50039 0.298828,1.90039 0.2,0.4 -1.498438,-0.601562 -1.898438,-1.101562 -0.4,-0.5 -1,-1.59961 -0.5,-2.09961 0.05,-0.0625 0.110157,-0.09336 0.179688,-0.09961 z m -2.472657,18.964844 c 0.204691,-0.02188 0.441407,0.0098 0.691407,0.134765 0.9,0.5 3.701172,1 3.201172,1.5 -0.6,0.7 -1.8,-0.40039 -2.5,-0.40039 -0.7,0 -1.100782,-0.799219 -1.800782,-0.699219 -0.525,0.075 -0.205859,-0.469531 0.408203,-0.535156 z"
       transform="matrix(0.44549929,0,0,0.32781239,-27.757783,-10.012029)"
       id="path951"
       inkscape:connector-curvature="0" />
    <path
       style="fill:#004dff;stroke-width:0.09824718;filter:url(#filter1755)"
       d="m 30.400391,2 -0.515625,0.1289062 c 0.171814,-0.011704 0.34381,-0.029297 0.515625,-0.029297 -0.1,0.2 0.90039,0.6 0.90039,1 0.1,0.4 0.4,0.9003906 0,0.9003906 -0.4,-0.1 -1.000781,-0.9003906 -1.300781,-1.4003906 -0.3,-0.6 -3.91e-4,0.5996094 -0.400391,1.0996094 -0.4,0.3999996 -0.70039,-0.099609 -0.40039,-0.5996094 0.3,-0.3 -0.19961,-0.600391 -0.59961,-0.9003906 -0.5,0.1 -1,0.1011718 -1.5,0.2011718 l -0.06641,0.033203 0.166016,-0.033203 c 0.1,0.4 -0.798828,0.6003907 -1.298828,0.4003906 -0.1,10e-8 -0.201172,-0.1015625 -0.201172,-0.1015624 C 12.099227,5.5992186 2,17.6 2,32 2,39.69348 4.8818873,46.696642 9.6230469,52 H 37.224609 C 37.624106,50.325077 38.196181,48.464848 38,46.699219 c -0.1,-1.1 -0.399219,-1.198828 -1.199219,-1.798828 -0.9,-0.7 -0.9,-1.6 -1.5,-2.5 -0.5,-0.8 0.9,-3.8 0.5,-4 C 35.300781,38.200391 34.3,38.4 34,38 c -0.4,-0.5 -0.599609,-1.000391 -1.099609,-1.400391 -0.3,-0.2 -1.6,-1.00039 -2,-0.90039 C 29.100391,35.899219 27.2,34.2 26,33 c -0.8,-0.8 -1.099219,-1.699609 -1.699219,-2.599609 -0.5,-0.8 -1.201562,-0.800782 -1.601562,-1.800782 -0.4,-1 -0.198828,-2.30039 -0.298828,-3.40039 -0.1,-1.2 -0.700391,-1.498438 -1.400391,-2.398438 -1.5,-1.9 -2.000391,-4.701172 -4.900391,-4.701172 -1.6,0 -1.499218,3.300391 -2.699218,2.900391 -1.4,-0.5 -3.5000004,1.899609 -3.5000004,1.599609 0.2000004,-1.7 1.8996094,-2.5 2.0996094,-3 C 12.5,17.999609 9.5003906,18.4 9.9003906,17 c 0.2000004,-0.7 2.0992184,-1.199609 1.6992184,-1.599609 -0.1,-0.1 -1.5999992,-1.101172 -1.5,-1.201172 0.3,-0.2 1.501172,0.401562 1.201172,-0.398438 -0.2,-0.5 -0.601172,-0.9 -0.701172,-1.5 -0.3,-1.4 3.901172,-1.301562 4.701172,-1.101562 C 17.700781,11.699219 18.6,12.9 21,12 c 0.693118,-0.288799 2.412069,-0.133699 3.863281,0.271484 -0.05186,-0.02137 -0.118514,-0.05708 -0.164062,-0.07226 -0.5,-0.3 1.200781,-0.898438 0.300781,-0.898438 -0.9,0 -0.9,-0.801172 -1,-1.201172 -0.1,-0.3999988 -0.899609,0.8 -1.599609,0 -0.7,-0.7999988 0.2,-1.8003904 0,-2.4003902 -0.075,-0.2250001 0.144336,-0.28125 0.464843,-0.2636719 0.53418,0.029297 1.347657,0.2636717 1.535157,0.2636719 0.3,0 1.098828,1.2011718 1.298828,1.2011718 C 25.899219,8.9003856 27,9.9 27,9.5 27,9.1 27.200391,8.4 27.900391,8.5 29.100391,8.3 28,9.7007818 28,10.300781 c -0.1,0.5 0.899219,1.498438 1.199219,1.898438 0.3,0.4 -0.89961,0.60039 -1.09961,0.40039 -0.2,-0.3 -0.799218,7.82e-4 -1.199218,0.300782 -0.09316,0.06987 -0.232179,0.07496 -0.394532,0.04687 0.270245,0.17229 0.494672,0.354576 0.59375,0.552734 0.4,0.6 1.59961,-0.4 2.09961,-0.5 0.6,-0.1 1.701562,0.699219 2.101562,0.199219 0.9,-1.3 -0.600781,-1.798828 1.199219,-0.798828 1.3,0.7 3.700391,-2.300782 2.900391,1.199218 -0.5,2.5 -2.5,2.601172 -4,4.201172 -1.4,1.6 2.9,2.1 3,3.5 0.3,4.2 2.50039,-0.300781 1.90039,-1.800781 -1.1,-2.9 1.298828,-2.100781 2.298828,-0.300781 0.5,1 0.89961,0.200781 1.59961,-0.199219 0.5,-0.3 0.700781,1.2 0.800781,1.5 0.3,0.9 1.600391,1.200781 1.400391,2.300781 -0.2,1.3 -1.1,0.89961 -2,1.09961 -1,0.3 0.1,1.10039 0,1.40039 -0.1,0.4 -1.29961,0.499219 -1.59961,0.699219 -0.9,0.6 -0.401562,1.599219 -1.101562,2.199219 -0.5,0.4 -0.99961,0.20039 -1.09961,0.90039 -0.1,0.9 -1.7,1.2 -1.5,2 0,0.2 0.501172,1.9 0.201172,2 -0.2,0.1 -1.2,-1.399609 -1.5,-1.599609 -0.6,-0.3 -3.2,-7.81e-4 -3.5,1.699219 -0.2,1.1 1.5,2.800781 2,1.300781 0.553301,-1.844336 0.850105,1.067054 0.736328,1.21875 0.286472,0.228188 1.846521,-0.381485 1.363282,0.681641 -0.2,0.5 0.20039,1.698828 0.90039,1.298828 0.3,-0.1 1.099219,0.301562 1.199219,0.101562 0.1,-0.3 0.399219,-0.501172 0.699219,-0.701172 0.7,-0.4 1.7,0 2.5,0 0.4,0.1 4.300781,2.19961 4.300781,2.59961 0.1,1.6 3.000391,1.40039 3.400391,1.90039 1.2,1.5 0.9,0.701172 0,2.701172 -0.4,1 3.9e-4,2.198438 -1.09961,2.898438 -0.5,0.4 -1.101562,0.201172 -1.601562,0.701172 -0.4,0.5 -0.2,1 -0.5,1.5 C 44.041485,49.715864 42.873936,50.854353 41.746094,52 H 54.376953 C 59.118113,46.696642 62,39.69348 62,32 62,23.346182 58.33759,15.584897 52.492188,10.089844 c -0.115934,1.71729 -0.700552,2.11852 -1.191407,2.609375 -0.6,0.5 -1.70039,0.400781 -1.90039,0.800781 -0.2,0.4 -0.6,1.5 -2,1.5 -1.5,0 -0.99961,2.099219 -1.09961,2.699219 C 46.200781,18.299219 45.9,19 45.5,18.5 c -0.4,-0.6 -0.500781,-0.400391 -1.800781,-1.900391 -1.3,-1.5 -0.798438,-2.398828 -0.398438,-2.798828 0.4,-0.4 0.6,-1.500781 0,-1.300781 -0.6,0.2 -0.900781,-0.199219 -0.800781,-0.699219 0.1,-0.5 0.7,-0.90039 0,-1.40039 C 41.8,9.9003894 42.199609,7.9992184 41.599609,6.1992188 40.999609,4.4992187 40.3,5.7007816 39,5.8007812 37.7,5.9007813 37.499609,5 38.099609,4.5 38.699609,4 38.800391,3.9996094 37.900391,3.5996094 37.409736,3.4033474 37.402974,2.9194925 37.591797,2.5234375 L 37.400391,2.4003906 c -0.2,0 -0.501172,-0.099609 -0.701172,-0.099609 C 36.499219,2.8007805 36.3,3.5996094 36,3.5996094 c -0.4,0 -0.799219,0.4007812 -0.199219,0.8007812 0.6,0.4 -0.10039,1.1992188 -0.90039,0.6992188 -0.8,-0.6 -2.500391,0.1996093 -2.400391,0.5996094 0.1,0.3999997 0.7,0.5011718 1.5,0.2011718 0.8,-0.4 1.200781,3.908e-4 1.300781,0.4003906 0.1,0.3 0,0.3988282 0,0.7988282 0,0.4 -1.000781,0.1011721 -1.800781,0.2011718 -0.8,0.1 -1.599609,-0.1015626 -1.599609,-0.6015624 0,-0.4 -0.800391,-1.2996094 -1.400391,-1.5996094 -0.6,-0.3 0.200391,-1.1 0.900391,-0.5 0.7,0.6 0.7,-0.098828 1.5,-0.2988282 C 33.700391,4.1007814 32.5,3.7 33,3.5 33.476595,3.309362 33.226312,2.8223844 33.115234,2 h -0.314453 c 0,0.5 -0.8,1.2003906 -1,0.9003906 -0.1,-0.4 -0.4,-0.8003906 -1,-0.9003906 z m -4.458985,1.1113281 c 0.07324,0.010352 0.157813,0.037891 0.257813,0.087891 1,0.4999996 -0.09844,1.2003906 -0.398438,0.9003906 -0.2625,-0.2625 -0.37207,-1.0607413 0.140625,-0.9882816 z M 24.648438,3.9570312 C 25.116016,4.0048828 24.875391,5 25.400391,5 c 0.6,0 0.4,0.3992188 1,0.6992188 C 27.000391,5.9992185 26.7,4.1007814 27,4.8007812 c 0.4,0.7 1.400391,1.6984376 0.900391,1.8984376 -0.4,0.1 -2.200391,0.8011718 -2.400391,0.7011718 -0.2,-0.1 -0.400781,-0.6011721 -0.800781,-0.7011718 C 24.299219,6.5992188 23.8,5.5996094 23.5,5.5996094 23.2,5.5996094 23.600391,4.3 24.400391,4 c 0.1,-0.0375 0.181248,-0.049805 0.248047,-0.042969 z m 5.296874,0.8476563 c 0.321293,-0.023242 0.516407,1.2457031 0.253907,1.5957031 -0.3,0.4 -0.798438,0.3 -0.898438,0 -0.1,-0.3 -1.901562,-1.8 -1.101562,-1.5 0.8,0.3 1.201562,0.5 1.601562,0 0.05,-0.0625 0.09863,-0.092383 0.144531,-0.095703 z M 31,6.1992188 c 0,0 0.5,1.1999997 0,1 -0.5,-0.2000001 -0.5,-0.7000004 0,-1 z m 0.648438,1.5332031 C 32.01875,7.8121094 32.375,8.5253906 32,8.9003906 c -0.5,0.4 -0.800391,1.3000004 -0.900391,1 -0.1,-0.3 -0.198828,-1.7 0.201172,-2 0.1,-0.15 0.224217,-0.1945312 0.347657,-0.1679687 z m -1.548829,0.2558593 c 0.200977,0.03418 0.201172,0.4625003 0.201172,0.8125 0,0.4000001 0.3,0.9000007 0,1.4999998 -0.3,0.6 -0.7,-3.9e-4 -1,-0.4003904 -0.3,-0.4 -0.3,-0.7996093 0,-1.0996094 C 29.600781,8.5007814 29.5,8.1 30,8 30.0375,7.9875 30.0709,7.983398 30.09961,7.988281 Z M 35.804688,8.1875 C 36.121094,8.2039063 36.3875,8.3242188 36.5,8.6992188 c 0.3,1 1.2,2.3015622 2,2.6015622 0.8,0.3 -3.91e-4,1.39961 0.599609,1.59961 0.6,0.2 1.701172,0.898828 1.701172,1.298828 0,0.4 -0.501172,0.900781 -0.701172,0.800781 -1.5,-0.4 -2.8,-1.899219 -3.5,-2.699219 C 35.399609,10.900781 35.5,12.1 33.5,11.5 33,11.3 32.199219,9.8 32.699219,9 c 0.5,-0.8 1.101562,-0.8992187 1.601562,-0.6992188 0.3125,0.1250001 0.976563,-0.140625 1.503907,-0.1132812 z m -4.757813,2.064453 c 0.127148,-0.05195 0.377734,0.298438 0.552734,0.648438 0.2,0.4 -0.09961,1.00039 -0.599609,0.90039 -0.5,-0.1 -0.3,-1.1 0,-1.5 0.0125,-0.025 0.02871,-0.04141 0.04687,-0.04883 z M 37.480469,14.5 c 0.486718,-0.04375 1.394922,1.137891 1.919922,1.400391 1.1,0.6 0.09883,1.50039 0.298828,1.90039 0.2,0.4 -1.498438,-0.601562 -1.898438,-1.101562 -0.4,-0.5 -1,-1.59961 -0.5,-2.09961 0.05,-0.0625 0.110157,-0.09336 0.179688,-0.09961 z m -2.472657,18.964844 c 0.204691,-0.02188 0.441407,0.0098 0.691407,0.134765 0.9,0.5 3.701172,1 3.201172,1.5 -0.6,0.7 -1.8,-0.40039 -2.5,-0.40039 -0.7,0 -1.100782,-0.799219 -1.800782,-0.699219 -0.525,0.075 -0.205859,-0.469531 0.408203,-0.535156 z"
       transform="matrix(0.44549929,0,0,0.32781239,-27.757783,-10.012029)"
       id="path953"
       inkscape:connector-curvature="0"
       inkscape:export-xdpi="256"
       inkscape:export-ydpi="256" />
    <path
       style="fill:#008026;stroke-width:0.09824718"
       d="m 30.400391,2 -0.515625,0.1289062 c 0.171814,-0.011704 0.34381,-0.029297 0.515625,-0.029297 -0.1,0.2 0.90039,0.6 0.90039,1 0.1,0.4 0.4,0.9003906 0,0.9003906 -0.4,-0.1 -1.000781,-0.9003906 -1.300781,-1.4003906 -0.3,-0.6 -3.91e-4,0.5996094 -0.400391,1.0996094 -0.4,0.3999996 -0.70039,-0.099609 -0.40039,-0.5996094 0.3,-0.3 -0.19961,-0.600391 -0.59961,-0.9003906 -0.5,0.1 -1,0.1011718 -1.5,0.2011718 l -0.06641,0.033203 0.166016,-0.033203 c 0.1,0.4 -0.798828,0.6003907 -1.298828,0.4003906 -0.1,10e-8 -0.201172,-0.1015625 -0.201172,-0.1015624 C 12.099227,5.5992186 2,17.6 2,32 2,35.509126 2.6038194,38.873226 3.7050781,42 H 35.195312 c -0.06896,-1.114881 0.954929,-3.424879 0.605469,-3.599609 C 35.300781,38.200391 34.3,38.4 34,38 c -0.4,-0.5 -0.599609,-1.000391 -1.099609,-1.400391 -0.3,-0.2 -1.6,-1.00039 -2,-0.90039 C 29.100391,35.899219 27.2,34.2 26,33 c -0.8,-0.8 -1.099219,-1.699609 -1.699219,-2.599609 -0.5,-0.8 -1.201562,-0.800782 -1.601562,-1.800782 -0.4,-1 -0.198828,-2.30039 -0.298828,-3.40039 -0.1,-1.2 -0.700391,-1.498438 -1.400391,-2.398438 -1.5,-1.9 -2.000391,-4.701172 -4.900391,-4.701172 -1.6,0 -1.499218,3.300391 -2.699218,2.900391 -1.4,-0.5 -3.5000004,1.899609 -3.5000004,1.599609 0.2000004,-1.7 1.8996094,-2.5 2.0996094,-3 C 12.5,17.999609 9.5003906,18.4 9.9003906,17 c 0.2000004,-0.7 2.0992184,-1.199609 1.6992184,-1.599609 -0.1,-0.1 -1.5999992,-1.101172 -1.5,-1.201172 0.3,-0.2 1.501172,0.401562 1.201172,-0.398438 -0.2,-0.5 -0.601172,-0.9 -0.701172,-1.5 -0.3,-1.4 3.901172,-1.301562 4.701172,-1.101562 C 17.700781,11.699219 18.6,12.9 21,12 c 0.693118,-0.288799 2.412069,-0.133699 3.863281,0.271484 -0.05186,-0.02137 -0.118514,-0.05708 -0.164062,-0.07226 -0.5,-0.3 1.200781,-0.898438 0.300781,-0.898438 -0.9,0 -0.9,-0.801172 -1,-1.201172 -0.1,-0.3999988 -0.899609,0.8 -1.599609,0 -0.7,-0.7999988 0.2,-1.8003904 0,-2.4003902 -0.075,-0.2250001 0.144336,-0.28125 0.464843,-0.2636719 0.53418,0.029297 1.347657,0.2636717 1.535157,0.2636719 0.3,0 1.098828,1.2011718 1.298828,1.2011718 C 25.899219,8.9003856 27,9.9 27,9.5 27,9.1 27.200391,8.4 27.900391,8.5 29.100391,8.3 28,9.7007818 28,10.300781 c -0.1,0.5 0.899219,1.498438 1.199219,1.898438 0.3,0.4 -0.89961,0.60039 -1.09961,0.40039 -0.2,-0.3 -0.799218,7.82e-4 -1.199218,0.300782 -0.09316,0.06987 -0.232179,0.07496 -0.394532,0.04687 0.270245,0.17229 0.494672,0.354576 0.59375,0.552734 0.4,0.6 1.59961,-0.4 2.09961,-0.5 0.6,-0.1 1.701562,0.699219 2.101562,0.199219 0.9,-1.3 -0.600781,-1.798828 1.199219,-0.798828 1.3,0.7 3.700391,-2.300782 2.900391,1.199218 -0.5,2.5 -2.5,2.601172 -4,4.201172 -1.4,1.6 2.9,2.1 3,3.5 0.3,4.2 2.50039,-0.300781 1.90039,-1.800781 -1.1,-2.9 1.298828,-2.100781 2.298828,-0.300781 0.5,1 0.89961,0.200781 1.59961,-0.199219 0.5,-0.3 0.700781,1.2 0.800781,1.5 0.3,0.9 1.600391,1.200781 1.400391,2.300781 -0.2,1.3 -1.1,0.89961 -2,1.09961 -1,0.3 0.1,1.10039 0,1.40039 -0.1,0.4 -1.29961,0.499219 -1.59961,0.699219 -0.9,0.6 -0.401562,1.599219 -1.101562,2.199219 -0.5,0.4 -0.99961,0.20039 -1.09961,0.90039 -0.1,0.9 -1.7,1.2 -1.5,2 0,0.2 0.501172,1.9 0.201172,2 -0.2,0.1 -1.2,-1.399609 -1.5,-1.599609 -0.6,-0.3 -3.2,-7.81e-4 -3.5,1.699219 -0.2,1.1 1.5,2.800781 2,1.300781 0.553301,-1.844336 0.850105,1.067054 0.736328,1.21875 0.286472,0.228188 1.846521,-0.381485 1.363282,0.681641 -0.2,0.5 0.20039,1.698828 0.90039,1.298828 0.3,-0.1 1.099219,0.301562 1.199219,0.101562 0.1,-0.3 0.399219,-0.501172 0.699219,-0.701172 0.7,-0.4 1.7,0 2.5,0 0.4,0.1 4.300781,2.19961 4.300781,2.59961 0.1,1.6 3.000391,1.40039 3.400391,1.90039 C 47.555795,41.79387 47.62147,41.871815 47.728516,42 H 60.294922 C 61.396181,38.873226 62,35.509126 62,32 62,23.346182 58.33759,15.584897 52.492188,10.089844 c -0.115934,1.71729 -0.700552,2.11852 -1.191407,2.609375 -0.6,0.5 -1.70039,0.400781 -1.90039,0.800781 -0.2,0.4 -0.6,1.5 -2,1.5 -1.5,0 -0.99961,2.099219 -1.09961,2.699219 C 46.200781,18.299219 45.9,19 45.5,18.5 c -0.4,-0.6 -0.500781,-0.400391 -1.800781,-1.900391 -1.3,-1.5 -0.798438,-2.398828 -0.398438,-2.798828 0.4,-0.4 0.6,-1.500781 0,-1.300781 -0.6,0.2 -0.900781,-0.199219 -0.800781,-0.699219 0.1,-0.5 0.7,-0.90039 0,-1.40039 C 41.8,9.9003894 42.199609,7.9992184 41.599609,6.1992188 40.999609,4.4992187 40.3,5.7007816 39,5.8007812 37.7,5.9007813 37.499609,5 38.099609,4.5 38.699609,4 38.800391,3.9996094 37.900391,3.5996094 37.409736,3.4033474 37.402974,2.9194925 37.591797,2.5234375 L 37.400391,2.4003906 c -0.2,0 -0.501172,-0.099609 -0.701172,-0.099609 C 36.499219,2.8007805 36.3,3.5996094 36,3.5996094 c -0.4,0 -0.799219,0.4007812 -0.199219,0.8007812 0.6,0.4 -0.10039,1.1992188 -0.90039,0.6992188 -0.8,-0.6 -2.500391,0.1996093 -2.400391,0.5996094 0.1,0.3999997 0.7,0.5011718 1.5,0.2011718 0.8,-0.4 1.200781,3.908e-4 1.300781,0.4003906 0.1,0.3 0,0.3988282 0,0.7988282 0,0.4 -1.000781,0.1011721 -1.800781,0.2011718 -0.8,0.1 -1.599609,-0.1015626 -1.599609,-0.6015624 0,-0.4 -0.800391,-1.2996094 -1.400391,-1.5996094 -0.6,-0.3 0.200391,-1.1 0.900391,-0.5 0.7,0.6 0.7,-0.098828 1.5,-0.2988282 C 33.700391,4.1007814 32.5,3.7 33,3.5 33.476595,3.309362 33.226312,2.8223844 33.115234,2 h -0.314453 c 0,0.5 -0.8,1.2003906 -1,0.9003906 -0.1,-0.4 -0.4,-0.8003906 -1,-0.9003906 z m -4.458985,1.1113281 c 0.07324,0.010352 0.157813,0.037891 0.257813,0.087891 1,0.4999996 -0.09844,1.2003906 -0.398438,0.9003906 -0.2625,-0.2625 -0.37207,-1.0607413 0.140625,-0.9882816 z M 24.648438,3.9570312 C 25.116016,4.0048828 24.875391,5 25.400391,5 c 0.6,0 0.4,0.3992188 1,0.6992188 C 27.000391,5.9992185 26.7,4.1007814 27,4.8007812 c 0.4,0.7 1.400391,1.6984376 0.900391,1.8984376 -0.4,0.1 -2.200391,0.8011718 -2.400391,0.7011718 -0.2,-0.1 -0.400781,-0.6011721 -0.800781,-0.7011718 C 24.299219,6.5992188 23.8,5.5996094 23.5,5.5996094 23.2,5.5996094 23.600391,4.3 24.400391,4 c 0.1,-0.0375 0.181248,-0.049805 0.248047,-0.042969 z m 5.296874,0.8476563 c 0.321293,-0.023242 0.516407,1.2457031 0.253907,1.5957031 -0.3,0.4 -0.798438,0.3 -0.898438,0 -0.1,-0.3 -1.901562,-1.8 -1.101562,-1.5 0.8,0.3 1.201562,0.5 1.601562,0 0.05,-0.0625 0.09863,-0.092383 0.144531,-0.095703 z M 31,6.1992188 c 0,0 0.5,1.1999997 0,1 -0.5,-0.2000001 -0.5,-0.7000004 0,-1 z m 0.648438,1.5332031 C 32.01875,7.8121094 32.375,8.5253906 32,8.9003906 c -0.5,0.4 -0.800391,1.3000004 -0.900391,1 -0.1,-0.3 -0.198828,-1.7 0.201172,-2 0.1,-0.15 0.224217,-0.1945312 0.347657,-0.1679687 z m -1.548829,0.2558593 c 0.200977,0.03418 0.201172,0.4625003 0.201172,0.8125 0,0.4000001 0.3,0.9000007 0,1.4999998 -0.3,0.6 -0.7,-3.9e-4 -1,-0.4003904 -0.3,-0.4 -0.3,-0.7996093 0,-1.0996094 C 29.600781,8.5007814 29.5,8.1 30,8 30.0375,7.9875 30.0709,7.983398 30.09961,7.988281 Z M 35.804688,8.1875 C 36.121094,8.2039063 36.3875,8.3242188 36.5,8.6992188 c 0.3,1 1.2,2.3015622 2,2.6015622 0.8,0.3 -3.91e-4,1.39961 0.599609,1.59961 0.6,0.2 1.701172,0.898828 1.701172,1.298828 0,0.4 -0.501172,0.900781 -0.701172,0.800781 -1.5,-0.4 -2.8,-1.899219 -3.5,-2.699219 C 35.399609,10.900781 35.5,12.1 33.5,11.5 33,11.3 32.199219,9.8 32.699219,9 c 0.5,-0.8 1.101562,-0.8992187 1.601562,-0.6992188 0.3125,0.1250001 0.976563,-0.140625 1.503907,-0.1132812 z m -4.757813,2.064453 c 0.127148,-0.05195 0.377734,0.298438 0.552734,0.648438 0.2,0.4 -0.09961,1.00039 -0.599609,0.90039 -0.5,-0.1 -0.3,-1.1 0,-1.5 0.0125,-0.025 0.02871,-0.04141 0.04687,-0.04883 z M 37.480469,14.5 c 0.486718,-0.04375 1.394922,1.137891 1.919922,1.400391 1.1,0.6 0.09883,1.50039 0.298828,1.90039 0.2,0.4 -1.498438,-0.601562 -1.898438,-1.101562 -0.4,-0.5 -1,-1.59961 -0.5,-2.09961 0.05,-0.0625 0.110157,-0.09336 0.179688,-0.09961 z m -2.472657,18.964844 c 0.204691,-0.02188 0.441407,0.0098 0.691407,0.134765 0.9,0.5 3.701172,1 3.201172,1.5 -0.6,0.7 -1.8,-0.40039 -2.5,-0.40039 -0.7,0 -1.100782,-0.799219 -1.800782,-0.699219 -0.525,0.075 -0.205859,-0.469531 0.408203,-0.535156 z"
       transform="matrix(0.44549929,0,0,0.32781239,-27.757783,-10.012029)"
       id="path955"
       inkscape:connector-curvature="0" />
    <path
       style="fill:#ffed00;stroke-width:0.09824718"
       d="m 30.400391,2 -0.515625,0.1289062 c 0.171814,-0.011704 0.34381,-0.029297 0.515625,-0.029297 -0.1,0.2 0.90039,0.6 0.90039,1 0.1,0.4 0.4,0.9003906 0,0.9003906 -0.4,-0.1 -1.000781,-0.9003906 -1.300781,-1.4003906 -0.3,-0.6 -3.91e-4,0.5996094 -0.400391,1.0996094 -0.4,0.3999996 -0.70039,-0.099609 -0.40039,-0.5996094 0.3,-0.3 -0.19961,-0.600391 -0.59961,-0.9003906 -0.5,0.1 -1,0.1011718 -1.5,0.2011718 l -0.06641,0.033203 0.166016,-0.033203 c 0.1,0.4 -0.798828,0.6003907 -1.298828,0.4003906 -0.1,10e-8 -0.201172,-0.1015625 -0.201172,-0.1015624 C 12.099227,5.5992186 2,17.6 2,32 h 23.238281 c -0.317811,-0.519475 -0.576685,-1.058387 -0.9375,-1.599609 -0.5,-0.8 -1.201562,-0.800782 -1.601562,-1.800782 -0.4,-1 -0.198828,-2.30039 -0.298828,-3.40039 -0.1,-1.2 -0.700391,-1.498438 -1.400391,-2.398438 -1.5,-1.9 -2.000391,-4.701172 -4.900391,-4.701172 -1.6,0 -1.499218,3.300391 -2.699218,2.900391 -1.4,-0.5 -3.5000004,1.899609 -3.5000004,1.599609 0.2000004,-1.7 1.8996094,-2.5 2.0996094,-3 C 12.5,17.999609 9.5003906,18.4 9.9003906,17 c 0.2000004,-0.7 2.0992184,-1.199609 1.6992184,-1.599609 -0.1,-0.1 -1.5999992,-1.101172 -1.5,-1.201172 0.3,-0.2 1.501172,0.401562 1.201172,-0.398438 -0.2,-0.5 -0.601172,-0.9 -0.701172,-1.5 -0.3,-1.4 3.901172,-1.301562 4.701172,-1.101562 C 17.700781,11.699219 18.6,12.9 21,12 c 0.693118,-0.288799 2.412069,-0.133699 3.863281,0.271484 -0.05186,-0.02137 -0.118514,-0.05708 -0.164062,-0.07226 -0.5,-0.3 1.200781,-0.898438 0.300781,-0.898438 -0.9,0 -0.9,-0.801172 -1,-1.201172 -0.1,-0.3999988 -0.899609,0.8 -1.599609,0 -0.7,-0.7999988 0.2,-1.8003904 0,-2.4003902 -0.075,-0.2250001 0.144336,-0.28125 0.464843,-0.2636719 0.53418,0.029297 1.347657,0.2636717 1.535157,0.2636719 0.3,0 1.098828,1.2011718 1.298828,1.2011718 C 25.899219,8.9003856 27,9.9 27,9.5 27,9.1 27.200391,8.4 27.900391,8.5 29.100391,8.3 28,9.7007818 28,10.300781 c -0.1,0.5 0.899219,1.498438 1.199219,1.898438 0.3,0.4 -0.89961,0.60039 -1.09961,0.40039 -0.2,-0.3 -0.799218,7.82e-4 -1.199218,0.300782 -0.09316,0.06987 -0.232179,0.07496 -0.394532,0.04687 0.270245,0.17229 0.494672,0.354576 0.59375,0.552734 0.4,0.6 1.59961,-0.4 2.09961,-0.5 0.6,-0.1 1.701562,0.699219 2.101562,0.199219 0.9,-1.3 -0.600781,-1.798828 1.199219,-0.798828 1.3,0.7 3.700391,-2.300782 2.900391,1.199218 -0.5,2.5 -2.5,2.601172 -4,4.201172 -1.4,1.6 2.9,2.1 3,3.5 0.3,4.2 2.50039,-0.300781 1.90039,-1.800781 -1.1,-2.9 1.298828,-2.100781 2.298828,-0.300781 0.5,1 0.89961,0.200781 1.59961,-0.199219 0.5,-0.3 0.700781,1.2 0.800781,1.5 0.3,0.9 1.600391,1.200781 1.400391,2.300781 -0.2,1.3 -1.1,0.89961 -2,1.09961 -1,0.3 0.1,1.10039 0,1.40039 -0.1,0.4 -1.29961,0.499219 -1.59961,0.699219 -0.9,0.6 -0.401562,1.599219 -1.101562,2.199219 -0.5,0.4 -0.99961,0.20039 -1.09961,0.90039 -0.1,0.9 -1.7,1.2 -1.5,2 0,0.08683 0.103441,0.501774 0.185547,0.900391 H 62 c 0,-8.653818 -3.66241,-16.415103 -9.507812,-21.910156 -0.115934,1.71729 -0.700552,2.11852 -1.191407,2.609375 -0.6,0.5 -1.70039,0.400781 -1.90039,0.800781 -0.2,0.4 -0.6,1.5 -2,1.5 -1.5,0 -0.99961,2.099219 -1.09961,2.699219 C 46.200781,18.299224 45.9,19 45.5,18.5 c -0.4,-0.6 -0.500781,-0.400391 -1.800781,-1.900391 -1.3,-1.5 -0.798438,-2.398828 -0.398438,-2.798828 0.4,-0.4 0.6,-1.500781 0,-1.300781 -0.6,0.2 -0.900781,-0.199219 -0.800781,-0.699219 0.1,-0.5 0.7,-0.90039 0,-1.40039 C 41.8,9.9003894 42.199609,7.9992184 41.599609,6.1992188 40.999609,4.4992187 40.3,5.7007816 39,5.8007812 37.7,5.9007813 37.499609,5 38.099609,4.5 38.699609,4 38.800391,3.9996094 37.900391,3.5996094 37.409736,3.4033474 37.402974,2.9194925 37.591797,2.5234375 L 37.400391,2.4003906 c -0.2,0 -0.501172,-0.099609 -0.701172,-0.099609 C 36.499219,2.8007805 36.3,3.5996094 36,3.5996094 c -0.4,0 -0.799219,0.4007812 -0.199219,0.8007812 0.6,0.4 -0.10039,1.1992188 -0.90039,0.6992188 -0.8,-0.6 -2.500391,0.1996093 -2.400391,0.5996094 0.1,0.3999997 0.7,0.5011718 1.5,0.2011718 0.8,-0.4 1.200781,3.908e-4 1.300781,0.4003906 0.1,0.3 0,0.3988282 0,0.7988282 0,0.4 -1.000781,0.1011721 -1.800781,0.2011718 -0.8,0.1 -1.599609,-0.1015626 -1.599609,-0.6015624 0,-0.4 -0.800391,-1.2996094 -1.400391,-1.5996094 -0.6,-0.3 0.200391,-1.1 0.900391,-0.5 0.7,0.6 0.7,-0.098828 1.5,-0.2988282 C 33.700391,4.1007814 32.5,3.7 33,3.5 33.476595,3.309362 33.226312,2.8223844 33.115234,2 h -0.314453 c 0,0.5 -0.8,1.2003906 -1,0.9003906 -0.1,-0.4 -0.4,-0.8003906 -1,-0.9003906 z m -4.458985,1.1113281 c 0.07324,0.010352 0.157813,0.037891 0.257813,0.087891 1,0.4999996 -0.09844,1.2003906 -0.398438,0.9003906 -0.2625,-0.2625 -0.37207,-1.0607413 0.140625,-0.9882816 z M 24.648438,3.9570312 C 25.116016,4.0048828 24.875391,5 25.400391,5 c 0.6,0 0.4,0.3992188 1,0.6992188 C 27.000391,5.9992185 26.7,4.1007814 27,4.8007812 c 0.4,0.7 1.400391,1.6984376 0.900391,1.8984376 -0.4,0.1 -2.200391,0.8011718 -2.400391,0.7011718 -0.2,-0.1 -0.400781,-0.6011721 -0.800781,-0.7011718 C 24.299219,6.5992188 23.8,5.5996094 23.5,5.5996094 23.2,5.5996094 23.600391,4.3 24.400391,4 c 0.1,-0.0375 0.181248,-0.049805 0.248047,-0.042969 z m 5.296874,0.8476563 c 0.321293,-0.023242 0.516407,1.2457031 0.253907,1.5957031 -0.3,0.4 -0.798438,0.3 -0.898438,0 -0.1,-0.3 -1.901562,-1.8 -1.101562,-1.5 0.8,0.3 1.201562,0.5 1.601562,0 0.05,-0.0625 0.09863,-0.092383 0.144531,-0.095703 z M 31,6.1992188 c 0,0 0.5,1.1999997 0,1 -0.5,-0.2000001 -0.5,-0.7000004 0,-1 z m 0.648438,1.5332031 C 32.01875,7.8121094 32.375,8.5253906 32,8.9003906 c -0.5,0.4 -0.800391,1.3000004 -0.900391,1 -0.1,-0.3 -0.198828,-1.7 0.201172,-2 0.1,-0.15 0.224217,-0.1945312 0.347657,-0.1679687 z m -1.548829,0.2558593 c 0.200977,0.03418 0.201172,0.4625003 0.201172,0.8125 0,0.4000001 0.3,0.9000007 0,1.4999998 -0.3,0.6 -0.7,-3.9e-4 -1,-0.4003904 -0.3,-0.4 -0.3,-0.7996093 0,-1.0996094 C 29.600781,8.5007814 29.5,8.1 30,8 30.0375,7.9875 30.0709,7.983398 30.09961,7.988281 Z M 35.804688,8.1875 C 36.121094,8.2039063 36.3875,8.3242188 36.5,8.6992188 c 0.3,1 1.2,2.3015622 2,2.6015622 0.8,0.3 -3.91e-4,1.39961 0.599609,1.59961 0.6,0.2 1.701172,0.898828 1.701172,1.298828 0,0.4 -0.501172,0.900781 -0.701172,0.800781 -1.5,-0.4 -2.8,-1.899219 -3.5,-2.699219 C 35.399609,10.900781 35.5,12.1 33.5,11.5 33,11.3 32.199219,9.8 32.699219,9 c 0.5,-0.8 1.101562,-0.8992187 1.601562,-0.6992188 0.3125,0.1250001 0.976563,-0.140625 1.503907,-0.1132812 z m -4.757813,2.064453 c 0.127148,-0.05195 0.377734,0.298438 0.552734,0.648438 0.2,0.4 -0.09961,1.00039 -0.599609,0.90039 -0.5,-0.1 -0.3,-1.1 0,-1.5 0.0125,-0.025 0.02871,-0.04141 0.04687,-0.04883 z M 37.480469,14.5 c 0.486718,-0.04375 1.394922,1.137891 1.919922,1.400391 1.1,0.6 0.09883,1.50039 0.298828,1.90039 0.2,0.4 -1.498438,-0.601562 -1.898438,-1.101562 -0.4,-0.5 -1,-1.59961 -0.5,-2.09961 0.05,-0.0625 0.110157,-0.09336 0.179688,-0.09961 z m -4.4375,16.900391 C 32.463262,31.422164 31.718022,31.608766 31.142578,32 h 3.113281 c -0.188386,-0.232801 -0.359821,-0.436496 -0.455078,-0.5 -0.15,-0.075 -0.425,-0.112109 -0.757812,-0.09961 z"
       transform="matrix(0.44549929,0,0,0.32781239,-27.757783,-10.012029)"
       id="path957"
       inkscape:connector-curvature="0" />
    <path
       style="fill:#ff8c00;stroke-width:0.09824718"
       d="m 30.400391,2 -0.515625,0.1289062 c 0.171814,-0.011704 0.34381,-0.029297 0.515625,-0.029297 -0.1,0.2 0.90039,0.6 0.90039,1 0.1,0.4 0.4,0.9003906 0,0.9003906 -0.4,-0.1 -1.000781,-0.9003906 -1.300781,-1.4003906 -0.3,-0.6 -3.91e-4,0.5996094 -0.400391,1.0996094 -0.4,0.3999996 -0.70039,-0.099609 -0.40039,-0.5996094 0.3,-0.3 -0.19961,-0.600391 -0.59961,-0.9003906 -0.5,0.1 -1,0.1011718 -1.5,0.2011718 l -0.06641,0.033203 0.166016,-0.033203 c 0.1,0.4 -0.798828,0.6003907 -1.298828,0.4003906 -0.1,10e-8 -0.201172,-0.1015625 -0.201172,-0.1015624 C 15.412789,4.8926502 7.133188,12.293854 3.7070312,22 H 10.041016 C 10.504488,20.70395 11.82519,20.036635 12,19.599609 12.5,17.999609 9.5003906,18.4 9.9003906,17 c 0.2000004,-0.7 2.0992184,-1.199609 1.6992184,-1.599609 -0.1,-0.1 -1.5999992,-1.101172 -1.5,-1.201172 0.3,-0.2 1.501172,0.401562 1.201172,-0.398438 -0.2,-0.5 -0.601172,-0.9 -0.701172,-1.5 -0.3,-1.4 3.901172,-1.301562 4.701172,-1.101562 C 17.700781,11.699219 18.6,12.9 21,12 c 0.693118,-0.288799 2.412069,-0.133699 3.863281,0.271484 -0.05186,-0.02137 -0.118514,-0.05708 -0.164062,-0.07226 -0.5,-0.3 1.200781,-0.898438 0.300781,-0.898438 -0.9,0 -0.9,-0.801172 -1,-1.201172 -0.1,-0.3999988 -0.899609,0.8 -1.599609,0 -0.7,-0.7999988 0.2,-1.8003904 0,-2.4003902 -0.075,-0.2250001 0.144336,-0.28125 0.464843,-0.2636719 0.53418,0.029297 1.347657,0.2636717 1.535157,0.2636719 0.3,0 1.098828,1.2011718 1.298828,1.2011718 C 25.899219,8.9003856 27,9.9 27,9.5 27,9.1 27.200391,8.4 27.900391,8.5 29.100391,8.3 28,9.7007818 28,10.300781 c -0.1,0.5 0.899219,1.498438 1.199219,1.898438 0.3,0.4 -0.89961,0.60039 -1.09961,0.40039 -0.2,-0.3 -0.799218,7.82e-4 -1.199218,0.300782 -0.09316,0.06987 -0.232179,0.07496 -0.394532,0.04687 0.270245,0.17229 0.494672,0.354576 0.59375,0.552734 0.4,0.6 1.59961,-0.4 2.09961,-0.5 0.6,-0.1 1.701562,0.699219 2.101562,0.199219 0.9,-1.3 -0.600781,-1.798828 1.199219,-0.798828 1.3,0.7 3.700391,-2.300782 2.900391,1.199218 -0.5,2.5 -2.5,2.601172 -4,4.201172 -1.4,1.6 2.9,2.1 3,3.5 0.01918,0.268545 0.04463,0.498751 0.07813,0.699219 h 1.480468 c 0.362018,-0.813929 0.584317,-1.893702 0.341797,-2.5 -1.1,-2.9 1.298828,-2.100781 2.298828,-0.300781 0.5,1 0.89961,0.200781 1.59961,-0.199219 0.5,-0.3 0.700781,1.2 0.800781,1.5 0.211014,0.633041 0.909715,0.973461 1.240234,1.5 H 60.28125 c -1.621171,-4.577938 -4.317578,-8.644964 -7.791016,-11.910156 -0.115963,1.717117 -0.698618,2.11854 -1.189453,2.609375 -0.6,0.5 -1.70039,0.400781 -1.90039,0.800781 -0.2,0.4 -0.6,1.5 -2,1.5 -1.5,0 -0.99961,2.099219 -1.09961,2.699219 C 46.200781,18.299224 45.9,19 45.5,18.5 c -0.4,-0.6 -0.500781,-0.400391 -1.800781,-1.900391 -1.3,-1.5 -0.798438,-2.398828 -0.398438,-2.798828 0.4,-0.4 0.6,-1.500781 0,-1.300781 -0.6,0.2 -0.900781,-0.199219 -0.800781,-0.699219 0.1,-0.5 0.7,-0.90039 0,-1.40039 C 41.8,9.9003894 42.199609,7.9992184 41.599609,6.1992188 40.999609,4.4992187 40.3,5.7007816 39,5.8007812 37.7,5.9007813 37.499609,5 38.099609,4.5 38.699609,4 38.800391,3.9996094 37.900391,3.5996094 37.409736,3.4033474 37.402974,2.9194925 37.591797,2.5234375 L 37.400391,2.4003906 c -0.2,0 -0.501172,-0.099609 -0.701172,-0.099609 C 36.499219,2.8007805 36.3,3.5996094 36,3.5996094 c -0.4,0 -0.799219,0.4007812 -0.199219,0.8007812 0.6,0.4 -0.10039,1.1992188 -0.90039,0.6992188 -0.8,-0.6 -2.500391,0.1996093 -2.400391,0.5996094 0.1,0.3999997 0.7,0.5011718 1.5,0.2011718 0.8,-0.4 1.200781,3.908e-4 1.300781,0.4003906 0.1,0.3 0,0.3988282 0,0.7988282 0,0.4 -1.000781,0.1011721 -1.800781,0.2011718 -0.8,0.1 -1.599609,-0.1015626 -1.599609,-0.6015624 0,-0.4 -0.800391,-1.2996094 -1.400391,-1.5996094 -0.6,-0.3 0.200391,-1.1 0.900391,-0.5 0.7,0.6 0.7,-0.098828 1.5,-0.2988282 C 33.700391,4.1007814 32.5,3.7 33,3.5 33.476595,3.309362 33.226312,2.8223844 33.115234,2 h -0.314453 c 0,0.5 -0.8,1.2003906 -1,0.9003906 -0.1,-0.4 -0.4,-0.8003906 -1,-0.9003906 z m -4.458985,1.1113281 c 0.07324,0.010352 0.157813,0.037891 0.257813,0.087891 1,0.4999996 -0.09844,1.2003906 -0.398438,0.9003906 -0.2625,-0.2625 -0.37207,-1.0607413 0.140625,-0.9882816 z M 24.648438,3.9570312 C 25.116016,4.0048828 24.875391,5 25.400391,5 c 0.6,0 0.4,0.3992188 1,0.6992188 C 27.000391,5.9992185 26.7,4.1007814 27,4.8007812 c 0.4,0.7 1.400391,1.6984376 0.900391,1.8984376 -0.4,0.1 -2.200391,0.8011718 -2.400391,0.7011718 -0.2,-0.1 -0.400781,-0.6011721 -0.800781,-0.7011718 C 24.299219,6.5992188 23.8,5.5996094 23.5,5.5996094 23.2,5.5996094 23.600391,4.3 24.400391,4 c 0.1,-0.0375 0.181248,-0.049805 0.248047,-0.042969 z m 5.296874,0.8476563 c 0.321293,-0.023242 0.516407,1.2457031 0.253907,1.5957031 -0.3,0.4 -0.798438,0.3 -0.898438,0 -0.1,-0.3 -1.901562,-1.8 -1.101562,-1.5 0.8,0.3 1.201562,0.5 1.601562,0 0.05,-0.0625 0.09863,-0.092383 0.144531,-0.095703 z M 31,6.1992188 c 0,0 0.5,1.1999997 0,1 -0.5,-0.2000001 -0.5,-0.7000004 0,-1 z m 0.648438,1.5332031 C 32.01875,7.8121094 32.375,8.5253906 32,8.9003906 c -0.5,0.4 -0.800391,1.3000004 -0.900391,1 -0.1,-0.3 -0.198828,-1.7 0.201172,-2 0.1,-0.15 0.224217,-0.1945312 0.347657,-0.1679687 z m -1.548829,0.2558593 c 0.200977,0.03418 0.201172,0.4625003 0.201172,0.8125 0,0.4000001 0.3,0.9000007 0,1.4999998 -0.3,0.6 -0.7,-3.9e-4 -1,-0.4003904 -0.3,-0.4 -0.3,-0.7996093 0,-1.0996094 C 29.600781,8.5007814 29.5,8.1 30,8 30.0375,7.9875 30.0709,7.983398 30.09961,7.988281 Z M 35.804688,8.1875 C 36.121094,8.2039063 36.3875,8.3242188 36.5,8.6992188 c 0.3,1 1.2,2.3015622 2,2.6015622 0.8,0.3 -3.91e-4,1.39961 0.599609,1.59961 0.6,0.2 1.701172,0.898828 1.701172,1.298828 0,0.4 -0.501172,0.900781 -0.701172,0.800781 -1.5,-0.4 -2.8,-1.899219 -3.5,-2.699219 C 35.399609,10.900781 35.5,12.1 33.5,11.5 33,11.3 32.199219,9.8 32.699219,9 c 0.5,-0.8 1.101562,-0.8992187 1.601562,-0.6992188 0.3125,0.1250001 0.976563,-0.140625 1.503907,-0.1132812 z m -4.757813,2.064453 c 0.127148,-0.05195 0.377734,0.298438 0.552734,0.648438 0.2,0.4 -0.09961,1.00039 -0.599609,0.90039 -0.5,-0.1 -0.3,-1.1 0,-1.5 0.0125,-0.025 0.02871,-0.04141 0.04687,-0.04883 z M 37.480469,14.5 c 0.486718,-0.04375 1.394922,1.137891 1.919922,1.400391 1.1,0.6 0.09883,1.50039 0.298828,1.90039 0.2,0.4 -1.498438,-0.601562 -1.898438,-1.101562 -0.4,-0.5 -1,-1.59961 -0.5,-2.09961 0.05,-0.0625 0.110157,-0.09336 0.179688,-0.09961 z m -21.38086,3.599609 c -1.6,0 -1.499218,3.300391 -2.699218,2.900391 -0.841406,-0.300502 -1.889654,0.421191 -2.628907,1 h 9.675782 c -1.12124,-1.797638 -1.834368,-3.900391 -4.347657,-3.900391 z"
       transform="matrix(0.44549929,0,0,0.32781239,-27.757783,-10.012029)"
       id="path959"
       inkscape:connector-curvature="0" />
    <path
       style="fill:#e40303;stroke-width:0.09824718"
       d="m 30.400391,2 -0.515625,0.1289062 c 0.171814,-0.011704 0.34381,-0.029297 0.515625,-0.029297 -0.1,0.2 0.90039,0.6 0.90039,1 0.1,0.4 0.4,0.9003906 0,0.9003906 -0.4,-0.1 -1.000781,-0.9003906 -1.300781,-1.4003906 -0.3,-0.6 -3.91e-4,0.5996094 -0.400391,1.0996094 -0.4,0.3999996 -0.70039,-0.099609 -0.40039,-0.5996094 0.3,-0.3 -0.19961,-0.600391 -0.59961,-0.9003906 -0.5,0.1 -1,0.1011718 -1.5,0.2011718 l -0.06641,0.033203 0.166016,-0.033203 c 0.1,0.4 -0.798828,0.6003907 -1.298828,0.4003906 -0.1,10e-8 -0.201172,-0.1015625 -0.201172,-0.1015624 C 19.364185,4.0500731 13.791678,7.3772796 9.6425781,12 h 0.9746099 c 0.330359,-1.08069 3.946467,-0.985063 4.683593,-0.800781 C 16.338504,11.415411 17.08337,11.748413 17.802734,12 H 21 c 0.502201,-0.209251 1.549006,-0.180154 2.638672,0 h 0.996094 C 24.768082,11.691114 25.72829,11.300781 25,11.300781 c -0.9,0 -0.9,-0.801172 -1,-1.201172 -0.1,-0.3999988 -0.899609,0.8 -1.599609,0 -0.7,-0.7999988 0.2,-1.8003904 0,-2.4003902 -0.2,-0.6000001 1.7,0 2,0 0.3,0 1.098828,1.2011718 1.298828,1.2011718 C 25.899219,8.9003906 27,9.9 27,9.5 27,9.1 27.200391,8.4 27.900391,8.5 29.100391,8.3 28,9.7007818 28,10.300781 27.910928,10.746144 28.650816,11.538609 29.035156,12 h 2.541016 c -0.03497,-0.14365 0.01394,-0.136433 0.240234,0 h 2.792969 c 0.360342,-0.136106 0.664278,-0.19552 0.822266,0 H 36.3125 C 35.411468,11.124937 35.317791,12.045337 33.5,11.5 33,11.3 32.199219,9.8 32.699219,9 c 0.5,-0.8 1.101562,-0.8992188 1.601562,-0.6992188 0.5,0.2000001 1.899219,-0.6015624 2.199219,0.3984376 0.3,1 1.2,2.3015622 2,2.6015622 0.345741,0.129653 0.388688,0.407949 0.378906,0.699219 h 3.619141 c -0.0018,-0.06606 -0.01252,-0.127588 0.002,-0.199219 0.1,-0.5 0.7,-0.90039 0,-1.40039 C 41.799859,9.9003894 42.199609,7.9992184 41.599609,6.1992188 40.999609,4.4992187 40.3,5.7007816 39,5.8007812 37.7,5.9007813 37.499609,5 38.099609,4.5 38.699609,4 38.800391,3.9996094 37.900391,3.5996094 37.409736,3.4033474 37.402974,2.9194925 37.591797,2.5234375 L 37.400391,2.4003906 c -0.2,0 -0.501172,-0.099609 -0.701172,-0.099609 C 36.499219,2.8007805 36.3,3.5996094 36,3.5996094 c -0.4,0 -0.799219,0.4007812 -0.199219,0.8007812 0.6,0.4 -0.10039,1.1992188 -0.90039,0.6992188 -0.8,-0.6 -2.500391,0.1996093 -2.400391,0.5996094 0.1,0.3999997 0.7,0.5011718 1.5,0.2011718 0.8,-0.4 1.200781,3.908e-4 1.300781,0.4003906 0.1,0.3 0,0.3988282 0,0.7988282 0,0.4 -1.000781,0.1011721 -1.800781,0.2011718 -0.8,0.1 -1.599609,-0.1015626 -1.599609,-0.6015624 0,-0.4 -0.800391,-1.2996094 -1.400391,-1.5996094 -0.6,-0.3 0.200391,-1.1 0.900391,-0.5 0.7,0.6 0.7,-0.098828 1.5,-0.2988282 C 33.700391,4.1007814 32.5,3.7 33,3.5 33.476595,3.309362 33.226312,2.8223844 33.115234,2 h -0.314453 c 0,0.5 -0.8,1.2003906 -1,0.9003906 -0.1,-0.4 -0.4,-0.8003906 -1,-0.9003906 z m -4.458985,1.1113281 c 0.07324,0.010352 0.157813,0.037891 0.257813,0.087891 1,0.4999996 -0.09844,1.2003906 -0.398438,0.9003906 -0.2625,-0.2625 -0.37207,-1.0607413 0.140625,-0.9882816 z M 24.648438,3.9570312 C 25.116016,4.0048828 24.875391,5 25.400391,5 c 0.6,0 0.4,0.3992188 1,0.6992188 C 27.000391,5.9992185 26.7,4.1007814 27,4.8007812 c 0.4,0.7 1.400391,1.6984376 0.900391,1.8984376 -0.4,0.1 -2.200391,0.8011718 -2.400391,0.7011718 -0.2,-0.1 -0.400781,-0.6011721 -0.800781,-0.7011718 C 24.299219,6.5992188 23.8,5.5996094 23.5,5.5996094 23.2,5.5996094 23.600391,4.3 24.400391,4 c 0.1,-0.0375 0.181248,-0.049805 0.248047,-0.042969 z m 5.296874,0.8476563 c 0.321293,-0.023242 0.516407,1.2457031 0.253907,1.5957031 -0.3,0.4 -0.798438,0.3 -0.898438,0 -0.1,-0.3 -1.901562,-1.8 -1.101562,-1.5 0.8,0.3 1.201562,0.5 1.601562,0 0.05,-0.0625 0.09863,-0.092383 0.144531,-0.095703 z M 31,6.1992188 c 0,0 0.5,1.1999997 0,1 -0.5,-0.2000001 -0.5,-0.7000004 0,-1 z m 0.648438,1.5332031 C 32.01875,7.8121094 32.375,8.5253906 32,8.9003906 c -0.5,0.4 -0.800391,1.3000004 -0.900391,1 -0.1,-0.3 -0.198828,-1.7 0.201172,-2 0.1,-0.15 0.224217,-0.1945312 0.347657,-0.1679687 z m -1.548829,0.2558593 c 0.200977,0.03418 0.201172,0.4625003 0.201172,0.8125 0,0.4000001 0.3,0.9000007 0,1.4999998 -0.3,0.6 -0.7,-3.9e-4 -1,-0.4003904 -0.3,-0.4 -0.3,-0.7996093 0,-1.0996094 C 29.600781,8.5007814 29.5,8.1 30,8 30.0375,7.9875 30.0709,7.983398 30.09961,7.988281 Z M 52.490234,10.089844 C 52.423422,11.079168 52.198848,11.617396 51.927734,12 h 2.423828 c -0.592535,-0.663291 -1.213363,-1.300517 -1.861328,-1.910156 z m -21.443359,0.162109 c 0.127148,-0.05195 0.377734,0.298438 0.552734,0.648438 0.2,0.4 -0.09961,1.00039 -0.599609,0.90039 -0.5,-0.1 -0.3,-1.1 0,-1.5 0.0125,-0.025 0.02871,-0.04141 0.04687,-0.04883 z"
       transform="matrix(0.44549929,0,0,0.32781239,-27.757783,-10.012029)"
       id="path961"
       inkscape:connector-curvature="0" />
  </g>
  <g
     id="g883"
     style="display:inline;fill:#ffc942"
     transform="translate(-2.0000006,-2.0000015)" />
</svg>
