<?xml version="1.0" encoding="UTF-8" standalone="no"?>
<svg
   xmlns:dc="http://purl.org/dc/elements/1.1/"
   xmlns:cc="http://creativecommons.org/ns#"
   xmlns:rdf="http://www.w3.org/1999/02/22-rdf-syntax-ns#"
   xmlns:svg="http://www.w3.org/2000/svg"
   xmlns="http://www.w3.org/2000/svg"
   xmlns:sodipodi="http://sodipodi.sourceforge.net/DTD/sodipodi-0.dtd"
   xmlns:inkscape="http://www.inkscape.org/namespaces/inkscape"
   version="1.1"
   id="library-15"
   width="15px"
   height="15px"
   viewBox="0 0 15 15"
   sodipodi:docname="library.svg"
   inkscape:version="0.92.5 (2060ec1f9f, 2020-04-08)">
  <metadata
     id="metadata9">
    <rdf:RDF>
      <cc:Work
         rdf:about="">
        <dc:format>image/svg+xml</dc:format>
        <dc:type
           rdf:resource="http://purl.org/dc/dcmitype/StillImage" />
      </cc:Work>
    </rdf:RDF>
  </metadata>
  <defs
     id="defs7" />
  <sodipodi:namedview
     pagecolor="#ffffff"
     bordercolor="#666666"
     borderopacity="1"
     objecttolerance="10"
     gridtolerance="10"
     guidetolerance="10"
     inkscape:pageopacity="0"
     inkscape:pageshadow="2"
     inkscape:window-width="1366"
     inkscape:window-height="741"
     id="namedview5"
     showgrid="false"
     inkscape:zoom="15.733333"
     inkscape:cx="-13.855932"
     inkscape:cy="7.4999996"
     inkscape:window-x="0"
     inkscape:window-y="27"
     inkscape:window-maximized="1"
     inkscape:current-layer="library-15" />
  <path
     d="M7.47,4.92C7.47,4.92,5.7,3,1,3v8c4.7,0,6.47,2,6.47,2S9.3,11,14,11V3C9.3,3,7.47,4.92,7.47,4.92z M13,10  c-1.9614,0.0492-3.8727,0.6299-5.53,1.68C5.836,10.6273,3.9432,10.0459,2,10V4c3.4,0.26,4.73,1.6,4.75,1.61l0.73,0.74L8.2,5.6  c0,0,1.4-1.34,4.8-1.6V10z M8,10.24l-0.1-0.17c1.3011-0.5931,2.6827-0.9907,4.1-1.18v0.2c-1.3839,0.1953-2.7316,0.5929-4,1.18V10.24  z M8,9.24L7.9,9.07C9.2016,8.4802,10.5832,8.086,12,7.9v0.2c-1.3844,0.1988-2.7321,0.5997-4,1.19V9.24z M8,8.24L7.9,8.07  C9.2015,7.48,10.5831,7.0857,12,6.9v0.2c-1.3845,0.1981-2.7323,0.599-4,1.19V8.24z M8,7.24L7.9,7.07  C9.2013,6.4794,10.583,6.0851,12,5.9v0.2c-1.3844,0.1986-2.7321,0.5996-4,1.19V7.24z M6.9,10.24C5.6639,9.6641,4.3499,9.2733,3,9.08  v-0.2c1.3872,0.2028,2.7358,0.6141,4,1.22L6.9,10.24z M6.9,9.24C5.6629,8.671,4.3488,8.2869,3,8.1V7.9  c1.386,0.2027,2.7341,0.6105,4,1.21L6.9,9.24z M6.9,8.24C5.6631,7.6705,4.3489,7.2863,3,7.1V6.9c1.3868,0.199,2.7354,0.607,4,1.21  L6.9,8.24z M6.9,7.24C5.6629,6.671,4.3488,6.2869,3,6.1V5.9c1.386,0.2024,2.7342,0.6102,4,1.21L6.9,7.24z"
     id="path2"
     style="fill:#f1f70d;fill-opacity:1;stroke:none;stroke-opacity:1;stroke-width:0.2;stroke-miterlimit:4;stroke-dasharray:none" />
</svg>
