<?xml version="1.0" encoding="UTF-8" standalone="no"?>
<svg
   xmlns:dc="http://purl.org/dc/elements/1.1/"
   xmlns:cc="http://creativecommons.org/ns#"
   xmlns:rdf="http://www.w3.org/1999/02/22-rdf-syntax-ns#"
   xmlns:svg="http://www.w3.org/2000/svg"
   xmlns="http://www.w3.org/2000/svg"
   xmlns:sodipodi="http://sodipodi.sourceforge.net/DTD/sodipodi-0.dtd"
   xmlns:inkscape="http://www.inkscape.org/namespaces/inkscape"
   version="1.1"
   id="library-15"
   width="13"
   height="10"
   viewBox="0 0 13 10"
   sodipodi:docname="library.svg"
   inkscape:version="0.92.5 (2060ec1f9f, 2020-04-08)">
  <metadata
     id="metadata9">
    <rdf:RDF>
      <cc:Work
         rdf:about="">
        <dc:format>image/svg+xml</dc:format>
        <dc:type
           rdf:resource="http://purl.org/dc/dcmitype/StillImage" />
        <dc:title></dc:title>
      </cc:Work>
    </rdf:RDF>
  </metadata>
  <defs
     id="defs7" />
  <sodipodi:namedview
     pagecolor="#ffffff"
     bordercolor="#666666"
     borderopacity="1"
     objecttolerance="10"
     gridtolerance="10"
     guidetolerance="10"
     inkscape:pageopacity="0"
     inkscape:pageshadow="2"
     inkscape:window-width="1366"
     inkscape:window-height="741"
     id="namedview5"
     showgrid="false"
     inkscape:zoom="7.8666667"
     inkscape:cx="-43.589472"
     inkscape:cy="2.3888251"
     inkscape:window-x="0"
     inkscape:window-y="27"
     inkscape:window-maximized="1"
     inkscape:current-layer="library-15"
     fit-margin-top="0"
     fit-margin-left="0"
     fit-margin-right="0"
     fit-margin-bottom="0" />
  <path
     d="M 6.47,1.92 C 6.47,1.92 4.7,0 0,0 v 8 c 4.7,0 6.47,2 6.47,2 0,0 1.83,-2 6.53,-2 V 0 C 8.3,0 6.47,1.92 6.47,1.92 Z M 12,7 C 10.0386,7.0492 8.1273,7.6299 6.47,8.68 4.836,7.6273 2.9432,7.0459 1,7 V 1 C 4.4,1.26 5.73,2.6 5.75,2.61 L 6.48,3.35 7.2,2.6 C 7.2,2.6 8.6,1.26 12,1 Z M 7,7.24 6.9,7.07 C 8.2011,6.4769 9.5827,6.0793 11,5.89 v 0.2 C 9.6161,6.2853 8.2684,6.6829 7,7.27 Z M 7,6.24 6.9,6.07 C 8.2016,5.4802 9.5832,5.086 11,4.9 V 5.1 C 9.6156,5.2988 8.2679,5.6997 7,6.29 Z M 7,5.24 6.9,5.07 C 8.2015,4.48 9.5831,4.0857 11,3.9 V 4.1 C 9.6155,4.2981 8.2677,4.699 7,5.29 Z M 7,4.24 6.9,4.07 C 8.2013,3.4794 9.583,3.0851 11,2.9 V 3.1 C 9.6156,3.2986 8.2679,3.6996 7,4.29 Z m -1.1,3 C 4.6639,6.6641 3.3499,6.2733 2,6.08 V 5.88 C 3.3872,6.0828 4.7358,6.4941 6,7.1 Z m 0,-1 C 4.6629,5.671 3.3488,5.2869 2,5.1 V 4.9 c 1.386,0.2027 2.7341,0.6105 4,1.21 z m 0,-1 C 4.6631,4.6705 3.3489,4.2863 2,4.1 V 3.9 c 1.3868,0.199 2.7354,0.607 4,1.21 z m 0,-1 C 4.6629,3.671 3.3488,3.2869 2,3.1 V 2.9 c 1.386,0.2024 2.7342,0.6102 4,1.21 z"
     id="path2"
     style="fill:#9dd93b;fill-opacity:1;stroke:none;stroke-width:0.2;stroke-miterlimit:4;stroke-dasharray:none;stroke-opacity:1"
     inkscape:connector-curvature="0" />
</svg>
