<?xml version="1.0" encoding="UTF-8" standalone="no"?>
<svg
   xmlns:dc="http://purl.org/dc/elements/1.1/"
   xmlns:cc="http://creativecommons.org/ns#"
   xmlns:rdf="http://www.w3.org/1999/02/22-rdf-syntax-ns#"
   xmlns:svg="http://www.w3.org/2000/svg"
   xmlns="http://www.w3.org/2000/svg"
   xmlns:sodipodi="http://sodipodi.sourceforge.net/DTD/sodipodi-0.dtd"
   xmlns:inkscape="http://www.inkscape.org/namespaces/inkscape"
   viewBox="0 0 22 32"
   version="1.1"
   id="svg927"
   sodipodi:docname="lightbulb-light.svg"
   width="22"
   height="32"
   inkscape:version="0.92.5 (2060ec1f9f, 2020-04-08)">
  <metadata
     id="metadata933">
    <rdf:RDF>
      <cc:Work
         rdf:about="">
        <dc:format>image/svg+xml</dc:format>
        <dc:type
           rdf:resource="http://purl.org/dc/dcmitype/StillImage" />
        <dc:title></dc:title>
      </cc:Work>
    </rdf:RDF>
  </metadata>
  <defs
     id="defs931" />
  <sodipodi:namedview
     pagecolor="#ffffff"
     bordercolor="#666666"
     borderopacity="1"
     objecttolerance="10"
     gridtolerance="10"
     guidetolerance="10"
     inkscape:pageopacity="0"
     inkscape:pageshadow="2"
     inkscape:window-width="1366"
     inkscape:window-height="741"
     id="namedview929"
     showgrid="false"
     fit-margin-top="0"
     fit-margin-left="0"
     fit-margin-right="0"
     fit-margin-bottom="0"
     inkscape:zoom="9.40625"
     inkscape:cx="17.015173"
     inkscape:cy="13.037572"
     inkscape:window-x="0"
     inkscape:window-y="27"
     inkscape:window-maximized="1"
     inkscape:current-layer="svg927" />
  <!--! Font Awesome Pro 6.2.1 by @fontawesome - https://fontawesome.com License - https://fontawesome.com/license (Commercial License) Copyright 2022 Fonticons, Inc. -->
  <path
     d="m 16,24 c 0.6,-1.99375 1.84375,-3.69375 3.075,-5.3875 v 0 C 19.4,18.16875 19.725,17.725 20.0375,17.275 21.275,15.49375 22,13.3375 22,11.00625 22,4.925 17.075,0 11,0 4.925,0 0,4.925 0,11 c 0,2.33125 0.725,4.49375 1.9625,6.26875 0.3125,0.45 0.6375,0.89375 0.9625,1.3375 v 0 c 1.2375,1.69375 2.48125,3.4 3.075,5.3875 h 10 z m -5,8 c 2.7625,0 5,-2.2375 5,-5 V 26 H 6 v 1 c 0,2.7625 2.2375,5 5,5 z M 6,11 C 6,11.55 5.55,12 5,12 4.45,12 4,11.55 4,11 4,7.13125 7.13125,4 11,4 c 0.55,0 1,0.45 1,1 0,0.55 -0.45,1 -1,1 -2.7625,0 -5,2.2375 -5,5 z"
     id="path925"
     style="fill:#ffffff;stroke-width:0.0625"
     inkscape:connector-curvature="0" />
</svg>
