<?xml version="1.0" encoding="UTF-8" standalone="no"?>
<svg
   xmlns:dc="http://purl.org/dc/elements/1.1/"
   xmlns:cc="http://creativecommons.org/ns#"
   xmlns:rdf="http://www.w3.org/1999/02/22-rdf-syntax-ns#"
   xmlns:svg="http://www.w3.org/2000/svg"
   xmlns="http://www.w3.org/2000/svg"
   xmlns:sodipodi="http://sodipodi.sourceforge.net/DTD/sodipodi-0.dtd"
   xmlns:inkscape="http://www.inkscape.org/namespaces/inkscape"
   viewBox="0 0 22 32"
   version="1.1"
   id="svg927"
   sodipodi:docname="lightbulb-dark.svg"
   width="22"
   height="32"
   inkscape:version="0.92.5 (2060ec1f9f, 2020-04-08)">
  <metadata
     id="metadata933">
    <rdf:RDF>
      <cc:Work
         rdf:about="">
        <dc:format>image/svg+xml</dc:format>
        <dc:type
           rdf:resource="http://purl.org/dc/dcmitype/StillImage" />
        <dc:title></dc:title>
      </cc:Work>
    </rdf:RDF>
  </metadata>
  <defs
     id="defs931" />
  <sodipodi:namedview
     pagecolor="#ffffff"
     bordercolor="#666666"
     borderopacity="1"
     objecttolerance="10"
     gridtolerance="10"
     guidetolerance="10"
     inkscape:pageopacity="0"
     inkscape:pageshadow="2"
     inkscape:window-width="1366"
     inkscape:window-height="741"
     id="namedview929"
     showgrid="true"
     inkscape:zoom="9.40625"
     inkscape:cx="21.759663"
     inkscape:cy="13.762931"
     inkscape:window-x="0"
     inkscape:window-y="27"
     inkscape:window-maximized="1"
     inkscape:current-layer="svg927"
     fit-margin-top="0"
     fit-margin-left="0"
     fit-margin-right="0"
     fit-margin-bottom="0">
    <inkscape:grid
       type="xygrid"
       id="grid979" />
  </sodipodi:namedview>
  <!--! Font Awesome Pro 6.2.1 by @fontawesome - https://fontawesome.com License - https://fontawesome.com/license (Commercial License) Copyright 2022 Fonticons, Inc. -->
  <path
     style="fill:#ffffff;stroke-width:0.0625"
     d="M 11 0.080078125 C 4.925 0.080078125 0 4.925 0 11 C 0 13.33125 0.72539063 15.494531 1.9628906 17.269531 C 2.2753906 17.719531 2.6007813 18.161719 2.9257812 18.605469 C 4.1632812 20.299219 5.40625 22.006641 6 23.994141 L 16 23.994141 L 16 24 C 16.6 22.00625 17.842969 20.307031 19.074219 18.613281 C 19.399219 18.169531 19.724609 17.725391 20.037109 17.275391 C 21.274609 15.494141 22 13.337109 22 11.005859 C 22 4.9246094 17.075 0.080078125 11 0.080078125 z M 11 2.4726562 C 15.86 2.4726563 19.800781 6.3478904 19.800781 11.212891 C 19.800781 13.077892 19.22047 14.803516 18.230469 16.228516 C 17.980469 16.588515 17.720938 16.943828 17.460938 17.298828 C 16.475938 18.653828 15.480001 20.012422 15 21.607422 L 15 21.603516 L 7 21.603516 C 6.5250001 20.013516 5.5290625 18.647969 4.5390625 17.292969 C 4.2790624 16.937969 4.0195314 16.582655 3.7695312 16.222656 C 2.7795313 14.802656 2.1992188 13.072032 2.1992188 11.207031 C 2.1992188 6.3470311 6.1399996 2.4726562 11 2.4726562 z "
     id="path1043" />
  <path
     style="fill:#ffffff;stroke-width:0.0625"
     d="m 11,32 c 2.7625,0 5,-2.2375 5,-5 V 26 H 6 v 1 c 0,2.7625 2.2375,5 5,5 z"
     id="path1041" />
  <path
     style="fill:#000000;stroke-width:0.0625"
     d="m 50,27 c 0.6,-1.99375 1.84375,-3.69375 3.075,-5.3875 v 0 C 53.4,21.16875 53.725,20.725 54.0375,20.275 55.275,18.49375 56,16.3375 56,14.00625 56,7.925 51.075,3 45,3 38.925,3 34,7.925 34,14 c 0,2.33125 0.725,4.49375 1.9625,6.26875 0.3125,0.45 0.6375,0.89375 0.9625,1.3375 v 0 c 1.2375,1.69375 2.48125,3.4 3.075,5.3875 h 10 z"
     id="path1116"
     inkscape:connector-curvature="0" />
  <path
     style="fill:#000000;stroke-width:0.0625"
     d="m 45,35 c 2.7625,0 5,-2.2375 5,-5 V 29 H 40 v 1 c 0,2.7625 2.2375,5 5,5 z"
     id="path1114"
     inkscape:connector-curvature="0" />
  <path
     style="fill:#ffffff;stroke-width:0.0625"
     d="M 6,11 C 6,11.55 5.55,12 5,12 4.45,12 4,11.55 4,11 4,7.13125 7.13125,4 11,4 c 0.55,0 1,0.45 1,1 0,0.55 -0.45,1 -1,1 -2.7625,0 -5,2.2375 -5,5 z"
     id="path925"
     inkscape:connector-curvature="0" />
</svg>
