<?xml version="1.0" encoding="UTF-8" standalone="no"?>
<svg
   xmlns:dc="http://purl.org/dc/elements/1.1/"
   xmlns:cc="http://creativecommons.org/ns#"
   xmlns:rdf="http://www.w3.org/1999/02/22-rdf-syntax-ns#"
   xmlns:svg="http://www.w3.org/2000/svg"
   xmlns="http://www.w3.org/2000/svg"
   xmlns:sodipodi="http://sodipodi.sourceforge.net/DTD/sodipodi-0.dtd"
   xmlns:inkscape="http://www.inkscape.org/namespaces/inkscape"
   version="1.1"
   id="lodging-15"
   width="15px"
   height="15px"
   viewBox="0 0 15 15"
   sodipodi:docname="lodging.svg"
   inkscape:version="0.92.5 (2060ec1f9f, 2020-04-08)">
  <metadata
     id="metadata8">
    <rdf:RDF>
      <cc:Work
         rdf:about="">
        <dc:format>image/svg+xml</dc:format>
        <dc:type
           rdf:resource="http://purl.org/dc/dcmitype/StillImage" />
      </cc:Work>
    </rdf:RDF>
  </metadata>
  <defs
     id="defs6" />
  <sodipodi:namedview
     pagecolor="#ffffff"
     bordercolor="#666666"
     borderopacity="1"
     objecttolerance="10"
     gridtolerance="10"
     guidetolerance="10"
     inkscape:pageopacity="0"
     inkscape:pageshadow="2"
     inkscape:window-width="1366"
     inkscape:window-height="741"
     id="namedview4"
     showgrid="false"
     inkscape:zoom="15.733333"
     inkscape:cx="7.5"
     inkscape:cy="7.5"
     inkscape:window-x="0"
     inkscape:window-y="27"
     inkscape:window-maximized="1"
     inkscape:current-layer="lodging-15" />
  <path
     id="rect6507"
     d="M0.5,2.5C0.2,2.5,0,2.7,0,3v7.5v2C0,12.8,0.2,13,0.5,13S1,12.8,1,12.5V11h13v1.5
	c0,0.3,0.2,0.5,0.5,0.5s0.5-0.2,0.5-0.5v-2c0-0.3-0.2-0.5-0.5-0.5H1V3C1,2.7,0.8,2.5,0.5,2.5z M3.5,3C2.7,3,2,3.7,2,4.5l0,0
	C2,5.3,2.7,6,3.5,6l0,0C4.3,6,5,5.3,5,4.5l0,0C5,3.7,4.3,3,3.5,3L3.5,3z M7,4C5.5,4,5.5,5.5,5.5,5.5V7h-3C2.2,7,2,7.2,2,7.5v1
	C2,8.8,2.2,9,2.5,9H6h9V6.5C15,4,12.5,4,12.5,4H7z"
     style="fill:#b3ff37;fill-opacity:1" />
</svg>
