<?xml version="1.0" encoding="UTF-8" standalone="no"?>
<svg
   xmlns:dc="http://purl.org/dc/elements/1.1/"
   xmlns:cc="http://creativecommons.org/ns#"
   xmlns:rdf="http://www.w3.org/1999/02/22-rdf-syntax-ns#"
   xmlns:svg="http://www.w3.org/2000/svg"
   xmlns="http://www.w3.org/2000/svg"
   xmlns:sodipodi="http://sodipodi.sourceforge.net/DTD/sodipodi-0.dtd"
   xmlns:inkscape="http://www.inkscape.org/namespaces/inkscape"
   version="1.1"
   id="lodging-15"
   width="15"
   height="10.5"
   viewBox="0 0 15 10.5"
   sodipodi:docname="lodging.svg"
   inkscape:version="0.92.5 (2060ec1f9f, 2020-04-08)">
  <metadata
     id="metadata8">
    <rdf:RDF>
      <cc:Work
         rdf:about="">
        <dc:format>image/svg+xml</dc:format>
        <dc:type
           rdf:resource="http://purl.org/dc/dcmitype/StillImage" />
        <dc:title></dc:title>
      </cc:Work>
    </rdf:RDF>
  </metadata>
  <defs
     id="defs6" />
  <sodipodi:namedview
     pagecolor="#ffffff"
     bordercolor="#666666"
     borderopacity="1"
     objecttolerance="10"
     gridtolerance="10"
     guidetolerance="10"
     inkscape:pageopacity="0"
     inkscape:pageshadow="2"
     inkscape:window-width="1366"
     inkscape:window-height="741"
     id="namedview4"
     showgrid="false"
     inkscape:zoom="15.733333"
     inkscape:cx="-13.919492"
     inkscape:cy="5.4999996"
     inkscape:window-x="0"
     inkscape:window-y="27"
     inkscape:window-maximized="1"
     inkscape:current-layer="lodging-15"
     fit-margin-top="0"
     fit-margin-left="0"
     fit-margin-right="0"
     fit-margin-bottom="0" />
  <path
     id="rect6507"
     d="M 0.5,0 C 0.2,0 0,0.2 0,0.5 V 8 10 c 0,0.3 0.2,0.5 0.5,0.5 C 0.8,10.5 1,10.3 1,10 V 8.5 H 14 V 10 c 0,0.3 0.2,0.5 0.5,0.5 0.3,0 0.5,-0.2 0.5,-0.5 V 8 C 15,7.7 14.8,7.5 14.5,7.5 H 1 v -7 C 1,0.2 0.8,0 0.5,0 Z m 3,0.5 C 2.7,0.5 2,1.2 2,2 v 0 c 0,0.8 0.7,1.5 1.5,1.5 v 0 C 4.3,3.5 5,2.8 5,2 V 2 C 5,1.2 4.3,0.5 3.5,0.5 Z M 7,1.5 C 5.5,1.5 5.5,3 5.5,3 v 1.5 h -3 C 2.2,4.5 2,4.7 2,5 V 6 C 2,6.3 2.2,6.5 2.5,6.5 H 6 15 V 4 C 15,1.5 12.5,1.5 12.5,1.5 Z"
     style="fill:#56d948;fill-opacity:1"
     inkscape:connector-curvature="0" />
</svg>
