<?xml version="1.0" encoding="UTF-8" standalone="no"?>
<!-- Created with Inkscape (http://www.inkscape.org/) -->

<svg
   xmlns:dc="http://purl.org/dc/elements/1.1/"
   xmlns:cc="http://creativecommons.org/ns#"
   xmlns:rdf="http://www.w3.org/1999/02/22-rdf-syntax-ns#"
   xmlns:svg="http://www.w3.org/2000/svg"
   xmlns="http://www.w3.org/2000/svg"
   xmlns:sodipodi="http://sodipodi.sourceforge.net/DTD/sodipodi-0.dtd"
   xmlns:inkscape="http://www.inkscape.org/namespaces/inkscape"
   width="130mm"
   height="130mm"
   viewBox="0 0 130 130"
   version="1.1"
   id="svg8"
   inkscape:version="0.92.5 (2060ec1f9f, 2020-04-08)"
   sodipodi:docname="mural.svg">
  <defs
     id="defs2">
    <inkscape:path-effect
       effect="bspline"
       id="path-effect1737"
       is_visible="true"
       weight="33.333333"
       steps="2"
       helper_size="0"
       apply_no_weight="true"
       apply_with_weight="true"
       only_selected="false" />
  </defs>
  <sodipodi:namedview
     id="base"
     pagecolor="#ffffff"
     bordercolor="#666666"
     borderopacity="1.0"
     inkscape:pageopacity="0.0"
     inkscape:pageshadow="2"
     inkscape:zoom="1.4"
     inkscape:cx="174.25184"
     inkscape:cy="243.71137"
     inkscape:document-units="mm"
     inkscape:current-layer="layer1"
     showgrid="false"
     fit-margin-top="0"
     fit-margin-left="0"
     fit-margin-right="0"
     fit-margin-bottom="0"
     inkscape:window-width="1366"
     inkscape:window-height="741"
     inkscape:window-x="0"
     inkscape:window-y="27"
     inkscape:window-maximized="1"
     showguides="false" />
  <metadata
     id="metadata5">
    <rdf:RDF>
      <cc:Work
         rdf:about="">
        <dc:format>image/svg+xml</dc:format>
        <dc:type
           rdf:resource="http://purl.org/dc/dcmitype/StillImage" />
        <dc:title />
      </cc:Work>
    </rdf:RDF>
  </metadata>
  <g
     inkscape:label="Layer 1"
     inkscape:groupmode="layer"
     id="layer1"
     transform="translate(-36.297622,-95.928558)">
    <circle
       style="opacity:1;fill:#ffffff;fill-opacity:1;stroke:#6b1b10;stroke-width:1.88649583;stroke-linecap:square;stroke-linejoin:miter;stroke-miterlimit:1;stroke-dasharray:none;stroke-opacity:0;paint-order:markers stroke fill"
       id="path1030"
       cx="101.32079"
       cy="160.9054"
       r="64.822914" />
    <path
       style="opacity:1;fill:#784421;fill-opacity:1;stroke:none;stroke-width:49.96657181;stroke-linecap:round;stroke-linejoin:round;stroke-miterlimit:4;stroke-dasharray:none;stroke-opacity:1;paint-order:normal"
       d="M 245.66992 0 A 245.66929 245.66929 0 0 0 0 245.66992 A 245.66929 245.66929 0 0 0 245.66992 491.33789 A 245.66929 245.66929 0 0 0 491.33789 245.66992 A 245.66929 245.66929 0 0 0 245.66992 0 z M 245.66992 18.898438 A 226.77165 226.77165 0 0 1 472.44141 245.66992 A 226.77165 226.77165 0 0 1 245.66992 472.44141 A 226.77165 226.77165 0 0 1 18.898438 245.66992 A 226.77165 226.77165 0 0 1 245.66992 18.898438 z "
       transform="matrix(0.26458333,0,0,0.26458333,36.297622,95.928558)"
       id="path815" />
    <g
       id="g4848"
       transform="matrix(0.25853569,0,0,0.25853569,33.364002,108.53014)"
       style="fill:#784421;stroke:#784421;stroke-width:4.42762089;stroke-miterlimit:4;stroke-dasharray:none;stroke-opacity:1" />
    <g
       id="g1560"
       transform="matrix(-1.1306142,0,0,0.88661031,232.55489,17.369035)">
      <path
         sodipodi:nodetypes="cccccccc"
         inkscape:connector-curvature="0"
         style="fill:#784421;stroke:#784421;stroke-width:4.42762089;stroke-miterlimit:4;stroke-dasharray:none;stroke-opacity:1"
         d="m 459.03291,273.54886 -0.77128,-29.313 -50.27419,-67.15157 -42.91987,54.4212 C 350.22509,206.42938 282.46571,107.42393 282.46571,107.42393 l -65.06493,114.47513 -0.93821,147.28577 z"
         id="path4234"
         transform="matrix(0.25853569,0,0,0.25853569,33.364002,108.53014)" />
      <path
         sodipodi:nodetypes="ssscs"
         inkscape:connector-curvature="0"
         style="fill:#784421;stroke:#784421;stroke-width:1.7082113;stroke-miterlimit:4;stroke-dasharray:none;stroke-opacity:1"
         d="m 129.65795,149.11897 c 2.62738,0 4.74396,-2.9681 4.74396,-6.59597 0,-3.65318 -2.11658,-6.59617 -4.74396,-6.59617 -2.60947,0 -4.74426,2.94299 -4.74426,6.59617 1.7e-4,3.62787 2.13493,6.59597 4.74426,6.59597 z"
         id="path4236" />
      <path
         sodipodi:nodetypes="ccccsscccccccc"
         id="path983"
         d="m 153.96977,129.82204 c 0.94282,0.43614 1.55331,1.37292 1.57159,2.41157 l -0.23425,46.81782 c -0.0962,0.95905 -0.69465,1.7948 -1.57159,2.19481 l -65.184408,28.48977 c -1.38124,0.60369 -2.715917,-1.21316 -2.70964,-2.70964 l 0.379259,-90.41387 c 0.04358,-1.4542 1.227755,-2.61446 2.68254,-2.62835 z m -3.82059,3.98316 -58.762464,-13.58266 v 81.69564 l 58.663694,-24.68221 z"
         style="fill:#784421;stroke-width:2.70963979"
         inkscape:connector-curvature="0" />
    </g>
  </g>
</svg>
