<?xml version="1.0" encoding="UTF-8" standalone="no"?>
<svg
   xmlns:dc="http://purl.org/dc/elements/1.1/"
   xmlns:cc="http://creativecommons.org/ns#"
   xmlns:rdf="http://www.w3.org/1999/02/22-rdf-syntax-ns#"
   xmlns:svg="http://www.w3.org/2000/svg"
   xmlns="http://www.w3.org/2000/svg"
   xmlns:sodipodi="http://sodipodi.sourceforge.net/DTD/sodipodi-0.dtd"
   xmlns:inkscape="http://www.inkscape.org/namespaces/inkscape"
   version="1.1"
   id="museum-15"
   width="15px"
   height="15px"
   viewBox="0 0 15 15"
   sodipodi:docname="museum.svg"
   inkscape:version="0.92.5 (2060ec1f9f, 2020-04-08)">
  <metadata
     id="metadata8">
    <rdf:RDF>
      <cc:Work
         rdf:about="">
        <dc:format>image/svg+xml</dc:format>
        <dc:type
           rdf:resource="http://purl.org/dc/dcmitype/StillImage" />
      </cc:Work>
    </rdf:RDF>
  </metadata>
  <defs
     id="defs6" />
  <sodipodi:namedview
     pagecolor="#ffffff"
     bordercolor="#666666"
     borderopacity="1"
     objecttolerance="10"
     gridtolerance="10"
     guidetolerance="10"
     inkscape:pageopacity="0"
     inkscape:pageshadow="2"
     inkscape:window-width="724"
     inkscape:window-height="480"
     id="namedview4"
     showgrid="false"
     inkscape:zoom="15.733333"
     inkscape:cx="7.4999998"
     inkscape:cy="7.4999998"
     inkscape:window-x="0"
     inkscape:window-y="27"
     inkscape:window-maximized="0"
     inkscape:current-layer="museum-15" />
  <path
     id="path7509"
     d="M7.5,0L1,3.4453V4h13V3.4453L7.5,0z M2,5v5l-1,1.5547V13h13v-1.4453L13,10  V5H2z M4.6152,6c0.169-0.0023,0.3318,0.0639,0.4512,0.1836L7.5,8.6172l2.4336-2.4336c0.2445-0.2437,0.6402-0.2432,0.884,0.0013  C10.9341,6.3017,10.9997,6.46,11,6.625v4.2422c0.0049,0.3452-0.271,0.629-0.6162,0.6338c-0.3452,0.0049-0.629-0.271-0.6338-0.6162  c-0.0001-0.0059-0.0001-0.0118,0-0.0177V8.1328L7.9414,9.9414c-0.244,0.2433-0.6388,0.2433-0.8828,0L5.25,8.1328v2.7344  c0.0049,0.3452-0.271,0.629-0.6162,0.6338C4.2887,11.5059,4.0049,11.2301,4,10.8849c-0.0001-0.0059-0.0001-0.0118,0-0.0177V6.625  C4,6.2836,4.2739,6.0054,4.6152,6z"
     style="fill:#05ff89;fill-opacity:1" />
</svg>
