<?xml version="1.0" encoding="UTF-8" standalone="no"?>
<!-- Created with Inkscape (http://www.inkscape.org/) -->

<svg
   xmlns:dc="http://purl.org/dc/elements/1.1/"
   xmlns:cc="http://creativecommons.org/ns#"
   xmlns:rdf="http://www.w3.org/1999/02/22-rdf-syntax-ns#"
   xmlns:svg="http://www.w3.org/2000/svg"
   xmlns="http://www.w3.org/2000/svg"
   xmlns:sodipodi="http://sodipodi.sourceforge.net/DTD/sodipodi-0.dtd"
   xmlns:inkscape="http://www.inkscape.org/namespaces/inkscape"
   width="130mm"
   height="130mm"
   viewBox="0 0 130 130"
   version="1.1"
   id="svg8"
   inkscape:version="0.92.5 (2060ec1f9f, 2020-04-08)"
   sodipodi:docname="painting2.svg">
  <defs
     id="defs2" />
  <sodipodi:namedview
     id="base"
     pagecolor="#ffffff"
     bordercolor="#666666"
     borderopacity="1.0"
     inkscape:pageopacity="0.0"
     inkscape:pageshadow="2"
     inkscape:zoom="0.7"
     inkscape:cx="-58.527844"
     inkscape:cy="240.48353"
     inkscape:document-units="mm"
     inkscape:current-layer="layer1"
     showgrid="false"
     fit-margin-top="0"
     fit-margin-left="0"
     fit-margin-right="0"
     fit-margin-bottom="0"
     inkscape:window-width="1366"
     inkscape:window-height="741"
     inkscape:window-x="0"
     inkscape:window-y="27"
     inkscape:window-maximized="1" />
  <metadata
     id="metadata5">
    <rdf:RDF>
      <cc:Work
         rdf:about="">
        <dc:format>image/svg+xml</dc:format>
        <dc:type
           rdf:resource="http://purl.org/dc/dcmitype/StillImage" />
        <dc:title />
      </cc:Work>
    </rdf:RDF>
  </metadata>
  <g
     inkscape:label="Layer 1"
     inkscape:groupmode="layer"
     id="layer1"
     transform="translate(-36.297622,-95.928558)">
    <circle
       style="opacity:1;fill:#ffffff;fill-opacity:1;stroke:#6b1b10;stroke-width:1.88649583;stroke-linecap:square;stroke-linejoin:miter;stroke-miterlimit:1;stroke-dasharray:none;stroke-opacity:0;paint-order:markers stroke fill"
       id="path1030"
       cx="101.32079"
       cy="160.9054"
       r="64.822914" />
    <path
       style="opacity:1;fill:#784421;fill-opacity:1;stroke:none;stroke-width:49.96657181;stroke-linecap:round;stroke-linejoin:round;stroke-miterlimit:4;stroke-dasharray:none;stroke-opacity:1;paint-order:normal"
       d="M 245.66992 0 A 245.66929 245.66929 0 0 0 0 245.66992 A 245.66929 245.66929 0 0 0 245.66992 491.33789 A 245.66929 245.66929 0 0 0 491.33789 245.66992 A 245.66929 245.66929 0 0 0 245.66992 0 z M 245.66992 18.898438 A 226.77165 226.77165 0 0 1 472.44141 245.66992 A 226.77165 226.77165 0 0 1 245.66992 472.44141 A 226.77165 226.77165 0 0 1 18.898438 245.66992 A 226.77165 226.77165 0 0 1 245.66992 18.898438 z "
       id="path815"
       transform="matrix(0.26458333,0,0,0.26458333,36.297622,95.928558)" />
    <path
       inkscape:connector-curvature="0"
       style="fill:#784421;stroke-width:1.49792325"
       d="m 101.27004,205.92856 c 1.21331,0 2.42664,0 3.62497,-0.13482 a 9.6016881,9.6016881 0 0 0 8.35841,-6.30625 9.7814389,9.7814389 0 0 0 -2.26186,-10.38061 10.066044,10.066044 0 0 0 -5.22776,-2.7412 7.2948866,7.2948866 0 0 1 1.39307,-14.43998 h 28.02616 a 11.084632,11.084632 0 0 0 11.11459,-11.02471 45.012597,45.012597 0 0 0 -46.780157,-44.93771 45.192344,45.192344 0 0 0 -43.185124,43.18514 45.012597,45.012597 0 0 0 44.937701,46.78014 z m 35.2012,-51.43869 a 9.7065428,9.7065428 0 1 1 -9.73651,-9.70655 9.7215226,9.7215226 0 0 1 9.73651,9.70655 z m -24.0267,-27.59174 a 9.7065428,9.7065428 0 1 1 -9.67658,9.70654 9.7065428,9.7065428 0 0 1 9.67658,-9.70654 z m -23.247762,1.49792 a 9.7065428,9.7065428 0 1 1 -9.706544,9.70654 9.7065428,9.7065428 0 0 1 9.706544,-9.70654 z M 76.389531,149.2771 a 9.7065428,9.7065428 0 1 1 -9.706543,9.70654 9.7215226,9.7215226 0 0 1 9.706543,-9.70654 z"
       id="path863" />
  </g>
</svg>
