<?xml version="1.0" encoding="UTF-8" standalone="no"?>
<svg
   xmlns:dc="http://purl.org/dc/elements/1.1/"
   xmlns:cc="http://creativecommons.org/ns#"
   xmlns:rdf="http://www.w3.org/1999/02/22-rdf-syntax-ns#"
   xmlns:svg="http://www.w3.org/2000/svg"
   xmlns="http://www.w3.org/2000/svg"
   xmlns:sodipodi="http://sodipodi.sourceforge.net/DTD/sodipodi-0.dtd"
   xmlns:inkscape="http://www.inkscape.org/namespaces/inkscape"
   version="1.0"
   x="0px"
   y="0px"
   viewBox="0 0 13.532783 11.391393"
   enable-background="new 0 0 24 24"
   xml:space="preserve"
   id="svg875"
   sodipodi:docname="refresh.svg"
   width="13.532783"
   height="11.391393"
   inkscape:version="0.92.5 (2060ec1f9f, 2020-04-08)"><metadata
     id="metadata881"><rdf:RDF><cc:Work
         rdf:about=""><dc:format>image/svg+xml</dc:format><dc:type
           rdf:resource="http://purl.org/dc/dcmitype/StillImage" /><dc:title></dc:title></cc:Work></rdf:RDF></metadata><defs
     id="defs879" /><sodipodi:namedview
     pagecolor="#ffffff"
     bordercolor="#666666"
     borderopacity="1"
     objecttolerance="10"
     gridtolerance="10"
     guidetolerance="10"
     inkscape:pageopacity="0"
     inkscape:pageshadow="2"
     inkscape:window-width="1366"
     inkscape:window-height="741"
     id="namedview877"
     showgrid="false"
     fit-margin-top="0"
     fit-margin-left="0"
     fit-margin-right="0"
     fit-margin-bottom="0"
     inkscape:zoom="24.333333"
     inkscape:cx="6.7664209"
     inkscape:cy="5.6966047"
     inkscape:window-x="0"
     inkscape:window-y="27"
     inkscape:window-maximized="1"
     inkscape:current-layer="svg875" /><path
     d="m 13.050421,5.377788 c -0.039,-0.34 -0.076,-0.682 -0.189,-1.061 -0.341,-1.361 -1.25,-2.459 -2.426,-3.105 -1.1740001,-0.682 -2.5750001,-0.945 -3.9770001,-0.566 l 0.341,1.023 c 2.235,-0.607 4.4700001,0.719 5.0750001,2.912 0.607,2.234 -0.719,4.545 -2.9530001,5.111 -2.198,0.605 -4.471,-0.682 -5.076,-2.916 -0.152,-0.566 -0.19,-1.172 -0.077,-1.738 l 1.44,1.588 0.795,-0.719 -2.31,-2.461 -0.379,-0.378 -0.379,0.341 -2.463,2.27 0.721,0.758 1.439,-1.287 c -0.075,0.607 -0.037,1.25 0.113,1.893 0.758,2.766 3.637,4.428 6.439,3.709 2.4270001,-0.643 4.0170001,-2.952 3.8660001,-5.374 z"
     id="path873"
     style="fill:#ffffff;fill-opacity:1;stroke:#ffffff;stroke-width:0.94488192;stroke-linejoin:round;stroke-miterlimit:4;stroke-dasharray:none;stroke-opacity:1"
     inkscape:connector-curvature="0" /></svg>