<?xml version="1.0" encoding="UTF-8" standalone="no"?>
<svg
   xmlns:dc="http://purl.org/dc/elements/1.1/"
   xmlns:cc="http://creativecommons.org/ns#"
   xmlns:rdf="http://www.w3.org/1999/02/22-rdf-syntax-ns#"
   xmlns:svg="http://www.w3.org/2000/svg"
   xmlns="http://www.w3.org/2000/svg"
   xmlns:sodipodi="http://sodipodi.sourceforge.net/DTD/sodipodi-0.dtd"
   xmlns:inkscape="http://www.inkscape.org/namespaces/inkscape"
   version="1.0"
   x="0px"
   y="0px"
   viewBox="0 0 12 10.101155"
   enable-background="new 0 0 24 24"
   xml:space="preserve"
   id="svg875"
   sodipodi:docname="refresh.svg"
   width="12"
   height="10.101154"
   inkscape:version="0.92.5 (2060ec1f9f, 2020-04-08)"><metadata
     id="metadata881"><rdf:RDF><cc:Work
         rdf:about=""><dc:format>image/svg+xml</dc:format><dc:type
           rdf:resource="http://purl.org/dc/dcmitype/StillImage" /><dc:title></dc:title></cc:Work></rdf:RDF></metadata><defs
     id="defs879" /><sodipodi:namedview
     pagecolor="#ffffff"
     bordercolor="#666666"
     borderopacity="1"
     objecttolerance="10"
     gridtolerance="10"
     guidetolerance="10"
     inkscape:pageopacity="0"
     inkscape:pageshadow="2"
     inkscape:window-width="1366"
     inkscape:window-height="741"
     id="namedview877"
     showgrid="false"
     fit-margin-top="0"
     fit-margin-left="0"
     fit-margin-right="0"
     fit-margin-bottom="0"
     inkscape:zoom="24.333333"
     inkscape:cx="-0.48700385"
     inkscape:cy="5.6966049"
     inkscape:window-x="0"
     inkscape:window-y="27"
     inkscape:window-maximized="1"
     inkscape:current-layer="svg875" /><path
     d="M 11.572273,4.7686762 C 11.537691,4.467186 11.504882,4.1639225 11.40468,3.8278497 11.102303,2.6210025 10.296261,1.6473667 9.2534599,1.0745355 8.2124319,0.46978184 6.9701153,0.23657044 5.7269119,0.57264324 L 6.0292888,1.4797737 C 8.0111429,0.94152514 9.9929969,2.1173367 10.529472,4.0619478 11.067721,6.0429153 9.8919094,8.0921614 7.9109418,8.5940537 5.9618969,9.130529 3.9463468,7.9893 3.4098718,6.0083326 3.2750879,5.5064402 3.241392,4.9690784 3.3415931,4.467186 L 4.6184924,5.8753222 5.3234472,5.2377593 3.2750879,3.0555029 2.9390151,2.7203169 2.6029423,3.0226937 0.41891244,5.0355836 1.0582489,5.7077292 2.3342614,4.5665005 C 2.2677563,5.104749 2.3014522,5.67492 2.4344626,6.245091 3.1066082,8.6978017 5.65952,10.171557 8.1441533,9.533993 10.296261,8.963822 11.70617,6.9163498 11.572273,4.7686762 Z"
     id="path873"
     style="fill:#ffffff;fill-opacity:1;stroke:#ffffff;stroke-width:0.83786047;stroke-linejoin:round;stroke-miterlimit:4;stroke-dasharray:none;stroke-opacity:1"
     inkscape:connector-curvature="0" /></svg>