<?xml version="1.0" encoding="UTF-8" standalone="no"?>
<!-- Created with Inkscape (http://www.inkscape.org/) -->

<svg
   xmlns:dc="http://purl.org/dc/elements/1.1/"
   xmlns:cc="http://creativecommons.org/ns#"
   xmlns:rdf="http://www.w3.org/1999/02/22-rdf-syntax-ns#"
   xmlns:svg="http://www.w3.org/2000/svg"
   xmlns="http://www.w3.org/2000/svg"
   xmlns:sodipodi="http://sodipodi.sourceforge.net/DTD/sodipodi-0.dtd"
   xmlns:inkscape="http://www.inkscape.org/namespaces/inkscape"
   width="130mm"
   height="130mm"
   viewBox="0 0 130 130"
   version="1.1"
   id="svg8"
   inkscape:version="0.92.5 (2060ec1f9f, 2020-04-08)"
   sodipodi:docname="relief2.svg">
  <defs
     id="defs2" />
  <sodipodi:namedview
     id="base"
     pagecolor="#ffffff"
     bordercolor="#666666"
     borderopacity="1.0"
     inkscape:pageopacity="0.0"
     inkscape:pageshadow="2"
     inkscape:zoom="0.24748738"
     inkscape:cx="-393.59878"
     inkscape:cy="297.8641"
     inkscape:document-units="mm"
     inkscape:current-layer="layer1"
     showgrid="false"
     fit-margin-top="0"
     fit-margin-left="0"
     fit-margin-right="0"
     fit-margin-bottom="0"
     inkscape:window-width="1366"
     inkscape:window-height="741"
     inkscape:window-x="0"
     inkscape:window-y="27"
     inkscape:window-maximized="1" />
  <metadata
     id="metadata5">
    <rdf:RDF>
      <cc:Work
         rdf:about="">
        <dc:format>image/svg+xml</dc:format>
        <dc:type
           rdf:resource="http://purl.org/dc/dcmitype/StillImage" />
        <dc:title />
      </cc:Work>
    </rdf:RDF>
  </metadata>
  <g
     inkscape:label="Layer 1"
     inkscape:groupmode="layer"
     id="layer1"
     transform="translate(-36.297622,-95.928558)">
    <circle
       style="opacity:1;fill:#ffffff;fill-opacity:1;stroke:#6b1b10;stroke-width:1.88649583;stroke-linecap:square;stroke-linejoin:miter;stroke-miterlimit:1;stroke-dasharray:none;stroke-opacity:0;paint-order:markers stroke fill"
       id="path1030"
       cx="101.32079"
       cy="160.9054"
       r="64.822914" />
    <path
       style="opacity:1;fill:#784421;fill-opacity:1;stroke:none;stroke-width:49.96657181;stroke-linecap:round;stroke-linejoin:round;stroke-miterlimit:4;stroke-dasharray:none;stroke-opacity:1;paint-order:normal"
       d="M 245.66992 0 A 245.66929 245.66929 0 0 0 0 245.66992 A 245.66929 245.66929 0 0 0 245.66992 491.33789 A 245.66929 245.66929 0 0 0 491.33789 245.66992 A 245.66929 245.66929 0 0 0 245.66992 0 z M 245.66992 18.898438 A 226.77165 226.77165 0 0 1 472.44141 245.66992 A 226.77165 226.77165 0 0 1 245.66992 472.44141 A 226.77165 226.77165 0 0 1 18.898438 245.66992 A 226.77165 226.77165 0 0 1 245.66992 18.898438 z "
       id="path815"
       transform="matrix(0.26458333,0,0,0.26458333,36.297622,95.928558)" />
    <g
       id="g4999"
       style="fill:#784421"
       transform="matrix(0.48316164,0,0,0.48316164,19.476499,103.2684)">
      <path
         id="path4410"
         d="m 259.98353,96.393601 -23.02478,-0.24098 c -10.01173,-3.76809 -27.01195,-14.59039 -27.01195,-14.59039 -61.80106,-41.580439 -101.82606,4.07479 -101.82606,4.07479 -5.01682,9.00398 -35.030092,17.022129 -35.030092,17.022129 0,0 3.746183,17.74507 69.293422,25.25935 0,0 2.76035,6.00265 -5.49878,14.26178 0,0 1.00774,5.49878 4.75393,8.25913 0,0 5.49878,10.01172 8.50011,28.26067 0,0 5.67404,7.09803 8.17149,-2.58508 2.51937,-9.66121 0.50388,-36.69507 0.50388,-36.69507 0,0 24.05443,55.27263 64.05753,49.62049 l -0.26289,0.41624 c 0,0 51.32927,-0.0219 24.93073,-40.04691 l -0.15335,0.24099 c -3.61474,-5.52069 -10.27462,-9.22306 -17.89843,-9.22306 -11.47953,0 -20.79022,8.43439 -20.79022,18.84045 0,7.11994 4.3815,13.34167 10.82231,16.56207 -29.99137,1.24873 -51.24164,-48.98517 -48.10887,-44.16552 3.24231,5.01682 71.54989,-23.26577 71.54989,-23.26577 h 17.02213 c 17.26311,-7.49236 0,-12.005309 0,-12.005309 z M 103.65161,106.40533 c 0,0 23.13432,-15.641949 25.52224,-18.884259 0,0 -3.37376,18.007959 15.13808,30.385699 0,0 -38.90772,-8.25913 -40.66032,-11.50144 z m 51.83315,-9.179239 c -1.66497,0 -3.00133,-1.33636 -3.00133,-3.00133 0,-1.64306 1.33636,-3.00133 3.00133,-3.00133 1.66497,0 3.00132,1.35827 3.00132,3.00133 0,1.66497 -1.33635,3.00133 -3.00132,3.00133 z m 13.82363,19.694839 c 0,0 21.53507,-10.69086 12.20248,-33.868989 0,0 26.33281,9.79265 37.52754,19.672929 0,0 -33.73755,12.18057 -49.73002,14.19606 z"
         style="fill:#784421;stroke-width:2.19074988"
         inkscape:connector-curvature="0" />
      <path
         id="path4418"
         d="m 264.38694,72.054371 c -114.75149,-51.373086 -191.800164,0 -191.800164,0 -6.002655,10.99757 7.339012,9.44213 7.339012,9.44213 59.719842,-41.930951 161.458272,-4.77583 161.458272,-4.77583 32.68599,13.01305 23.00288,-4.6663 23.00288,-4.6663 z m -159.24562,-5.12635 c 0.13145,0 0.21908,0 0.21908,0 0,0 0.0438,0 0.13144,0.0219 -0.13144,0 -0.24098,-0.0219 -0.35052,-0.0219 z m 1.55543,0.17526 c -0.15335,-0.0438 -0.28479,-0.0657 -0.41624,-0.0657 0.15335,0.0219 0.30671,0.0219 0.46006,0.0438 z"
         style="fill:#784421;stroke-width:2.19074988"
         inkscape:connector-curvature="0" />
    </g>
  </g>
</svg>
