<?xml version="1.0" encoding="UTF-8" standalone="no"?>
<svg
   xmlns:dc="http://purl.org/dc/elements/1.1/"
   xmlns:cc="http://creativecommons.org/ns#"
   xmlns:rdf="http://www.w3.org/1999/02/22-rdf-syntax-ns#"
   xmlns:svg="http://www.w3.org/2000/svg"
   xmlns="http://www.w3.org/2000/svg"
   xmlns:sodipodi="http://sodipodi.sourceforge.net/DTD/sodipodi-0.dtd"
   xmlns:inkscape="http://www.inkscape.org/namespaces/inkscape"
   version="1.1"
   id="restaurant-15"
   width="9.5079365"
   height="15"
   viewBox="0 0 9.5079365 15"
   sodipodi:docname="restaurant.svg"
   inkscape:version="0.92.5 (2060ec1f9f, 2020-04-08)">
  <metadata
     id="metadata8">
    <rdf:RDF>
      <cc:Work
         rdf:about="">
        <dc:format>image/svg+xml</dc:format>
        <dc:type
           rdf:resource="http://purl.org/dc/dcmitype/StillImage" />
        <dc:title></dc:title>
      </cc:Work>
    </rdf:RDF>
  </metadata>
  <defs
     id="defs6" />
  <sodipodi:namedview
     pagecolor="#ffffff"
     bordercolor="#666666"
     borderopacity="1"
     objecttolerance="10"
     gridtolerance="10"
     guidetolerance="10"
     inkscape:pageopacity="0"
     inkscape:pageshadow="2"
     inkscape:window-width="724"
     inkscape:window-height="480"
     id="namedview4"
     showgrid="false"
     inkscape:zoom="15.733333"
     inkscape:cx="-16.411555"
     inkscape:cy="1.8114407"
     inkscape:window-x="0"
     inkscape:window-y="27"
     inkscape:window-maximized="0"
     inkscape:current-layer="restaurant-15"
     fit-margin-top="0"
     fit-margin-left="0"
     fit-margin-right="0"
     fit-margin-bottom="0" />
  <path
     id="path11774"
     d="M 1.0079365,0 0.00793654,5.5 c -0.1464,0.805 1.78149996,1.181 1.74999996,2 l -0.25,6.5 c -0.0384,0.9993 1,1 1,1 0,0 1.0384,-7e-4 1,-1 l -0.25,-6.5 c -0.0314,-0.8176 1.7334,-1.1808 1.75,-2 l -1,-5.5 h -0.5 l 0.25,4 -0.75,0.5 -0.25,-4.5 h -0.5 l -0.25,4.5 -0.75,-0.5 0.25,-4 z m 8.5,0 c -0.7364,0 -1.9642,0.6549 -2.4551,1.6367 -0.4091,0.7364 -0.5449,2.3815 -0.5449,3.3633 v 2.5 c 0,0.8182 1.0909,1 1.5,1 l -0.5,5.5 c -0.0905,0.9959 1,1 1,1 0,0 1,0 1,-1 z"
     style="fill:#da3d6c;fill-opacity:0.94117647"
     inkscape:connector-curvature="0" />
</svg>
