<?xml version="1.0" encoding="UTF-8" standalone="no"?>
<svg
   xmlns:dc="http://purl.org/dc/elements/1.1/"
   xmlns:cc="http://creativecommons.org/ns#"
   xmlns:rdf="http://www.w3.org/1999/02/22-rdf-syntax-ns#"
   xmlns:svg="http://www.w3.org/2000/svg"
   xmlns="http://www.w3.org/2000/svg"
   xmlns:sodipodi="http://sodipodi.sourceforge.net/DTD/sodipodi-0.dtd"
   xmlns:inkscape="http://www.inkscape.org/namespaces/inkscape"
   version="1.1"
   id="swimming-15"
   width="15"
   height="11"
   viewBox="0 0 15 11"
   sodipodi:docname="sauna.svg"
   inkscape:version="0.92.5 (2060ec1f9f, 2020-04-08)">
  <metadata
     id="metadata8">
    <rdf:RDF>
      <cc:Work
         rdf:about="">
        <dc:format>image/svg+xml</dc:format>
        <dc:type
           rdf:resource="http://purl.org/dc/dcmitype/StillImage" />
        <dc:title></dc:title>
      </cc:Work>
    </rdf:RDF>
  </metadata>
  <defs
     id="defs6" />
  <sodipodi:namedview
     pagecolor="#ffffff"
     bordercolor="#666666"
     borderopacity="1"
     objecttolerance="10"
     gridtolerance="10"
     guidetolerance="10"
     inkscape:pageopacity="0"
     inkscape:pageshadow="2"
     inkscape:window-width="724"
     inkscape:window-height="480"
     id="namedview4"
     showgrid="false"
     inkscape:zoom="15.733333"
     inkscape:cx="-3.2097459"
     inkscape:cy="5.4999998"
     inkscape:window-x="0"
     inkscape:window-y="27"
     inkscape:window-maximized="0"
     inkscape:current-layer="swimming-15"
     fit-margin-top="0"
     fit-margin-left="0"
     fit-margin-right="0"
     fit-margin-bottom="0" />
  <path
     id="path16388"
     d="M 10.1113,0 C 9.9989,0 9.6758,0.1465 9.6758,0.1465 L 6.3535,1.8262 C 5.9111,2.0024 5.7358,2.7081 6.002,3.0605 L 6.9727,4.4687 3.002,6.498 5,7.998 l 2.502,-1.5 2.5,1.5 1.002,-1.002 -3,-4 2.5566,-1.5293 C 11.0892,1.2005 11.004,0.7622 11.004,0.496 10.9999,0.2861 10.6437,0 10.1113,0 Z M 12.252,3 C 11.2847,3 10.5,3.7827 10.5,4.75 c 0,0.9673 0.7847,1.752 1.752,1.752 0.9673,0 1.75,-0.7847 1.75,-1.752 C 14.002,3.7827 13.2192,3 12.252,3 Z M 2.5,8 0,9.5 V 11 L 2.5,9.5 5,11 7.502,9.5 10.002,11 12,9.5 15,11 V 9.5 L 12,8 10.002,9.5 7.502,8 5,9.5 Z"
     style="fill:#484ada;fill-opacity:1"
     inkscape:connector-curvature="0" />
</svg>
