<?xml version="1.0" encoding="UTF-8" standalone="no"?>
<svg
   xmlns:dc="http://purl.org/dc/elements/1.1/"
   xmlns:cc="http://creativecommons.org/ns#"
   xmlns:rdf="http://www.w3.org/1999/02/22-rdf-syntax-ns#"
   xmlns:svg="http://www.w3.org/2000/svg"
   xmlns="http://www.w3.org/2000/svg"
   xmlns:sodipodi="http://sodipodi.sourceforge.net/DTD/sodipodi-0.dtd"
   xmlns:inkscape="http://www.inkscape.org/namespaces/inkscape"
   version="1.1"
   id="shop-15"
   width="15px"
   height="15px"
   viewBox="0 0 15 15"
   sodipodi:docname="shop.svg"
   inkscape:version="0.92.5 (2060ec1f9f, 2020-04-08)">
  <metadata
     id="metadata9">
    <rdf:RDF>
      <cc:Work
         rdf:about="">
        <dc:format>image/svg+xml</dc:format>
        <dc:type
           rdf:resource="http://purl.org/dc/dcmitype/StillImage" />
      </cc:Work>
    </rdf:RDF>
  </metadata>
  <defs
     id="defs7" />
  <sodipodi:namedview
     pagecolor="#ffffff"
     bordercolor="#666666"
     borderopacity="1"
     objecttolerance="10"
     gridtolerance="10"
     guidetolerance="10"
     inkscape:pageopacity="0"
     inkscape:pageshadow="2"
     inkscape:window-width="1366"
     inkscape:window-height="741"
     id="namedview5"
     showgrid="false"
     inkscape:zoom="15.733333"
     inkscape:cx="-3.1461866"
     inkscape:cy="7.4999998"
     inkscape:window-x="0"
     inkscape:window-y="27"
     inkscape:window-maximized="1"
     inkscape:current-layer="shop-15" />
  <path
     d="M13.33,6H11.5l-0.39-2.33c-0.1601-0.7182-0.7017-1.2905-1.41-1.49C9.3507,2.0676,8.9869,2.007,8.62,2H6.38  C6.0131,2.007,5.6493,2.0676,5.3,2.18C4.5917,2.3795,4.0501,2.9518,3.89,3.67L3.5,6H1.67C1.3939,5.9983,1.1687,6.2208,1.167,6.497  C1.1667,6.5489,1.1744,6.6005,1.19,6.65l1.88,6.3l0,0C3.2664,13.5746,3.8453,13.9996,4.5,14h6c0.651-0.0047,1.2247-0.4289,1.42-1.05  l0,0l1.88-6.3c0.0829-0.2634-0.0635-0.5441-0.3269-0.627C13.4268,6.0084,13.3786,6.0007,13.33,6z M4.52,6l0.36-2.17  c0.0807-0.3625,0.3736-0.6395,0.74-0.7C5.8663,3.0524,6.1219,3.0087,6.38,3h2.24c0.2614,0.0078,0.5205,0.0515,0.77,0.13  c0.3664,0.0605,0.6593,0.3375,0.74,0.7L10.48,6h-6H4.52z"
     id="path2"
     style="fill:#ed38fe;fill-opacity:1" />
</svg>
