<?xml version="1.0" encoding="UTF-8" standalone="no"?>
<svg
   xmlns:dc="http://purl.org/dc/elements/1.1/"
   xmlns:cc="http://creativecommons.org/ns#"
   xmlns:rdf="http://www.w3.org/1999/02/22-rdf-syntax-ns#"
   xmlns:svg="http://www.w3.org/2000/svg"
   xmlns="http://www.w3.org/2000/svg"
   xmlns:sodipodi="http://sodipodi.sourceforge.net/DTD/sodipodi-0.dtd"
   xmlns:inkscape="http://www.inkscape.org/namespaces/inkscape"
   version="1.1"
   id="shop-15"
   width="12.656199"
   height="12"
   viewBox="0 0 12.656199 12"
   sodipodi:docname="shop.svg"
   inkscape:version="0.92.5 (2060ec1f9f, 2020-04-08)">
  <metadata
     id="metadata9">
    <rdf:RDF>
      <cc:Work
         rdf:about="">
        <dc:format>image/svg+xml</dc:format>
        <dc:type
           rdf:resource="http://purl.org/dc/dcmitype/StillImage" />
        <dc:title></dc:title>
      </cc:Work>
    </rdf:RDF>
  </metadata>
  <defs
     id="defs7" />
  <sodipodi:namedview
     pagecolor="#ffffff"
     bordercolor="#666666"
     borderopacity="1"
     objecttolerance="10"
     gridtolerance="10"
     guidetolerance="10"
     inkscape:pageopacity="0"
     inkscape:pageshadow="2"
     inkscape:window-width="1366"
     inkscape:window-height="741"
     id="namedview5"
     showgrid="false"
     inkscape:zoom="15.733333"
     inkscape:cx="-25.732669"
     inkscape:cy="6.4999994"
     inkscape:window-x="0"
     inkscape:window-y="27"
     inkscape:window-maximized="1"
     inkscape:current-layer="shop-15"
     fit-margin-top="0"
     fit-margin-left="0"
     fit-margin-right="0"
     fit-margin-bottom="0" />
  <path
     d="m 12.163008,4 h -1.83 L 9.9430084,1.67 c -0.1601,-0.7182 -0.7017,-1.2905 -1.41,-1.49 -0.3493,-0.1124 -0.7131,-0.173 -1.08,-0.18 h -2.24 c -0.3669,0.007 -0.7307,0.0676 -1.08,0.18 -0.7083,0.1995 -1.2499,0.7718 -1.41,1.49 l -0.39,2.33 H 0.50300844 C 0.22690844,3.9983 0.00170844,4.2208 8.4381593e-6,4.497 -2.9156184e-4,4.5489 0.00740844,4.6005 0.02300844,4.65 l 1.87999996,6.3 v 0 c 0.1964,0.6246 0.7753,1.0496 1.43,1.05 h 6 c 0.651,-0.0047 1.2246996,-0.4289 1.4199996,-1.05 v 0 l 1.88,-6.3 c 0.0829,-0.2634 -0.0635,-0.5441 -0.3269,-0.627 -0.0463,-0.0146 -0.0945,-0.0223 -0.1431,-0.023 z m -8.8099996,0 0.36,-2.17 c 0.0807,-0.3625 0.3736,-0.6395 0.74,-0.7 0.2463,-0.0776 0.5019,-0.1213 0.76,-0.13 h 2.24 c 0.2614,0.0078 0.5205,0.0515 0.77,0.13 0.3664,0.0605 0.6593,0.3375 0.74,0.7 l 0.35,2.17 h -6 z"
     id="path2"
     style="fill:#8d3dda;fill-opacity:1"
     inkscape:connector-curvature="0" />
</svg>
