<?xml version="1.0" encoding="UTF-8" standalone="no"?>
<!-- Created with Inkscape (http://www.inkscape.org/) -->

<svg
   xmlns:dc="http://purl.org/dc/elements/1.1/"
   xmlns:cc="http://creativecommons.org/ns#"
   xmlns:rdf="http://www.w3.org/1999/02/22-rdf-syntax-ns#"
   xmlns:svg="http://www.w3.org/2000/svg"
   xmlns="http://www.w3.org/2000/svg"
   xmlns:sodipodi="http://sodipodi.sourceforge.net/DTD/sodipodi-0.dtd"
   xmlns:inkscape="http://www.inkscape.org/namespaces/inkscape"
   width="130mm"
   height="130mm"
   viewBox="0 0 130 130"
   version="1.1"
   id="svg8"
   inkscape:version="0.92.5 (2060ec1f9f, 2020-04-08)"
   sodipodi:docname="stone.svg">
  <defs
     id="defs2" />
  <sodipodi:namedview
     id="base"
     pagecolor="#ffffff"
     bordercolor="#666666"
     borderopacity="1.0"
     inkscape:pageopacity="0.0"
     inkscape:pageshadow="2"
     inkscape:zoom="0.49497475"
     inkscape:cx="-246.04573"
     inkscape:cy="206.42691"
     inkscape:document-units="mm"
     inkscape:current-layer="layer1"
     showgrid="false"
     fit-margin-top="0"
     fit-margin-left="0"
     fit-margin-right="0"
     fit-margin-bottom="0"
     inkscape:window-width="1366"
     inkscape:window-height="741"
     inkscape:window-x="0"
     inkscape:window-y="27"
     inkscape:window-maximized="1" />
  <metadata
     id="metadata5">
    <rdf:RDF>
      <cc:Work
         rdf:about="">
        <dc:format>image/svg+xml</dc:format>
        <dc:type
           rdf:resource="http://purl.org/dc/dcmitype/StillImage" />
        <dc:title></dc:title>
      </cc:Work>
    </rdf:RDF>
  </metadata>
  <g
     inkscape:label="Layer 1"
     inkscape:groupmode="layer"
     id="layer1"
     transform="translate(-36.297622,-95.928558)">
    <circle
       style="opacity:1;fill:#ffffff;fill-opacity:1;stroke:#6b1b10;stroke-width:1.88649583;stroke-linecap:square;stroke-linejoin:miter;stroke-miterlimit:1;stroke-dasharray:none;stroke-opacity:0;paint-order:markers stroke fill"
       id="path1030"
       cx="-51.557377"
       cy="234.13725"
       r="64.822914" />
    <path
       style="opacity:1;fill:#784421;fill-opacity:1;stroke:none;stroke-width:13.22032166;stroke-linecap:round;stroke-linejoin:round;stroke-miterlimit:4;stroke-dasharray:none;stroke-opacity:1;paint-order:normal"
       d="m -49.442225,150.98608 a 64.999999,64.999999 0 0 0 -65.000165,65.00017 64.999999,64.999999 0 0 0 65.000165,64.99964 64.999999,64.999999 0 0 0 64.999649,-64.99964 64.999999,64.999999 0 0 0 -64.999649,-65.00017 z m 0,5.00021 a 59.999998,59.999998 0 0 1 59.999956,59.99996 59.999998,59.999998 0 0 1 -59.999956,59.99995 59.999998,59.999998 0 0 1 -59.999955,-59.99995 59.999998,59.999998 0 0 1 59.999955,-59.99996 z"
       id="path815"
       inkscape:connector-curvature="0" />
    <circle
       style="opacity:1;fill:#ff69ff;fill-opacity:1;stroke:#784421;stroke-width:20;stroke-linecap:square;stroke-linejoin:miter;stroke-miterlimit:1;stroke-dasharray:none;stroke-opacity:1;paint-order:markers stroke fill"
       id="path1030-6"
       cy="160.92856"
       cx="101.29762"
       r="55.000221" />
    <path
       inkscape:connector-curvature="0"
       style="fill:#784421;stroke-width:0.12992997;image-rendering:optimizeQuality;shape-rendering:geometricPrecision;text-rendering:geometricPrecision"
       class="fil0"
       d="m 96.963802,171.83166 c 19.714268,-5.19849 25.776798,-3.46783 30.326958,-1.51628 4.54884,1.95025 11.26623,5.41418 11.26623,15.5955 0,10.18131 -9.63172,11.54557 -13.43087,12.56552 -3.80046,1.01736 -48.741921,0 -54.156102,0 -5.415486,0 -6.931764,-8.44805 -6.931764,-11.04924 0,-2.5986 1.082316,-11.91458 11.263629,-11.91458 10.181313,0 21.661919,-3.68092 21.661919,-3.68092 z m 4.062908,-52.25913 c 13.79207,-0.21698 17.11178,-3.68092 19.06202,8.01668 1.94895,11.695 -25.779395,9.0964 -31.193577,9.0964 -16.43354,0 -12.970914,-8.22327 -4.908749,-13.19309 5.05557,-3.11442 11.723578,-3.83813 17.040306,-3.91999 z m 12.4421,45.51837 c -28.376704,0.86533 -41.156619,-0.43397 -44.40617,-6.71478 -3.249549,-6.28212 9.096404,-12.9969 29.027654,-16.68041 19.927366,-3.68222 32.491586,-3.68481 32.491586,9.96433 0,13.64784 -17.11307,13.43086 -17.11307,13.43086 z"
       id="path4939" />
  </g>
</svg>
