<?xml version="1.0" encoding="UTF-8" standalone="no"?>
<!-- Created with Inkscape (http://www.inkscape.org/) -->

<svg
   xmlns:dc="http://purl.org/dc/elements/1.1/"
   xmlns:cc="http://creativecommons.org/ns#"
   xmlns:rdf="http://www.w3.org/1999/02/22-rdf-syntax-ns#"
   xmlns:svg="http://www.w3.org/2000/svg"
   xmlns="http://www.w3.org/2000/svg"
   xmlns:sodipodi="http://sodipodi.sourceforge.net/DTD/sodipodi-0.dtd"
   xmlns:inkscape="http://www.inkscape.org/namespaces/inkscape"
   width="130mm"
   height="130mm"
   viewBox="0 0 130 130"
   version="1.1"
   id="svg8"
   inkscape:version="0.92.5 (2060ec1f9f, 2020-04-08)"
   sodipodi:docname="unknown.svg">
  <defs
     id="defs2" />
  <sodipodi:namedview
     id="base"
     pagecolor="#ffffff"
     bordercolor="#666666"
     borderopacity="1.0"
     inkscape:pageopacity="0.0"
     inkscape:pageshadow="2"
     inkscape:zoom="0.7"
     inkscape:cx="-58.527844"
     inkscape:cy="240.48353"
     inkscape:document-units="mm"
     inkscape:current-layer="layer1"
     showgrid="false"
     fit-margin-top="0"
     fit-margin-left="0"
     fit-margin-right="0"
     fit-margin-bottom="0"
     inkscape:window-width="1366"
     inkscape:window-height="741"
     inkscape:window-x="0"
     inkscape:window-y="27"
     inkscape:window-maximized="1" />
  <metadata
     id="metadata5">
    <rdf:RDF>
      <cc:Work
         rdf:about="">
        <dc:format>image/svg+xml</dc:format>
        <dc:type
           rdf:resource="http://purl.org/dc/dcmitype/StillImage" />
        <dc:title />
      </cc:Work>
    </rdf:RDF>
  </metadata>
  <g
     inkscape:label="Layer 1"
     inkscape:groupmode="layer"
     id="layer1"
     transform="translate(-36.297622,-95.928558)">
    <circle
       style="opacity:1;fill:#ffffff;fill-opacity:1;stroke:#6b1b10;stroke-width:1.88649583;stroke-linecap:square;stroke-linejoin:miter;stroke-miterlimit:1;stroke-dasharray:none;stroke-opacity:0;paint-order:markers stroke fill"
       id="path1030"
       cx="101.32079"
       cy="160.9054"
       r="64.822914" />
    <path
       style="opacity:1;fill:#784421;fill-opacity:1;stroke:none;stroke-width:49.96657181;stroke-linecap:round;stroke-linejoin:round;stroke-miterlimit:4;stroke-dasharray:none;stroke-opacity:1;paint-order:normal"
       d="M 245.66992 0 A 245.66929 245.66929 0 0 0 0 245.66992 A 245.66929 245.66929 0 0 0 245.66992 491.33789 A 245.66929 245.66929 0 0 0 491.33789 245.66992 A 245.66929 245.66929 0 0 0 245.66992 0 z M 245.66992 18.898438 A 226.77165 226.77165 0 0 1 472.44141 245.66992 A 226.77165 226.77165 0 0 1 245.66992 472.44141 A 226.77165 226.77165 0 0 1 18.898438 245.66992 A 226.77165 226.77165 0 0 1 245.66992 18.898438 z "
       transform="matrix(0.26458333,0,0,0.26458333,36.297622,95.928558)"
       id="path815" />
    <g
       id="g1512"
       transform="matrix(0.73272426,0,0,0.73272426,-23.339651,59.361208)">
      <path
         id="path927"
         d="m 167.0367,77.201415 c -2.75213,0.311497 -5.9561,0.475804 -9.07792,1.071414 -7.31848,1.396603 -13.85992,4.504728 -19.24095,9.731718 -5.15853,5.01134 -5.40841,13.058933 -0.71199,18.395463 3.81327,4.33358 9.47499,4.31988 15.5064,-0.0411 0.41419,-0.30123 0.83522,-0.59219 1.24599,-0.90026 4.50131,-3.41278 9.65984,-4.75119 15.17437,-4.20008 4.5458,0.45184 8.44465,2.4064 10.0706,7.10282 1.57118,4.53212 -0.623,7.95516 -3.8167,10.85106 -1.60198,1.4548 -3.44701,2.64602 -5.18933,3.93993 -10.48138,7.78059 -15.03403,20.0214 -11.80952,31.76587 1.53353,5.58642 4.13847,8.51997 7.56494,8.51654 3.35116,-0.003 5.90133,-2.63232 7.3972,-8.18792 1.55064,-5.76784 4.515,-10.59776 9.0745,-14.35626 3.64554,-3.00544 7.63682,-5.58984 11.30975,-8.56104 11.48775,-9.29015 14.28095,-23.66695 6.98644,-36.465723 -7.4999,-13.13763 -19.68595,-17.844324 -34.48378,-18.662432 z"
         style="fill:#784421;stroke-width:3.42304683"
         inkscape:connector-curvature="0" />
      <path
         id="path929"
         d="m 168.96045,172.70785 c -8.46519,0.0137 -13.83938,5.2133 -13.81884,13.37727 0.0171,8.06812 5.76784,13.97287 13.58607,13.94549 8.20505,-0.0274 14.09954,-5.86368 14.05846,-13.91126 -0.0411,-8.1982 -5.43238,-13.42519 -13.82569,-13.4115 z"
         style="fill:#784421;stroke-width:3.42304683"
         inkscape:connector-curvature="0" />
    </g>
  </g>
</svg>
