<?xml version="1.0" encoding="UTF-8" standalone="no"?>
<!-- Created with Inkscape (http://www.inkscape.org/) -->

<svg
   xmlns:dc="http://purl.org/dc/elements/1.1/"
   xmlns:cc="http://creativecommons.org/ns#"
   xmlns:rdf="http://www.w3.org/1999/02/22-rdf-syntax-ns#"
   xmlns:svg="http://www.w3.org/2000/svg"
   xmlns="http://www.w3.org/2000/svg"
   xmlns:sodipodi="http://sodipodi.sourceforge.net/DTD/sodipodi-0.dtd"
   xmlns:inkscape="http://www.inkscape.org/namespaces/inkscape"
   width="130mm"
   height="130mm"
   viewBox="0 0 130 130"
   version="1.1"
   id="svg8"
   inkscape:version="0.92.5 (2060ec1f9f, 2020-04-08)"
   sodipodi:docname="graffiti.svg">
  <defs
     id="defs2" />
  <sodipodi:namedview
     id="base"
     pagecolor="#ffffff"
     bordercolor="#666666"
     borderopacity="1.0"
     inkscape:pageopacity="0.0"
     inkscape:pageshadow="2"
     inkscape:zoom="0.7"
     inkscape:cx="-85.371101"
     inkscape:cy="312.80873"
     inkscape:document-units="mm"
     inkscape:current-layer="layer1"
     showgrid="false"
     fit-margin-top="0"
     fit-margin-left="0"
     fit-margin-right="0"
     fit-margin-bottom="0"
     inkscape:window-width="1366"
     inkscape:window-height="741"
     inkscape:window-x="0"
     inkscape:window-y="27"
     inkscape:window-maximized="1" />
  <metadata
     id="metadata5">
    <rdf:RDF>
      <cc:Work
         rdf:about="">
        <dc:format>image/svg+xml</dc:format>
        <dc:type
           rdf:resource="http://purl.org/dc/dcmitype/StillImage" />
        <dc:title />
      </cc:Work>
    </rdf:RDF>
  </metadata>
  <g
     inkscape:label="Layer 1"
     inkscape:groupmode="layer"
     id="layer1"
     transform="translate(-36.297622,-95.928558)">
    <circle
       r="64.822922"
       cy="158.25955"
       cx="-63.09885"
       id="path1030"
       style="opacity:1;fill:#ffffff;fill-opacity:1;stroke:#6b1b10;stroke-width:1.88649583;stroke-linecap:square;stroke-linejoin:miter;stroke-miterlimit:1;stroke-dasharray:none;stroke-opacity:0;paint-order:markers stroke fill" />
    <circle
       style="opacity:1;fill:#ffff69;fill-opacity:1;stroke:#784421;stroke-width:20;stroke-linecap:square;stroke-linejoin:miter;stroke-miterlimit:1;stroke-dasharray:none;stroke-opacity:1;paint-order:markers stroke fill"
       id="path1030-6"
       cy="160.92856"
       cx="101.29762"
       r="55.000217" />
    <g
       transform="matrix(1.0038387,0,0,1.0038387,-3.5654042,0.30775376)"
       id="g994"
       style="fill:#ffff00;stroke:#784421;stroke-opacity:1">
      <path
         style="opacity:1;fill:#ffff00;fill-opacity:1;stroke:#784421;stroke-width:5.27750874;stroke-linecap:butt;stroke-linejoin:round;stroke-miterlimit:4;stroke-dasharray:none;stroke-opacity:1;paint-order:normal"
         id="path966"
         d="m 77.561681,193.18333 c 1.378072,-1.8205 2.572777,-3.76467 3.76948,-5.70643 2.583084,-4.15641 4.931275,-8.45005 7.283205,-12.73924 1.622033,-3.15772 3.229785,-6.32858 4.586114,-9.61187 0.894033,-2.16419 1.339691,-3.44242 2.144258,-5.63139 1.829923,-5.2059 3.625653,-10.42457 5.302672,-15.68194 1.4604,-4.47786 2.7991,-8.99568 4.34629,-13.44474 1.21654,-3.61748 2.4943,-7.21076 3.40865,-10.91935 0.33361,-1.60393 0.17595,-0.836 0.47397,-2.3036 0,0 4.23184,-2.03921 4.23184,-2.03921 v 0 c -0.37257,1.50345 -0.18097,0.71442 -0.57251,2.36763 -1.02044,3.73286 -2.30381,7.37969 -3.56895,11.0351 -1.55629,4.46462 -2.94861,8.98181 -4.42909,13.47169 -1.70068,5.28086 -3.56036,10.50689 -5.391287,15.7437 -0.42948,1.1603 -1.656752,4.49472 -2.107351,5.63624 -1.304987,3.306 -2.867214,6.502 -4.539458,9.63633 -2.293657,4.2419 -4.585269,8.48483 -7.025144,12.64538 -1.1063,1.87724 -2.184529,3.77338 -3.413837,5.5733 0,0 -4.498852,1.9684 -4.498852,1.9684 z"
         inkscape:connector-curvature="0" />
      <path
         style="opacity:1;fill:#ffff00;fill-opacity:1;stroke:#784421;stroke-width:5.27750874;stroke-linecap:butt;stroke-linejoin:round;stroke-miterlimit:4;stroke-dasharray:none;stroke-opacity:1;paint-order:normal"
         id="path968"
         d="m 112.75971,115.13464 c -0.15018,2.39947 -0.12943,4.80086 -0.0592,7.20244 0.34292,6.05421 1.43548,12.04175 2.55968,17.99143 1.701,8.25911 3.44862,16.50832 5.28103,24.73933 1.79664,8.02102 3.45905,16.07231 5.45536,24.04693 0.99638,4.09794 2.15162,8.15481 3.19448,12.24058 0.0684,0.29165 0.13681,0.58329 0.20521,0.87495 0,0 -4.18737,2.23483 -4.18737,2.23483 v 0 c -0.0455,-0.30009 -0.0909,-0.60017 -0.13641,-0.90026 -0.73858,-4.20346 -1.76062,-8.34904 -2.65695,-12.52027 -1.76522,-8.05654 -3.41796,-16.13758 -5.19358,-24.19193 -1.86491,-8.20568 -3.74884,-16.40802 -5.48335,-24.64234 -1.21832,-5.89834 -2.4214,-11.81596 -3.02833,-17.81457 -0.16993,-2.34182 -0.23686,-4.68525 -0.32802,-7.03073 0,0 4.3774,-2.23039 4.3774,-2.23039 z"
         inkscape:connector-curvature="0" />
      <path
         style="opacity:1;fill:#ffff00;fill-opacity:1;stroke:#784421;stroke-width:5.27750874;stroke-linecap:butt;stroke-linejoin:round;stroke-miterlimit:4;stroke-dasharray:none;stroke-opacity:1;paint-order:normal"
         id="path970"
         d="m 61.934492,152.42517 c 1.845595,0.0229 3.686252,0.16951 5.525702,0.31433 7.29393,0.57485 14.56597,1.37492 21.845558,2.10185 11.856618,1.23171 23.772988,1.60894 35.683598,1.83069 5.68755,0.13797 11.3641,-0.10475 17.03014,-0.56858 0,0 -3.34333,2.46174 -3.34333,2.46174 v 0 c -5.49752,0.24586 -10.99708,0.3397 -16.49921,0.14035 -11.94175,-0.32517 -23.888158,-0.74705 -35.793061,-1.78124 -7.530113,-0.60833 -15.057134,-1.26429 -22.609175,-1.53889 -1.940305,-0.0691 -3.882053,-0.15004 -5.823371,-0.0663 0,0 3.983149,-2.89392 3.983149,-2.89392 z"
         inkscape:connector-curvature="0" />
      <path
         style="opacity:1;fill:#ffff00;fill-opacity:1;stroke:#784421;stroke-width:5.97705603;stroke-linecap:butt;stroke-linejoin:round;stroke-miterlimit:4;stroke-dasharray:none;stroke-opacity:1;paint-order:normal"
         id="path988"
         d="m 104.11404,127.74924 c -1.49292,-0.0824 -2.97787,-0.0407 -4.465297,0.10021 -3.155537,0.47663 -6.208982,1.46544 -9.208371,2.53016 -1.927533,0.72398 -3.825585,1.5526 -5.644975,2.51979 -0.357956,0.19029 -1.406096,0.80767 -1.052731,0.60898 1.203101,-0.67647 2.401329,-1.36157 3.601993,-2.04236 -1.812321,1.24933 -3.464264,2.70876 -5.045925,4.23417 -1.715785,1.70706 -3.102335,3.69015 -4.429115,5.70316 -1.26014,1.75296 -2.295737,3.62506 -3.086549,5.63083 -0.809866,2.06018 -1.179293,4.22547 -1.405814,6.41498 -0.251537,2.94098 -0.271028,5.88883 0.123781,8.81479 0.458722,3.08916 1.753697,5.98167 3.162745,8.74379 1.364969,2.68154 3.204896,4.92481 5.355801,7.00298 2.766441,2.49292 5.98178,4.36579 9.291928,6.03016 4.099571,1.86411 8.346707,3.46523 12.706709,4.61175 0.96812,0.25459 1.94883,0.45864 2.92325,0.68796 3.41571,0.6453 6.87551,1.25406 10.36424,1.24506 1.6926,-0.004 2.07849,-0.0908 3.69722,-0.27572 1.7407,-0.24637 3.44558,-0.74689 5.0243,-1.52613 0.30919,-0.15261 1.2046,-0.6716 0.90535,-0.50032 -1.26946,0.72658 -2.54404,1.4442 -3.81607,2.1663 1.87405,-1.17446 3.28968,-2.88687 4.71773,-4.54276 1.86381,-2.15574 3.4097,-4.54416 4.83665,-7.00293 1.40749,-2.44881 2.49777,-5.06227 3.44792,-7.71701 0.91082,-2.67336 1.10728,-5.49297 1.22768,-8.29222 0.12445,-2.73519 0.0936,-5.45722 -0.2654,-8.172 -0.26103,-1.58272 -0.63217,-3.16544 -1.24677,-4.65282 -0.3137,-0.7592 -0.64331,-1.31011 -1.03818,-2.02606 -1.19678,-2.00058 -2.63964,-3.8275 -4.27882,-5.4798 -2.07231,-1.92736 -4.32341,-3.64415 -6.57093,-5.35865 -1.68212,-1.33671 -3.57088,-2.37 -5.31575,-3.61382 -1.24795,-0.88015 -2.51919,-1.73818 -3.85698,-2.47659 -0.9143,-0.53179 -1.89795,-0.95815 -2.90638,-1.27841 -0.81293,-0.36216 -1.6921,-0.52829 -2.56177,-0.69191 0,0 4.4996,-3.1444 4.4996,-3.1444 v 0 c 0.90632,0.16671 1.80381,0.35228 2.64806,0.73635 1.00233,0.38774 1.98825,0.83038 2.89988,1.40288 1.32309,0.78885 2.61373,1.63503 3.8617,2.53813 1.7299,1.24151 3.50713,2.41542 5.19994,3.70884 2.25304,1.74302 4.50748,3.49092 6.61249,5.41313 1.69729,1.67572 3.21273,3.50718 4.40405,5.58307 0.37487,0.69431 0.76458,1.37532 1.06798,2.10601 0.63229,1.52278 1.0046,3.14149 1.2755,4.76213 0.38324,2.74802 0.38393,5.50954 0.26015,8.2794 -0.11228,2.83555 -0.23016,5.69719 -1.12528,8.4176 -0.94,2.68475 -2.04842,5.32041 -3.42518,7.81255 -1.41715,2.47695 -2.93496,4.89984 -4.78369,7.08318 -1.38598,1.67045 -2.74557,3.41252 -4.54924,4.65708 -4.20217,2.44474 -6.64539,4.37136 -11.32244,4.90211 -1.57421,0.11665 -1.98807,0.18562 -3.62762,0.13561 -3.45364,-0.10533 -6.86533,-0.78323 -10.24586,-1.44152 -5.424143,-1.2982 -10.774928,-2.93698 -15.84528,-5.28912 -3.400632,-1.65377 -6.749762,-3.47317 -9.549306,-6.05542 -0.907161,-0.88279 -1.361374,-1.28603 -2.188709,-2.24597 -1.285942,-1.49206 -2.331886,-3.17666 -3.285659,-4.89411 -1.373964,-2.84037 -2.701042,-5.77359 -3.218562,-8.90665 -0.421129,-2.95151 -0.438739,-5.91482 -0.239273,-8.88893 0.158609,-2.22285 0.495512,-4.40549 1.252758,-6.51333 0.810586,-2.04402 1.798352,-3.99236 3.115635,-5.76403 1.323904,-2.02538 2.67645,-4.04142 4.352887,-5.79813 1.584212,-1.54646 3.22294,-3.02861 5.009486,-4.34377 3.950049,-2.3123 7.814923,-4.74935 12.179723,-6.21129 3.069354,-1.05038 6.17993,-2.06022 9.40206,-2.51723 1.56261,-0.14508 3.12493,-0.18605 4.69355,-0.2043 0,0 -4.52082,3.28457 -4.52082,3.28457 z"
         inkscape:connector-curvature="0" />
    </g>
    <path
       style="opacity:1;fill:#784421;fill-opacity:1;stroke:none;stroke-width:13.22032166;stroke-linecap:round;stroke-linejoin:round;stroke-miterlimit:4;stroke-dasharray:none;stroke-opacity:1;paint-order:normal"
       d="m -75.901906,102.07576 a 64.999999,64.999999 0 0 0 -65.000174,65.00016 64.999999,64.999999 0 0 0 65.000174,64.99965 64.999999,64.999999 0 0 0 64.99965,-64.99965 64.999999,64.999999 0 0 0 -64.99965,-65.00016 z m 0,5.00021 a 59.999998,59.999998 0 0 1 59.99995,59.99995 59.999998,59.999998 0 0 1 -59.99995,59.99996 59.999998,59.999998 0 0 1 -59.999964,-59.99996 59.999998,59.999998 0 0 1 59.999964,-59.99995 z"
       id="path815"
       inkscape:connector-curvature="0" />
  </g>
</svg>
