<?xml version="1.0" encoding="UTF-8" standalone="no"?>
<!-- Created with Inkscape (http://www.inkscape.org/) -->

<svg
   xmlns:dc="http://purl.org/dc/elements/1.1/"
   xmlns:cc="http://creativecommons.org/ns#"
   xmlns:rdf="http://www.w3.org/1999/02/22-rdf-syntax-ns#"
   xmlns:svg="http://www.w3.org/2000/svg"
   xmlns="http://www.w3.org/2000/svg"
   xmlns:sodipodi="http://sodipodi.sourceforge.net/DTD/sodipodi-0.dtd"
   xmlns:inkscape="http://www.inkscape.org/namespaces/inkscape"
   width="130mm"
   height="130mm"
   viewBox="0 0 130 130"
   version="1.1"
   id="svg8"
   inkscape:version="0.92.5 (2060ec1f9f, 2020-04-08)"
   sodipodi:docname="memorial.svg">
  <defs
     id="defs2" />
  <sodipodi:namedview
     id="base"
     pagecolor="#ffffff"
     bordercolor="#666666"
     borderopacity="1.0"
     inkscape:pageopacity="0.0"
     inkscape:pageshadow="2"
     inkscape:zoom="0.7"
     inkscape:cx="357.85187"
     inkscape:cy="189.16136"
     inkscape:document-units="mm"
     inkscape:current-layer="layer1"
     showgrid="true"
     fit-margin-top="0"
     fit-margin-left="0"
     fit-margin-right="0"
     fit-margin-bottom="0"
     inkscape:window-width="1366"
     inkscape:window-height="741"
     inkscape:window-x="0"
     inkscape:window-y="27"
     inkscape:window-maximized="1" />
  <metadata
     id="metadata5">
    <rdf:RDF>
      <cc:Work
         rdf:about="">
        <dc:format>image/svg+xml</dc:format>
        <dc:type
           rdf:resource="http://purl.org/dc/dcmitype/StillImage" />
        <dc:title />
      </cc:Work>
    </rdf:RDF>
  </metadata>
  <g
     inkscape:label="Layer 1"
     inkscape:groupmode="layer"
     id="layer1"
     transform="translate(-36.297622,-95.928558)">
    <circle
       style="opacity:1;fill:#ffffff;fill-opacity:1;stroke:#6b1b10;stroke-width:1.88649583;stroke-linecap:square;stroke-linejoin:miter;stroke-miterlimit:1;stroke-dasharray:none;stroke-opacity:0;paint-order:markers stroke fill"
       id="path1030"
       cx="-67.256584"
       cy="239.14647"
       r="64.822914" />
    <path
       style="opacity:1;fill:#784421;fill-opacity:1;stroke:none;stroke-width:13.22032166;stroke-linecap:round;stroke-linejoin:round;stroke-miterlimit:4;stroke-dasharray:none;stroke-opacity:1;paint-order:normal"
       d="m -54.050426,164.34225 a 64.999999,64.999999 0 0 0 -65.000164,65.00016 64.999999,64.999999 0 0 0 65.000164,64.99965 64.999999,64.999999 0 0 0 64.99965,-64.99965 64.999999,64.999999 0 0 0 -64.99965,-65.00016 z m 0,5.00021 a 59.999998,59.999998 0 0 1 59.9999562,59.99995 59.999998,59.999998 0 0 1 -59.9999562,59.99996 59.999998,59.999998 0 0 1 -59.999954,-59.99996 59.999998,59.999998 0 0 1 59.999954,-59.99995 z"
       id="path815"
       inkscape:connector-curvature="0" />
    <circle
       style="opacity:1;fill:#b4ff69;fill-opacity:1;stroke:#784421;stroke-width:20;stroke-linecap:square;stroke-linejoin:miter;stroke-miterlimit:1;stroke-dasharray:none;stroke-opacity:1;paint-order:markers stroke fill"
       id="path1030-6"
       cy="160.92856"
       cx="101.29762"
       r="55.000217" />
    <g
       id="g1470"
       style="fill:#784421;fill-opacity:1"
       transform="matrix(0.465594,0,0,0.465594,42.161639,89.018118)">
      <rect
         id="rect883"
         ry="4.5640626"
         rx="4.5640626"
         height="18.25625"
         width="164.30624"
         y="219.95653"
         x="44.858788"
         style="fill:#784421;stroke-width:2.2820313;fill-opacity:1" />
      <path
         id="path885"
         d="M 190.90878,197.13623 A 13.707249,13.707249 0 0 0 177.21659,183.44404 H 76.807222 a 13.707249,13.707249 0 0 0 -13.692187,13.69219 v 13.69218 H 190.90878 Z"
         style="fill:#784421;stroke-width:2.2820313;fill-opacity:1"
         inkscape:connector-curvature="0" />
      <path
         id="path887"
         d="m 163.52441,101.29091 c 0,-25.137941 -29.35445,-45.640623 -36.5125,-45.640623 -7.15805,0 -36.5125,20.502682 -36.5125,45.640623 v 73.025 h 73.025 z"
         style="fill:#784421;stroke-width:2.2820313;fill-opacity:1"
         inkscape:connector-curvature="0" />
    </g>
  </g>
</svg>
