<?xml version="1.0" encoding="UTF-8" standalone="no"?>
<!-- Created with Inkscape (http://www.inkscape.org/) -->

<svg
   xmlns:dc="http://purl.org/dc/elements/1.1/"
   xmlns:cc="http://creativecommons.org/ns#"
   xmlns:rdf="http://www.w3.org/1999/02/22-rdf-syntax-ns#"
   xmlns:svg="http://www.w3.org/2000/svg"
   xmlns="http://www.w3.org/2000/svg"
   xmlns:sodipodi="http://sodipodi.sourceforge.net/DTD/sodipodi-0.dtd"
   xmlns:inkscape="http://www.inkscape.org/namespaces/inkscape"
   width="130mm"
   height="130mm"
   viewBox="0 0 130 130"
   version="1.1"
   id="svg8"
   inkscape:version="0.92.5 (2060ec1f9f, 2020-04-08)"
   sodipodi:docname="mosaic.svg">
  <defs
     id="defs2" />
  <sodipodi:namedview
     id="base"
     pagecolor="#ffffff"
     bordercolor="#666666"
     borderopacity="1.0"
     inkscape:pageopacity="0.0"
     inkscape:pageshadow="2"
     inkscape:zoom="0.7"
     inkscape:cx="-126.38499"
     inkscape:cy="240.48353"
     inkscape:document-units="mm"
     inkscape:current-layer="layer1"
     showgrid="false"
     fit-margin-top="0"
     fit-margin-left="0"
     fit-margin-right="0"
     fit-margin-bottom="0"
     inkscape:window-width="1366"
     inkscape:window-height="741"
     inkscape:window-x="0"
     inkscape:window-y="27"
     inkscape:window-maximized="1" />
  <metadata
     id="metadata5">
    <rdf:RDF>
      <cc:Work
         rdf:about="">
        <dc:format>image/svg+xml</dc:format>
        <dc:type
           rdf:resource="http://purl.org/dc/dcmitype/StillImage" />
        <dc:title></dc:title>
      </cc:Work>
    </rdf:RDF>
  </metadata>
  <g
     inkscape:label="Layer 1"
     inkscape:groupmode="layer"
     id="layer1"
     transform="translate(-36.297622,-95.928558)">
    <circle
       style="opacity:1;fill:#ffffff;fill-opacity:1;stroke:#6b1b10;stroke-width:1.88649583;stroke-linecap:square;stroke-linejoin:miter;stroke-miterlimit:1;stroke-dasharray:none;stroke-opacity:0;paint-order:markers stroke fill"
       id="path1030"
       cx="-35.506588"
       cy="187.36372"
       r="64.822914" />
    <path
       style="opacity:1;fill:#784421;fill-opacity:1;stroke:none;stroke-width:13.22032166;stroke-linecap:round;stroke-linejoin:round;stroke-miterlimit:4;stroke-dasharray:none;stroke-opacity:1;paint-order:normal"
       d="m -54.050427,117.4732 a 64.999999,64.999999 0 0 0 -65.000163,65.00017 64.999999,64.999999 0 0 0 65.000163,64.99965 64.999999,64.999999 0 0 0 64.99965,-64.99965 64.999999,64.999999 0 0 0 -64.99965,-65.00017 z m 0,5.00021 a 59.999998,59.999998 0 0 1 59.9999562,59.99996 59.999998,59.999998 0 0 1 -59.9999562,59.99995 59.999998,59.999998 0 0 1 -59.999953,-59.99995 59.999998,59.999998 0 0 1 59.999953,-59.99996 z"
       id="path815"
       inkscape:connector-curvature="0" />
    <circle
       style="opacity:1;fill:#8ee97f;fill-opacity:1;stroke:#784421;stroke-width:20;stroke-linecap:square;stroke-linejoin:miter;stroke-miterlimit:1;stroke-dasharray:none;stroke-opacity:1;paint-order:markers stroke fill"
       id="path1030-6"
       cy="160.92856"
       cx="101.29762"
       r="55.000221" />
    <g
       id="g417411"
       transform="matrix(0.56333165,0,0,0.56333165,10.153043,59.629116)"
       style="fill:#784421;fill-opacity:1">
      <path
         id="path334023"
         d="m 144.04831,262.26433 4.07917,-19.03323 c 4.39684,0.94421 8.96674,1.43713 13.6659,1.43713 v 0 c 2.02207,0 4.02222,-0.0898 5.98513,-0.27165 v 0 l 1.77232,19.38156 c -2.55442,0.24098 -5.14388,0.36367 -7.75745,0.36367 v 0 c -6.08152,0 -12.01626,-0.65066 -17.74507,-1.87748 z m 27.92768,-18.38696 c 6.62702,-1.04499 12.91447,-3.09115 18.71339,-5.98075 v 0 l 8.6907,17.41646 c -7.54275,3.77029 -15.74711,6.43643 -24.37866,7.79469 v 0 z m -56.51916,6.39042 10.7062,-16.25318 c 5.4462,3.59064 11.45543,6.36851 17.86556,8.19341 v 0 l -5.32133,18.72653 c -8.36209,-2.37477 -16.17869,-6.00266 -23.25043,-10.66676 z m 78.95463,-14.3779 c 5.70471,-3.33213 10.87269,-7.51427 15.3002,-12.37335 v 0 l 14.37789,13.11821 c -5.75072,6.31593 -12.45003,11.73804 -19.87887,16.06915 v 0 z m -101.27399,-7.11117 15.85008,-11.31741 c 3.82724,5.37171 8.46286,10.1366 13.72504,14.10843 v 0 h -0.007 l -11.74462,15.52365 c -6.82857,-5.16141 -12.844365,-11.3437 -17.82394,-18.31467 z m 119.32796,-8.48258 c 4.09013,-5.11102 7.4135,-10.84422 9.81456,-17.03966 v 0 0.007 l 18.15256,7.03888 c -3.13278,8.06196 -7.45951,15.51928 -12.76989,22.15506 v 0 z M 80.071837,200.66044 98.942958,195.8627 c 1.643062,6.47148 4.263202,12.55081 7.689532,18.08245 v 0 h 0.007 L 90.085755,224.20443 C 85.634152,217.0122 82.218772,209.08169 80.071837,200.66044 Z m 143.610233,-1.39112 c 1.92348,-6.13629 2.95751,-12.65377 2.95751,-19.4451 v 0 h 0.011 19.46262 c 0,8.78272 -1.34731,17.28283 -3.85791,25.26811 v 0 z M 77.477989,179.82203 c 0,-3.40662 0.20374,-6.76504 0.595884,-10.07526 v 0 l 19.331178,2.30467 c -0.306705,2.54346 -0.455676,5.13731 -0.455676,7.77059 v 0 c 0,4.0748 0.370237,8.0532 1.088803,11.91111 v 0 l -19.138392,3.55339 c -0.939832,-5.01681 -1.421797,-10.19356 -1.421797,-15.4645 z m 144.817341,-23.40378 18.15912,-7.03012 c 3.02981,7.82974 4.92043,16.23346 5.48564,24.98331 v 0 l -19.43414,1.23997 c -0.42501,-6.74094 -1.88624,-13.17736 -4.21062,-19.19316 z M 78.904168,164.3159 c 1.594865,-8.57678 4.488846,-16.70228 8.460676,-24.15083 v 0 l 17.173286,9.17267 c -3.05828,5.72224 -5.275323,11.95274 -6.495571,18.53813 v 0 z m 130.842542,-28.15771 14.39104,-13.11383 c 5.731,6.29184 10.52217,13.46216 14.15881,21.28314 v 0 l -17.65306,8.19998 c -2.7954,-6.00485 -6.48243,-11.51678 -10.89679,-16.36929 z m -119.632475,-0.758 c 4.534853,-7.2952 10.140985,-13.84335 16.610265,-19.43195 v 0 l 12.7195,14.73718 c -4.98177,4.30482 -9.30193,9.35012 -12.7896,14.96063 v 0 z M 190.73319,121.76496 h -0.004 l 8.69728,-17.41646 c 7.71363,3.84477 14.74155,8.84625 20.87346,14.76347 v 0 l -13.50597,14.00984 c -4.72544,-4.55895 -10.13878,-8.39933 -16.06038,-11.35685 z m -79.73453,-9.24715 c 6.7716,-5.12197 14.34941,-9.24497 22.50338,-12.14771 v 0 l 6.53501,18.33877 c -6.26336,2.2258 -12.08637,5.39582 -17.30255,9.33697 v 0 z m 56.8171,2.7231 1.78327,-19.381556 c 8.71918,0.79743 17.06375,2.93122 24.819,6.191056 v 0 l -7.53837,17.94443 c -5.95227,-2.49308 -12.34926,-4.13176 -19.0639,-4.75393 z M 138.75107,98.689794 c 7.33245,-2.07902 15.06798,-3.18754 23.04231,-3.18754 v 0 c 0.77334,0 1.55105,0.004 2.31782,0.0329 v 0 l -0.51921,19.453856 c -0.60027,-0.0153 -1.19615,-0.0241 -1.79642,-0.0175 v 0 c -6.16477,0 -12.1017,0.84782 -17.73412,2.44707 v 0 z"
         style="fill:#784421;stroke-width:2.19074988;fill-opacity:1"
         inkscape:connector-curvature="0" />
      <path
         id="path334027"
         d="m 161.79557,238.70939 c -0.25631,0 -0.49949,0 -0.74923,0 v 0 l 0.24317,-19.47139 c 0.1665,0.004 0.33519,0.004 0.50606,0.004 v 0 c 6.16258,-0.004 11.93083,-1.40208 17.10976,-3.89297 v 0 l 8.46068,17.52819 c -7.7202,3.73523 -16.4131,5.83178 -25.52662,5.83178 v 0 c -0.0132,0 -0.0285,0 -0.0438,0 z m -31.96523,-9.4268 10.57694,-16.33642 c 5.00587,3.23574 10.75658,5.36077 16.97831,6.05523 v 0 l -2.14255,19.34213 c -9.29097,-1.02527 -17.951,-4.22595 -25.4127,-9.06094 z m 52.50132,-15.80188 c 5.19646,-3.17878 9.61302,-7.54056 12.85313,-12.69758 v 0 0.007 l 16.47225,10.36663 c -4.83717,7.69829 -11.40723,14.18291 -19.17344,18.93027 v 0 z m -73.92028,-8.76081 17.64211,-8.23941 c 2.58508,5.54041 6.43861,10.39511 11.18159,14.18292 v 0 l -12.13676,15.21695 c -7.06955,-5.63899 -12.80931,-12.86409 -16.68694,-21.16046 z m 88.68594,-7.33244 c 2.63547,-5.29066 4.11642,-11.21883 4.11642,-17.56543 v 0 c 0,-1.52695 -0.0876,-3.02762 -0.24756,-4.50637 v 0 l 19.33995,-2.19294 c 0.24755,2.2017 0.3768,4.43627 0.3768,6.69931 v 0 c 0,9.40051 -2.21703,18.34972 -6.16696,26.24957 v 0 z m -94.19349,-17.56762 c 0,-2.46679 0.15336,-4.90509 0.44911,-7.29958 v 0 l 19.32022,2.39449 c -0.20155,1.60363 -0.30013,3.23793 -0.30013,4.90509 v 0 c 0,4.59838 0.7799,8.97112 2.20608,13.05249 v 0 h 0.002 l -18.37382,6.44738 c -2.14255,-6.1122 -3.30365,-12.69102 -3.30365,-19.49987 z m 89.67835,-24.62403 v -0.007 l 15.18847,-12.16962 c 5.58861,6.97973 9.63711,15.27391 11.59564,24.35895 v 0 l -19.02885,4.0967 c -1.31007,-6.05742 -4.00469,-11.59783 -7.75526,-16.27946 z m -88.22807,11.58249 c 2.04397,-9.04998 6.1823,-17.30911 11.84758,-24.23626 v 0 l 15.0614,12.32954 c -3.80095,4.64658 -6.55691,10.16289 -7.91956,16.20498 v 0 z m 70.40194,-24.20121 6.40356,-18.38258 c 8.70166,3.02323 16.45692,8.03129 22.75313,14.46552 v 0 l -13.92221,13.60017 c -4.22815,-4.31577 -9.43118,-7.66543 -15.23448,-9.68311 z m -40.87501,9.39832 0.004,-0.002 v 0 l 0.002,0.002 z m -13.77763,-13.75134 c 6.35318,-6.36632 14.15663,-11.28674 22.89772,-14.22673 v 0 l 6.21297,18.4483 c -5.83178,1.95853 -11.05891,5.25561 -15.32868,9.52758 v 0 z m 41.69216,2.16884 c -3.0539,0.007 -6.00922,0.34833 -8.83967,0.9946 v 0 l -4.33769,-18.97627 c 4.24129,-0.96613 8.66004,-1.48095 13.17736,-1.48095 v 0 c 4.72545,0 9.34355,0.56083 13.76887,1.62115 v 0 l -4.53924,18.93027 c -2.95532,-0.70761 -6.03989,-1.08223 -9.22963,-1.0888 z"
         style="fill:#784421;stroke-width:2.19074988;fill-opacity:1"
         inkscape:connector-curvature="0" />
      <path
         id="path334031"
         d="m 151.70936,212.90674 5.67185,-18.63233 c 1.38456,0.42281 2.85455,0.65284 4.41217,0.65284 v 0 c 2.86989,0 5.48126,-0.77991 7.75088,-2.13379 v 0 h 0.007 l 10.00954,16.68913 c -5.18113,3.11525 -11.30427,4.91386 -17.76699,4.91386 v 0 c -3.48767,0.002 -6.88772,-0.5214 -10.08402,-1.48971 z m -23.48265,-24.75986 18.8996,-4.67725 c 1.01651,4.15585 3.82724,7.69172 7.53399,9.67873 v 0 l -9.20553,17.15357 c -8.49573,-4.56552 -14.84233,-12.53985 -17.22806,-22.15505 z m 43.70108,2.88084 c 3.07363,-2.7954 4.9752,-6.73437 4.9752,-11.20788 v 0 c 0,-0.48854 -0.0263,-0.97927 -0.0679,-1.45247 v 0 l 19.37938,-1.83366 c 0.10296,1.08881 0.15554,2.18199 0.15554,3.28613 v 0 c 0,10.14536 -4.40779,19.34651 -11.37656,25.64054 v 0 z m -44.7132,-11.20788 c -0.004,-9.54948 3.9061,-18.28181 10.18698,-24.50792 v 0 l 13.73601,13.79734 c -2.76911,2.76692 -4.44942,6.49119 -4.45599,10.71058 v 0 c 0,0.23879 0.007,0.48416 0.0219,0.72952 v 0 l -19.4451,0.91135 c -0.0329,-0.54769 -0.0438,-1.08661 -0.0438,-1.64087 z m 41.06999,-13.65495 8.36866,-17.572 c 8.74547,4.17338 15.43822,11.86729 18.27086,21.30285 v 0 l -18.64767,5.58203 c -1.22025,-4.08794 -4.18214,-7.49893 -7.99185,-9.31288 z m -25.65807,-15.12931 c 5.47688,-3.65637 12.11266,-5.79892 19.16687,-5.79235 v 0 c 2.9137,0 5.77263,0.36367 8.49135,1.04937 v 0 l -4.76926,18.8755 c -1.18082,-0.30232 -2.42516,-0.46005 -3.72209,-0.46005 v 0 c -3.13277,0.007 -5.95884,0.9223 -8.36428,2.52374 v 0 z m 25.65368,15.12712 0.004,0.002 v 0 l -0.004,0.004 z"
         style="fill:#784421;stroke-width:2.19074988;fill-opacity:1"
         inkscape:connector-curvature="0" />
    </g>
  </g>
</svg>
