<?xml version="1.0" encoding="UTF-8" standalone="no"?>
<svg
   xmlns:dc="http://purl.org/dc/elements/1.1/"
   xmlns:cc="http://creativecommons.org/ns#"
   xmlns:rdf="http://www.w3.org/1999/02/22-rdf-syntax-ns#"
   xmlns:svg="http://www.w3.org/2000/svg"
   xmlns="http://www.w3.org/2000/svg"
   xmlns:sodipodi="http://sodipodi.sourceforge.net/DTD/sodipodi-0.dtd"
   xmlns:inkscape="http://www.inkscape.org/namespaces/inkscape"
   version="1.1"
   id="beer-15"
   width="9"
   height="13.5"
   viewBox="0 0 9 13.5"
   sodipodi:docname="beer.svg"
   inkscape:version="0.92.3 (2405546, 2018-03-11)">
  <metadata
     id="metadata904">
    <rdf:RDF>
      <cc:Work
         rdf:about="">
        <dc:format>image/svg+xml</dc:format>
        <dc:type
           rdf:resource="http://purl.org/dc/dcmitype/StillImage" />
        <dc:title></dc:title>
      </cc:Work>
    </rdf:RDF>
  </metadata>
  <defs
     id="defs902" />
  <sodipodi:namedview
     pagecolor="#ffffff"
     bordercolor="#666666"
     borderopacity="1"
     objecttolerance="10"
     gridtolerance="10"
     guidetolerance="10"
     inkscape:pageopacity="0"
     inkscape:pageshadow="2"
     inkscape:window-width="732"
     inkscape:window-height="414"
     id="namedview900"
     showgrid="false"
     inkscape:zoom="9.3833333"
     inkscape:cx="-2.7159159"
     inkscape:cy="4.5286421"
     inkscape:window-x="580"
     inkscape:window-y="68"
     inkscape:window-maximized="0"
     inkscape:current-layer="beer-15"
     fit-margin-top="0"
     fit-margin-left="0"
     fit-margin-right="0"
     fit-margin-bottom="0" />
  <path
     d="M 9,4 V 1 C 9,1 8,0 4.5,0 1,0 0,1 0,1 v 3 c 0.0288,1.3915 0.3706,2.7586 1,4 0.6255,1.4348 0.6255,3.0652 0,4.5 0,0 0,1 3.5,1 3.5,0 3.5,-1 3.5,-1 C 7.3745,11.0652 7.3745,9.4348 8,8 8.6294,6.7586 8.9712,5.3915 9,4 Z M 4.5,12.5 C 3.7034,12.535 2.9063,12.4404 2.14,12.22 2.343,11.4976 2.444,10.7504 2.44,10 h 4.12 c -0.004,0.7504 0.097,1.4976 0.3,2.22 C 6.0937,12.4404 5.2966,12.535 4.5,12.5 Z M 4.5,4 C 3.3136,4.0299 2.1306,3.8609 1,3.5 v -2 C 2.131,1.1411 3.3137,0.9722 4.5,1 5.6863,0.9722 6.869,1.1411 8,1.5 v 2 C 6.8694,3.8609 5.6864,4.0299 4.5,4 Z"
     id="path897"
     style="fill:#d45500"
     inkscape:connector-curvature="0" />
</svg>
