<?xml version="1.0" encoding="UTF-8" standalone="no"?>
<svg
   xmlns:dc="http://purl.org/dc/elements/1.1/"
   xmlns:cc="http://creativecommons.org/ns#"
   xmlns:rdf="http://www.w3.org/1999/02/22-rdf-syntax-ns#"
   xmlns:svg="http://www.w3.org/2000/svg"
   xmlns="http://www.w3.org/2000/svg"
   xmlns:sodipodi="http://sodipodi.sourceforge.net/DTD/sodipodi-0.dtd"
   xmlns:inkscape="http://www.inkscape.org/namespaces/inkscape"
   version="1.1"
   id="bicycle-15"
   width="15px"
   height="15px"
   viewBox="0 0 15 15"
   sodipodi:docname="bicycle.svg"
   inkscape:version="0.92.3 (2405546, 2018-03-11)">
  <metadata
     id="metadata8">
    <rdf:RDF>
      <cc:Work
         rdf:about="">
        <dc:format>image/svg+xml</dc:format>
        <dc:type
           rdf:resource="http://purl.org/dc/dcmitype/StillImage" />
      </cc:Work>
    </rdf:RDF>
  </metadata>
  <defs
     id="defs6" />
  <sodipodi:namedview
     pagecolor="#ffffff"
     bordercolor="#666666"
     borderopacity="1"
     objecttolerance="10"
     gridtolerance="10"
     guidetolerance="10"
     inkscape:pageopacity="0"
     inkscape:pageshadow="2"
     inkscape:window-width="1366"
     inkscape:window-height="741"
     id="namedview4"
     showgrid="false"
     inkscape:zoom="22.250293"
     inkscape:cx="-0.57732132"
     inkscape:cy="9.6275705"
     inkscape:window-x="0"
     inkscape:window-y="27"
     inkscape:window-maximized="1"
     inkscape:current-layer="bicycle-15" />
  <path
     style="fill:#000000;fill-opacity:0.94117647"
     d="M 7.5,2 C 6.8239,1.99 6.8239,3.0096 7.5,3 H 9 V 4.2656 L 6.1973,6.5996 5.2226,4 H 5.5 c 0.6761,0.01 0.6761,-1.0096 0,-1 h -2 C 2.8239,2.99 2.8239,4.0096 3.5,4 H 4.1523 L 5.043,6.375 C 4.5752,6.1424 4.0559,6 3.5,6 1.5729,6 0,7.5729 0,9.5 0,11.4271 1.5729,13 3.5,13 5.4271,13 7,11.4271 7,9.5 7,8.8301 6.7997,8.2089 6.4707,7.6758 L 9.291,5.3262 9.7539,6.4864 C 8.7114,7.0937 8,8.2112 8,9.5 8,11.4271 9.5729,13 11.5,13 13.4271,13 15,11.4271 15,9.5 15,7.5729 13.4271,6 11.5,6 11.2169,6 10.9456,6.0434 10.6816,6.1074 L 10,4.4023 V 2.5 C 10,2.2239 9.7761,2 9.5,2 Z"
     id="path1494" />
  <path
     style="fill:#00ff77;fill-opacity:1"
     d="M 3.5,7 C 4.0923,7 4.6276,7.2119 5.0547,7.5527 L 3.1797,9.1152 C 2.6688,9.5425 3.3075,10.3097 3.8203,9.8847 L 5.6953,8.3222 C 5.8835,8.674 6,9.0711 6,9.5 6,10.8866 4.8866,12 3.5,12 2.1134,12 1,10.8866 1,9.5 1,8.1134 2.1133,7 3.5,7 Z"
     id="path1492" />
  <path
     style="fill:#00ff77;fill-opacity:1"
     d="M 11.5,7 C 12.8866,7 14,8.1134 14,9.5 14,10.8866 12.8866,12 11.5,12 10.1134,12 9,10.8866 9,9.5 9,8.623 9.4468,7.8579 10.125,7.4121 l 0.9102,2.2734 c 0.246,0.6231 1.1804,0.2501 0.9297,-0.3711 L 11.0567,7.0449 C 11.2009,7.0193 11.3481,7 11.5,7 Z"
     id="path4668" />
</svg>
