<?xml version="1.0" encoding="UTF-8" standalone="no"?>
<!-- Created with Inkscape (http://www.inkscape.org/) -->

<svg
   xmlns:dc="http://purl.org/dc/elements/1.1/"
   xmlns:cc="http://creativecommons.org/ns#"
   xmlns:rdf="http://www.w3.org/1999/02/22-rdf-syntax-ns#"
   xmlns:svg="http://www.w3.org/2000/svg"
   xmlns="http://www.w3.org/2000/svg"
   xmlns:sodipodi="http://sodipodi.sourceforge.net/DTD/sodipodi-0.dtd"
   xmlns:inkscape="http://www.inkscape.org/namespaces/inkscape"
   width="186.67123mm"
   height="186.67323mm"
   viewBox="0 0 186.67123 186.67323"
   version="1.1"
   id="svg1550"
   inkscape:version="0.92.3 (2405546, 2018-03-11)"
   sodipodi:docname="cog.svg">
  <defs
     id="defs1544" />
  <sodipodi:namedview
     id="base"
     pagecolor="#ffffff"
     bordercolor="#666666"
     borderopacity="1.0"
     inkscape:pageopacity="0.0"
     inkscape:pageshadow="2"
     inkscape:zoom="0.7"
     inkscape:cx="264.46882"
     inkscape:cy="312.15161"
     inkscape:document-units="mm"
     inkscape:current-layer="layer1"
     showgrid="false"
     fit-margin-top="0"
     fit-margin-left="0"
     fit-margin-right="0"
     fit-margin-bottom="0"
     inkscape:window-width="1366"
     inkscape:window-height="741"
     inkscape:window-x="0"
     inkscape:window-y="27"
     inkscape:window-maximized="1" />
  <metadata
     id="metadata1547">
    <rdf:RDF>
      <cc:Work
         rdf:about="">
        <dc:format>image/svg+xml</dc:format>
        <dc:type
           rdf:resource="http://purl.org/dc/dcmitype/StillImage" />
        <dc:title />
      </cc:Work>
    </rdf:RDF>
  </metadata>
  <g
     inkscape:label="Layer 1"
     inkscape:groupmode="layer"
     id="layer1"
     transform="translate(4.1332332,50.336617)">
    <path
       style="fill:#000000;stroke-width:2.19074988"
       d="m 174.17347,42.792345 c 1.85776,-1.229011 4.05946,-1.945386 6.12972,-2.828259 2.16446,-0.924496 2.31124,-1.077849 2.21266,-3.180969 -0.13364,-2.749391 -0.24317,-2.885217 -2.52594,-3.562159 -1.89938,-0.560832 -3.836,-1.042797 -5.68499,-1.7526 -5.4002,-2.076831 -6.64893,-8.679752 -2.40106,-12.614339 1.24215,-1.152334 2.58289,-2.223611 3.97183,-3.196304 2.61356,-1.827085 2.40763,-1.697831 1.40646,-4.749546 -0.40967,-1.2355833 -1.07566,-1.9125253 -2.45583,-1.8489933 -0.98803,0.0482 -1.98263,-0.08544 -2.97285,-0.138017 0,-0.01095 0,-0.02191 0,-0.03067 -1.18081,0 -2.37258,0.0942 -3.54025,-0.01535 -5.8515,-0.55645 -8.87692,-6.83733 -5.63242,-11.727084 1.14357,-1.730693 2.48431,-3.32775 3.68703,-5.019009 0.2848,-0.400907 0.54769,-0.937641 0.53674,-1.40427 -0.0635,-2.0395887 -2.57852,-3.9411597 -4.53705,-3.4679577 -2.02206,0.488538 -4.00688,1.150144 -6.04647,1.522572 -5.30819,0.96393 -9.84085,-3.667316 -8.66441,-8.933879 0.46005,-2.057114 1.43713,-3.995928 2.1535,-5.996082 0.4031,-1.126046 0.83687,-2.245519 -0.46225,-3.174397 -1.35607,-0.974884 -2.47992,-2.403253 -4.46474,-1.066895 -1.75699,1.185195 -3.59283,2.322195 -5.52946,3.163443 -5.26656,2.282761 -10.81792,-1.485329 -10.68648,-7.207568 0.0438,-1.934432 0.31766,-3.868864 0.53893,-5.794534 0.15116,-1.310068 -0.2607,-2.181987 -1.5642,-2.631091 -1.38674,-0.475392 -2.69024,-1.511617 -4.09889,0.0701 -1.48095,1.654017 -2.96847,3.343085 -4.68163,4.734211 -4.44065,3.610356 -11.03043,1.292543 -12.3405,-4.269772 -0.4031,-1.702212 -0.59369,-3.450431 -0.93326,-5.165788 -0.425,-2.138172 -0.59369,-2.267426 -2.7472,-2.532507 -0.3308,-0.04162 -0.6616,-0.06353 -0.98364,-0.122682 -1.07347,-0.192786 -1.79861,0.177451 -2.295914,1.187386 -0.8062,1.656207 -1.68031,3.283935 -2.5588,4.90509 -1.548856,2.845784 -4.006878,4.243483 -7.190037,4.210621 -3.167825,-0.03505 -5.463731,-1.612389 -6.896481,-4.427503 -0.773335,-1.515999 -1.572959,-3.025425 -2.241138,-4.589621 -0.549878,-1.283779 -1.441513,-1.643062 -2.71653,-1.406461 -0.464439,0.08763 -0.928878,0.203739 -1.399889,0.219075 -1.152334,0.03067 -1.675924,0.670369 -1.879663,1.735074 -0.317659,1.673733 -0.665988,3.340893 -1.018699,5.005863 -0.385572,1.798606 -1.112901,3.417571 -2.539079,4.648772 -3.272981,2.826068 -7.748683,2.692432 -10.901172,-0.394335 -1.380173,-1.353884 -2.661762,-2.819495 -3.954304,-4.26539 -0.661607,-0.740474 -1.413034,-0.893826 -2.295906,-0.563023 -0.619982,0.232219 -1.218057,0.523589 -1.838039,0.747046 -0.924497,0.332994 -1.325404,0.937641 -1.242156,1.947576 0.155544,1.83804 0.245364,3.682651 0.352711,5.525072 0.179642,3.165634 -1.049369,5.689378 -3.726466,7.323677 -2.679287,1.636491 -5.490019,1.526953 -8.215312,-0.04601 -1.189577,-0.683514 -2.352866,-1.408653 -3.527108,-2.114074 -2.933414,-1.765745 -2.418588,-1.667161 -5.251227,0.46882 -0.804006,0.606838 -1.031844,1.336358 -0.740474,2.225802 0.532352,1.618965 1.034034,3.253264 1.704404,4.813078 2.317813,5.411152 -1.864329,11.418189 -7.693914,10.844212 -1.857756,-0.184023 -3.671697,-0.834675 -5.496592,-1.307877 -3.178778,-0.823722 -3.277362,-0.78648 -5.161407,1.844611 -0.567404,0.790861 -0.652843,1.51819 -0.08982,2.3397207 1.018699,1.478756 1.982629,2.996946 3.016663,4.464749 1.855565,2.626709 2.234565,5.42648697 0.768953,8.294179 -1.472184,2.883027 -3.998118,4.166807 -7.2031862,4.168997 -1.700022,0 -3.402234,-0.0088 -5.1066379,0.03943 -1.8862358,0.05477 -3.92144249,2.8063513 -3.4285238,4.6421993 0.08763,0.324231 0.4009073,0.622173 0.674751,0.858774 1.4064615,1.187387 2.8173045,2.370392 4.2544367,3.518345 2.536888,2.026443 3.559969,4.712303 2.896171,7.810023 -0.67256,3.145917 -2.898362,4.990529 -5.9719842,5.829586 -1.3210222,0.363665 -2.63547219,0.738283 -3.93677769,1.165479 -2.95970331,0.966121 -2.87645481,0.988028 -3.12620031,4.013454 -0.113919,1.410843 0.4337685,2.048351 1.6518255,2.525935 1.75698151,0.687895 3.4942463,1.450276 5.1679793,2.313432 2.7011947,1.393317 4.1602344,3.684841 4.2412924,6.723412 0.08106,2.975039 -1.4064619,5.117589 -3.8798187,6.642349 -1.568577,0.96832 -3.11524649,1.96949 -4.705731,2.90275 -1.1085195,0.65065 -1.6408717,1.51161 -1.3516927,2.81292 0.1423987,0.64408 0.26289,1.29473 0.368046,1.94977 0.1467802,0.89601 0.6944677,1.2312 1.5620047,1.33197 1.96948431,0.2388 3.9323963,0.52359 5.8843545,0.86316 3.0429522,0.52797 5.2052224,2.2017 6.1976324,5.17017 0.946404,2.8414 0.357092,5.40896 -1.7000222,7.60847 -1.062514,1.13919 -2.144745,2.26086 -3.231357,3.38252 -1.9804377,2.04835 -2.2937149,2.14694 -0.5783577,5.43087 0.4622487,0.88287 1.1413807,1.19615 2.0965477,1.05594 1.682496,-0.24098 3.3649922,-0.50825 5.0518702,-0.68132 3.310223,-0.33299 6.256782,0.42062 8.23722,3.31241 1.9892,2.90494 1.75479,5.85807 -0.08763,8.78491 -0.655035,1.03623 -1.191768,2.14913 -1.778889,3.233556 -1.454658,2.65081 -1.397699,2.66176 0.606837,4.89413 0.968312,1.07785 1.881855,1.16329 3.121819,0.58055 1.750409,-0.8281 3.527107,-1.62115 5.354193,-2.24333 2.893981,-0.98145 5.632418,-0.57397 7.932706,1.54229 2.324385,2.12941 3.113055,4.77365 2.271807,7.86041 -0.348329,1.28159 -0.665988,2.56975 -0.955167,3.8601 -0.755808,3.34966 -0.674751,3.46796 2.414207,5.05407 0.823722,0.42062 1.483138,0.37023 2.195131,-0.23442 1.404271,-1.20053 2.854548,-2.34191 4.289489,-3.503 2.635472,-2.1316 5.538216,-2.60919 8.61841,-1.16548 3.145917,1.47656 4.563333,4.0967 4.587431,7.53837 0.01095,1.6102 0.08325,3.21602 0.09858,4.82622 0.01095,1.24435 0.466629,2.07902 1.794224,2.2981 0.600265,0.10296 1.178623,0.34833 1.774507,0.48853 0.96393,0.23003 1.682496,-0.004 2.256473,-0.93326 0.942022,-1.52914 2.000155,-2.99256 3.060478,-4.44503 1.962912,-2.68148 4.622482,-3.89953 7.904226,-3.35623 3.395662,0.55864 5.549169,2.63109 6.550342,5.93694 0.521399,1.71973 1.040606,3.45043 1.728502,5.10225 0.219075,0.5214 0.922306,0.99679 1.500664,1.16986 0.747045,0.22565 1.590484,0.13802 2.392299,0.1665 0.96393,0.0285 1.54886,-0.35928 1.844611,-1.36922 0.578358,-1.94977 1.220248,-3.88639 1.958531,-5.77701 1.163288,-2.9838 3.375945,-4.80431 6.550349,-5.1855 3.126204,-0.37243 5.630224,0.88725 7.437594,3.47891 0.81277,1.16329 1.56201,2.37258 2.35944,3.54025 1.87309,2.76692 1.8709,2.72968 5.04968,1.91253 1.07785,-0.27823 1.59267,-0.80401 1.64306,-1.9432 0.10297,-2.2258 0.12049,-4.47132 0.53235,-6.64893 0.26947,-1.41084 0.91574,-2.9356 1.849,-4.01345 2.88521,-3.34966 7.47484,-3.57092 11.083,-0.73171 1.40865,1.1129 2.79321,2.26743 4.10985,3.49206 1.03622,0.95954 2.03959,1.04936 3.18973,0.28917 0.35271,-0.23002 0.72514,-0.45129 1.10852,-0.62874 1.13043,-0.52578 1.42618,-1.3736 1.15233,-2.56537 -0.47539,-2.07245 -0.88287,-4.16461 -1.31006,-6.2524 -0.44692,-2.18856 0.1402,-4.14052 1.50066,-5.85149 2.22799,-2.81731 6.05304,-3.67827 9.80361,-2.17323 1.7526,0.70104 3.42633,1.60363 5.19426,2.25429 0.61341,0.23002 1.67812,0.26727 2.07245,-0.10297 2.40764,-2.26085 3.18097,-2.54565 1.3517,-5.685 -0.0482,-0.0811 -0.0898,-0.16649 -0.13583,-0.25193 -0.57836,-1.13919 -1.13043,-2.287156 -1.73727,-3.411006 -1.46342,-2.71653 -1.68249,-5.40239 0.17965,-8.02472 1.93881,-2.72967 4.63124,-3.79 7.89984,-3.411 1.87528,0.21908 3.74837,0.49511 5.6127,0.81058 1.29912,0.2147 2.21266,-0.14021 2.67929,-1.43932 0.14459,-0.39872 0.379,-0.76238 0.57836,-1.13919 0.57616,-1.09099 0.45567,-2.07245 -0.39872,-2.99037 -1.32321,-1.41742 -2.6048,-2.8677 -3.9302,-4.28511 -4.74517,-5.0935 -1.15453,-11.75557 4.35959,-12.71511 1.48971,-0.25632 2.97504,-0.67695 4.47132,-0.70762 2.47555,-0.0438 3.70456,-1.11071 4.05946,-3.59721 0.17964,-1.27282 0.0394,-2.05273 -1.08223,-2.71872 -1.90815,-1.13262 -3.83601,-2.25866 -5.6127,-3.5753 -4.29826,-3.18316 -4.23472,-9.168291 0.22564,-12.125803 z"
       id="path2133"
       inkscape:connector-curvature="0" />
    <path
       d="m 133.18892,-8.9575523 c 4.53266,0.04601 7.99405,3.29927 7.97214,7.490174 -0.0241,4.140518 -3.79876,7.73992 -8.07291,7.696105 -4.58305,-0.04601 -8.20436,-3.544633 -8.16931,-7.880128 0.0416,-4.234719 3.57092,-7.354347 8.27008,-7.306151 z"
       id="path2131"
       style="fill:#00ff77;fill-opacity:1;stroke-width:2.19074988"
       inkscape:connector-curvature="0" />
    <path
       d="m 45.894103,-9.6892623 c 4.618101,0.01752 7.816596,3.031998 7.838504,7.387209 0.01971,4.311396 -3.603784,7.777162 -8.107966,7.753064 -4.473511,-0.0241 -7.864792,-3.318986 -7.847266,-7.621619 0.02191,-3.888582 3.956494,-7.53399 8.116728,-7.518654 z"
       id="path2129"
       style="fill:#00ff77;fill-opacity:1;stroke-width:2.19074988"
       inkscape:connector-curvature="0" />
    <path
       d="m 44.297047,92.964898 c -4.6422,-0.007 -8.186833,-3.38909 -8.162735,-7.80345 0.01971,-4.13394 3.662934,-7.49017 8.173688,-7.5318 4.331113,-0.0372 7.882319,3.30146 7.88451,7.42665 0.0021,4.44503 -3.454813,7.9086 -7.895463,7.9086 z"
       id="path2127"
       style="fill:#00ff77;fill-opacity:1;stroke-width:2.19074988"
       inkscape:connector-curvature="0" />
    <path
       d="m 132.00373,93.926638 c -4.72326,-0.14897 -8.18903,-3.60378 -8.05758,-7.95242 0.14897,-4.86347 4.60934,-7.58 8.39714,-7.49456 4.47351,0.10516 8.0532,3.55997 7.96995,7.61943 -0.0986,4.59401 -3.68484,7.97652 -8.30951,7.82755 z"
       id="path2125"
       style="fill:#00ff77;fill-opacity:1;stroke-width:2.19074988"
       inkscape:connector-curvature="0" />
    <path
       sodipodi:nodetypes="cccccccccccccccccccccccccccccc"
       inkscape:connector-curvature="0"
       style="fill:#00ff77;fill-opacity:1;stroke-width:2.19074988"
       id="path1557"
       d="m 152.97359,65.672538 c -1.92129,5.14607 -6.95344,6.93372 -11.83224,4.44722 -6.61169,-3.37375 -13.11164,-3.3628 -19.34433,0.81934 -7.5077,5.03654 -10.07964,15.24324 -5.94131,23.31835 1.68688,3.29269 1.95415,6.480232 -0.52578,9.391742 -0.96831,1.137 -2.35725,2.14475 -3.75495,2.63985 -15.703294,5.52069 -31.415356,5.53603 -47.044166,-0.31765 -5.667471,-2.12065 -7.345585,-6.889912 -4.482275,-12.224392 4.35083,-8.11673 2.322195,-17.9532 -4.959858,-23.27891 -5.89969,-4.32016 -12.281344,-4.78241 -18.890837,-1.7526 -2.125028,0.97708 -4.247864,1.6343 -6.57225,1.02089 -2.786634,-0.72952 -4.576477,-2.58289 -5.487829,-5.26656 -4.52828,-13.38548 -4.99491,-26.902412 -1.213675,-40.526686 1.778009,-5.154826 1.555083,-5.333276 4.598384,-8.84844 1.59157,-2.204974 5.117592,-2.138172 7.363111,-1.748218 1.616773,0.282607 3.216021,0.722947 4.784598,1.222438 8.125491,2.587276 16.864393,-0.370236 21.241512,-7.4638853 3.224784,-5.22932 3.783425,-10.813542 1.384554,-16.586168 -0.598075,-1.4371317 -1.358265,-2.8611197 -1.632109,-4.3661647 -0.67256,-3.687032 1.48971,-7.076122 5.308187,-8.532971 8.103584,-3.082385 16.509492,-4.339876 25.156382,-4.11861 7.481407,0.190595 15.369731,1.871709 23.395021,5.597366 3.96401,2.142773 4.68821,5.187696 3.82724,7.735538 -0.51044,1.515999 -1.25749,2.950941 -1.8468,4.4450317 -2.58508,6.57225 -1.93224,12.864084 2.4865,18.336578 4.62029,5.7200483 10.87927,7.5515153 18.07369,6.1713423 0.41843,-0.08106 0.82591,-0.212502 1.23996,-0.295751 2.23019,-0.435959 4.44723,-0.988028 6.69494,-1.261872 4.08574,-0.501682 7.42007,1.643063 8.74766,5.54917 5.23808,15.392209 4.89852,30.712122 -0.77333,45.894022 z" />
  </g>
</svg>
