<?xml version="1.0" encoding="UTF-8" standalone="no"?>
<svg
   xmlns:dc="http://purl.org/dc/elements/1.1/"
   xmlns:cc="http://creativecommons.org/ns#"
   xmlns:rdf="http://www.w3.org/1999/02/22-rdf-syntax-ns#"
   xmlns:svg="http://www.w3.org/2000/svg"
   xmlns="http://www.w3.org/2000/svg"
   xmlns:sodipodi="http://sodipodi.sourceforge.net/DTD/sodipodi-0.dtd"
   xmlns:inkscape="http://www.inkscape.org/namespaces/inkscape"
   id="convenience-15"
   width="12.994852"
   height="12.7702"
   viewBox="0 0 12.994852 12.7702"
   version="1.1"
   sodipodi:docname="convenience.svg"
   inkscape:version="0.92.3 (2405546, 2018-03-11)">
  <metadata
     id="metadata10">
    <rdf:RDF>
      <cc:Work
         rdf:about="">
        <dc:format>image/svg+xml</dc:format>
        <dc:type
           rdf:resource="http://purl.org/dc/dcmitype/StillImage" />
        <dc:title></dc:title>
      </cc:Work>
    </rdf:RDF>
  </metadata>
  <defs
     id="defs8" />
  <sodipodi:namedview
     pagecolor="#ffffff"
     bordercolor="#666666"
     borderopacity="1"
     objecttolerance="10"
     gridtolerance="10"
     guidetolerance="10"
     inkscape:pageopacity="0"
     inkscape:pageshadow="2"
     inkscape:window-width="742"
     inkscape:window-height="480"
     id="namedview6"
     showgrid="false"
     fit-margin-top="0"
     fit-margin-left="0"
     fit-margin-right="0"
     fit-margin-bottom="0"
     inkscape:zoom="15.733333"
     inkscape:cx="6.4966518"
     inkscape:cy="6.4978"
     inkscape:window-x="0"
     inkscape:window-y="27"
     inkscape:window-maximized="0"
     inkscape:current-layer="convenience-15" />
  <g
     id="convenience-store-15"
     style="fill:#a02c89;fill-opacity:1"
     transform="translate(-1.0033482,-1.2276)">
    <path
       d="m 2.9982,3.0687 c 0,0 0.1875,-1.062 1,-1.062 H 5.0043 V 1.7276 a 0.5,0.5 0 0 1 0.5,-0.5 h 3.9839 a 0.5,0.5 0 0 1 0.5,0.5 v 0.2791 h 1.01 a 0.8324,0.8324 0 0 1 0.6373,0.2937 1.7589,1.7589 0 0 1 0.3627,0.7683 c 0,0 0.3108,1.5719 0.5921,2.9181 h -0.938 L 11,3 3.982,2.9956 3.3336,5.9868 H 2.382 Z m 11,4.9144 a 1,1 0 0 1 -0.9992,1 l -1.0008,3.973 c 0,0 -0.1875,1.0417 -1,1.0417 h -7 c -0.8125,0 -1,-1.0417 -1,-1.0417 L 1.9822,8.98 a 0.9985,0.9985 0 0 1 0.016,-1.9968 h 11 a 1,1 0 0 1 1,0.9999 z M 5.0327,12.13 5.03,11.0051 4.6392,9.4686 A 0.53732957,0.53732957 0 1 0 3.5743,9.6131 L 3.78,11.0075 3.9674,12.2747 A 0.5375412,0.5375412 0 1 0 5.0327,12.13 Z m 2,-2.5967 A 0.5332,0.5332 0 0 0 6.4994,9 L 6.4955,9.0008 6.4886,9 A 0.4992,0.4992 0 0 0 6.1311,9.1509 0.529,0.529 0 0 0 5.9663,9.5337 v 2.68 a 0.5332,0.5332 0 1 0 1.0663,0 z m 1.998,0 A 0.5314,0.5314 0 0 0 8.694,9.04 0.4992,0.4992 0 0 0 8.301,9.04 0.5312,0.5312 0 0 0 7.9644,9.5334 v 2.68 a 0.5331,0.5331 0 1 0 1.0662,0 z m 2.3857,0.08 A 0.53732957,0.53732957 0 1 0 10.3515,9.4688 L 9.96,10.9938 9.9579,12.13 a 0.53733629,0.53733629 0 1 0 1.0649,0.1446 z"
       id="path2"
       style="fill:#a02c89;fill-opacity:1"
       inkscape:connector-curvature="0" />
  </g>
</svg>
