<?xml version="1.0" encoding="UTF-8" standalone="no"?>
<!-- Created with Inkscape (http://www.inkscape.org/) -->

<svg
   xmlns:dc="http://purl.org/dc/elements/1.1/"
   xmlns:cc="http://creativecommons.org/ns#"
   xmlns:rdf="http://www.w3.org/1999/02/22-rdf-syntax-ns#"
   xmlns:svg="http://www.w3.org/2000/svg"
   xmlns="http://www.w3.org/2000/svg"
   xmlns:sodipodi="http://sodipodi.sourceforge.net/DTD/sodipodi-0.dtd"
   xmlns:inkscape="http://www.inkscape.org/namespaces/inkscape"
   width="14mm"
   height="14mm"
   viewBox="0 0 14 14"
   version="1.1"
   id="svg917"
   sodipodi:docname="gear.svg"
   inkscape:version="0.92.3 (2405546, 2018-03-11)">
  <defs
     id="defs911" />
  <sodipodi:namedview
     id="base"
     pagecolor="#ffffff"
     bordercolor="#666666"
     borderopacity="1.0"
     inkscape:pageopacity="0.0"
     inkscape:pageshadow="2"
     inkscape:zoom="5.6568542"
     inkscape:cx="-3.7697757"
     inkscape:cy="17.277373"
     inkscape:document-units="mm"
     inkscape:current-layer="layer1"
     showgrid="true"
     inkscape:window-width="1366"
     inkscape:window-height="741"
     inkscape:window-x="0"
     inkscape:window-y="27"
     inkscape:window-maximized="1">
    <inkscape:grid
       type="xygrid"
       id="grid2142"
       units="mm"
       spacingx="0.19999999"
       spacingy="0.19999999" />
  </sodipodi:namedview>
  <metadata
     id="metadata914">
    <rdf:RDF>
      <cc:Work
         rdf:about="">
        <dc:format>image/svg+xml</dc:format>
        <dc:type
           rdf:resource="http://purl.org/dc/dcmitype/StillImage" />
        <dc:title></dc:title>
      </cc:Work>
    </rdf:RDF>
  </metadata>
  <g
     inkscape:label="Layer 1"
     inkscape:groupmode="layer"
     id="layer1"
     transform="translate(0,-283)">
    <path
       inkscape:connector-curvature="0"
       style="fill:#00ff77;fill-opacity:1;stroke:#000000;stroke-width:1.17737627;stroke-miterlimit:4;stroke-dasharray:none;stroke-opacity:1"
       d="m 13.239962,288.71545 c -1.017317,-0.0137 -1.42107,-0.0997 -1.720244,-0.74796 -0.299171,-0.67313 -0.04811,-1.13133 0.598348,-1.77008 -0.423829,-0.59835 -0.972313,-1.09697 -1.595587,-1.5208 -0.6370096,0.65805 -1.0720367,0.92245 -1.7451761,0.67313 -0.673139,-0.2493 -0.8620404,-0.67157 -0.8476556,-1.67038 -0.7479317,-0.0997 -1.4958633,-0.0747 -2.193934,0.0498 0.014712,0.92579 -0.00317,1.3951 -0.747931,1.72025 -0.6731388,0.29916 -1.0277238,0.17253 -1.7701051,-0.59836 -0.5983448,0.42382 -1.0969671,0.97232 -1.5207948,1.5956 0.688834,0.68467 0.92245,1.07203 0.6731388,1.74518 -0.2493111,0.67313 -0.5875067,0.82548 -1.67038075,0.84763 -0.0997243,0.74796 -0.074793,1.49587 0.0498612,2.19394 1.06648385,-0.0191 1.42106965,0.0997 1.72024255,0.74795 0.2991728,0.67312 0.1232674,1.0277 -0.5983452,1.77009 0.4238278,0.59834 0.972311,1.09697 1.595588,1.5208 0.6846703,-0.738 1.072035,-0.92246 1.7451736,-0.67314 0.6731379,0.24931 0.8418896,0.65306 0.8476559,1.67038 0.7479319,0.0997 1.4958635,0.0747 2.1939328,-0.0498 -0.019165,-1.01734 0.099724,-1.42109 0.7479314,-1.72025 0.6731398,-0.29918 1.0768923,-0.13974 1.7701053,0.59834 0.598346,-0.42382 1.096966,-0.9723 1.520795,-1.59558 -0.688836,-0.6355 -0.922449,-1.07203 -0.673139,-1.74519 0.24931,-0.67313 0.702233,-0.84188 1.670381,-0.84764 0.124654,-0.72301 0.09973,-1.47093 -0.04985,-2.19393 z M 6.9999997,292.6 c -1.5575706,0 -2.5999999,-1.04243 -2.5999999,-2.6 0,-1.55757 1.0424292,-2.6 2.5999998,-2.6 1.5575706,0 2.5999999,1.04243 2.5999999,2.6 0,1.55757 -1.0424292,2.6 -2.5999998,2.6 z"
       id="path884"
       sodipodi:nodetypes="ccccscccccscccccccccccccccccccc" />
  </g>
</svg>
