<?xml version="1.0" encoding="UTF-8" standalone="no"?>
<!-- Created with Inkscape (http://www.inkscape.org/) -->

<svg
   xmlns:dc="http://purl.org/dc/elements/1.1/"
   xmlns:cc="http://creativecommons.org/ns#"
   xmlns:rdf="http://www.w3.org/1999/02/22-rdf-syntax-ns#"
   xmlns:svg="http://www.w3.org/2000/svg"
   xmlns="http://www.w3.org/2000/svg"
   xmlns:sodipodi="http://sodipodi.sourceforge.net/DTD/sodipodi-0.dtd"
   xmlns:inkscape="http://www.inkscape.org/namespaces/inkscape"
   width="32.00013mm"
   height="32.000156mm"
   viewBox="0 0 32.00013 32.000156"
   version="1.1"
   id="svg892"
   inkscape:version="0.92.5 (2060ec1f9f, 2020-04-08)"
   sodipodi:docname="logo.svg">
  <defs
     id="defs886" />
  <sodipodi:namedview
     id="base"
     pagecolor="#ffffff"
     bordercolor="#666666"
     borderopacity="1.0"
     inkscape:pageopacity="0.0"
     inkscape:pageshadow="2"
     inkscape:zoom="4"
     inkscape:cx="-69.884302"
     inkscape:cy="48.746014"
     inkscape:document-units="mm"
     inkscape:current-layer="layer1"
     showgrid="false"
     fit-margin-top="0"
     fit-margin-left="0"
     fit-margin-right="0"
     fit-margin-bottom="0"
     inkscape:window-width="1366"
     inkscape:window-height="741"
     inkscape:window-x="0"
     inkscape:window-y="27"
     inkscape:window-maximized="1" />
  <metadata
     id="metadata889">
    <rdf:RDF>
      <cc:Work
         rdf:about="">
        <dc:format>image/svg+xml</dc:format>
        <dc:type
           rdf:resource="http://purl.org/dc/dcmitype/StillImage" />
        <dc:title />
      </cc:Work>
    </rdf:RDF>
  </metadata>
  <g
     inkscape:label="Layer 1"
     inkscape:groupmode="layer"
     id="layer1"
     transform="translate(-9.5264339,-207.46976)">
    <path
       inkscape:connector-curvature="0"
       style="fill:#008080;stroke:none;stroke-width:4.57144976;stroke-miterlimit:4;stroke-dasharray:none;stroke-opacity:1;paint-order:markers stroke fill;fill-opacity:1"
       d="m 25.536307,239.46984 c -0.4314,0 -0.8628,0 -1.28887,-0.0481 a 3.4139194,3.4139194 0 0 1 -2.97187,-2.24224 3.4778309,3.4778309 0 0 1 0.80421,-3.69089 3.5790247,3.5790247 0 0 1 1.85875,-0.97462 2.5937267,2.5937267 0 0 0 -0.49531,-5.13421 h -9.96481 A 3.9411866,3.9411866 0 0 1 9.5265673,223.46 16.004414,16.004414 0 0 1 26.159437,207.48219 a 16.068322,16.068322 0 0 1 15.35465,15.35471 16.004414,16.004414 0 0 1 -15.97778,16.63285 z m -12.51593,-18.28922 a 3.4512006,3.4512006 0 1 0 3.46185,-3.45119 3.4565272,3.4565272 0 0 0 -3.46185,3.45119 z m 8.54279,-9.81037 a 3.4512006,3.4512006 0 1 0 3.44055,3.45119 3.4512006,3.4512006 0 0 0 -3.44055,-3.45119 z m 8.26584,0.53261 a 3.4512006,3.4512006 0 1 0 3.4512,3.45121 3.4512006,3.4512006 0 0 0 -3.4512,-3.45121 z m 4.55367,7.4243 a 3.4512006,3.4512006 0 1 0 3.4512,3.45121 3.4565272,3.4565272 0 0 0 -3.4512,-3.45121 z"
       id="path863" />
  </g>
</svg>
