<?xml version="1.0" encoding="UTF-8" standalone="no"?>
<!-- Created with Inkscape (http://www.inkscape.org/) -->

<svg
   xmlns:dc="http://purl.org/dc/elements/1.1/"
   xmlns:cc="http://creativecommons.org/ns#"
   xmlns:rdf="http://www.w3.org/1999/02/22-rdf-syntax-ns#"
   xmlns:svg="http://www.w3.org/2000/svg"
   xmlns="http://www.w3.org/2000/svg"
   xmlns:sodipodi="http://sodipodi.sourceforge.net/DTD/sodipodi-0.dtd"
   xmlns:inkscape="http://www.inkscape.org/namespaces/inkscape"
   width="32.00013mm"
   height="32.000156mm"
   viewBox="0 0 32.00013 32.000156"
   version="1.1"
   id="svg892"
   inkscape:version="0.92.3 (2405546, 2018-03-11)"
   sodipodi:docname="palette.svg">
  <defs
     id="defs886" />
  <sodipodi:namedview
     id="base"
     pagecolor="#ffffff"
     bordercolor="#666666"
     borderopacity="1.0"
     inkscape:pageopacity="0.0"
     inkscape:pageshadow="2"
     inkscape:zoom="4"
     inkscape:cx="-23.259302"
     inkscape:cy="48.746014"
     inkscape:document-units="mm"
     inkscape:current-layer="layer1"
     showgrid="false"
     fit-margin-top="0"
     fit-margin-left="0"
     fit-margin-right="0"
     fit-margin-bottom="0"
     inkscape:window-width="1366"
     inkscape:window-height="741"
     inkscape:window-x="0"
     inkscape:window-y="27"
     inkscape:window-maximized="1" />
  <metadata
     id="metadata889">
    <rdf:RDF>
      <cc:Work
         rdf:about="">
        <dc:format>image/svg+xml</dc:format>
        <dc:type
           rdf:resource="http://purl.org/dc/dcmitype/StillImage" />
        <dc:title />
      </cc:Work>
    </rdf:RDF>
  </metadata>
  <g
     inkscape:label="Layer 1"
     inkscape:groupmode="layer"
     id="layer1"
     transform="translate(-9.5264339,-207.46976)">
    <ellipse
       style="opacity:1;fill:#ffffff;fill-opacity:1;stroke:#ffffff;stroke-width:2;stroke-linecap:butt;stroke-linejoin:round;stroke-miterlimit:4;stroke-dasharray:none;stroke-opacity:1;paint-order:markers stroke fill"
       id="path853-3"
       cx="-29.421242"
       cy="216.05429"
       rx="3.6710937"
       ry="3.5057292"
       transform="scale(-1,1)" />
    <ellipse
       style="opacity:1;fill:#ffffff;fill-opacity:1;stroke:#ffffff;stroke-width:2;stroke-linecap:butt;stroke-linejoin:round;stroke-miterlimit:4;stroke-dasharray:none;stroke-opacity:1;paint-order:markers stroke fill"
       id="path853-6"
       cx="-22.211348"
       cy="215.98814"
       rx="3.6710937"
       ry="3.5057292"
       transform="scale(-1,1)" />
    <ellipse
       style="opacity:1;fill:#ffffff;fill-opacity:1;stroke:#ffffff;stroke-width:2;stroke-linecap:butt;stroke-linejoin:round;stroke-miterlimit:4;stroke-dasharray:none;stroke-opacity:1;paint-order:markers stroke fill"
       id="path853-7"
       cx="-17.779575"
       cy="221.14752"
       rx="3.6710937"
       ry="3.5057292"
       transform="scale(-1,1)" />
    <ellipse
       style="opacity:1;fill:#ffffff;fill-opacity:1;stroke:#ffffff;stroke-width:2;stroke-linecap:butt;stroke-linejoin:round;stroke-miterlimit:4;stroke-dasharray:none;stroke-opacity:1;paint-order:markers stroke fill"
       id="path853"
       cx="-33.687649"
       cy="222.53658"
       rx="3.6710937"
       ry="3.5057292"
       transform="scale(-1,1)" />
    <path
       inkscape:connector-curvature="0"
       style="fill:#784421;stroke:#ffffff;stroke-width:4;stroke-miterlimit:4;stroke-dasharray:none;stroke-opacity:1;paint-order:markers stroke fill"
       d="m 25.534695,237.47013 c -0.377474,0 -0.754949,0 -1.127761,-0.0421 a 2.9871657,2.9871657 0 0 1 -2.600373,-1.96195 3.043088,3.043088 0 0 1 0.703684,-3.22951 3.1316322,3.1316322 0 0 1 1.626399,-0.85279 2.2695004,2.2695004 0 0 0 -0.433395,-4.49241 h -8.719171 a 3.4485224,3.4485224 0 0 1 -3.457842,-3.42979 14.003798,14.003798 0 0 1 14.553698,-13.98052 14.059717,14.059717 0 0 1 13.435254,13.43531 14.003798,14.003798 0 0 1 -13.980493,14.55367 z M 14.583304,221.46714 a 3.0197866,3.0197866 0 1 0 3.029108,-3.01978 3.0244474,3.0244474 0 0 0 -3.029108,3.01978 z m 7.474907,-8.58404 a 3.0197866,3.0197866 0 1 0 3.010467,3.01978 3.0197866,3.0197866 0 0 0 -3.010467,-3.01978 z m 7.232577,0.46603 a 3.0197866,3.0197866 0 1 0 3.019785,3.0198 3.0197866,3.0197866 0 0 0 -3.019785,-3.0198 z m 3.98444,6.49624 a 3.0197866,3.0197866 0 1 0 3.019787,3.01979 3.0244474,3.0244474 0 0 0 -3.019787,-3.01979 z"
       id="path863" />
  </g>
</svg>
